M48
;DRILL file {KiCad 4.0.7} date 01/25/20 22:00:24
;FORMAT={2:4/ absolute / inch / suppress leading zeros}
FMAT,2
INCH,TZ
T1C0.016
T2C0.031
T3C0.035
T4C0.039
T5C0.043
T6C0.047
T7C0.126
%
G90
G05
M72
T1
X40000Y-20250
X40000Y-21000
X43500Y-27500
X44250Y-40250
X45250Y-24250
X45250Y-27750
X45250Y-31750
X45250Y-32250
X45500Y-24500
X45500Y-27000
X45500Y-32500
X45500Y-36000
X45750Y-18500
X45750Y-19000
X45750Y-24750
X45750Y-27250
X45750Y-31750
X46000Y-18250
X46000Y-19250
X46000Y-31250
X46000Y-32250
X46000Y-33500
X46500Y-35750
X46750Y-36000
X47000Y-36250
X47500Y-35750
X47500Y-36500
X47750Y-36750
X48000Y-23000
X49250Y-27250
X49500Y-22750
X49750Y-24500
X49750Y-27000
X50000Y-24000
X50000Y-25500
X50250Y-28750
X50500Y-28500
X51000Y-17000
X51000Y-23000
X51000Y-24000
X51250Y-18000
X51250Y-23500
X51250Y-33500
X51500Y-28000
X51500Y-33250
X51750Y-18500
X51750Y-20000
X51750Y-26500
X51750Y-27250
X51750Y-34000
X52000Y-26250
X52000Y-27500
X52250Y-26500
X52250Y-27250
X52250Y-33250
X52250Y-33750
X52250Y-34250
X53250Y-21750
X53250Y-24000
X53750Y-24000
X53750Y-33000
X53750Y-34000
X54000Y-19500
X54000Y-40500
X54250Y-16500
X54250Y-29250
X54250Y-33250
X54250Y-33750
X54500Y-29000
X54750Y-19000
X54750Y-29250
X54750Y-40500
X55000Y-17000
X55000Y-17500
X55000Y-29000
X55250Y-33250
X55500Y-18000
X57000Y-29000
X57250Y-27000
X57500Y-18500
X57500Y-40000
X57750Y-14500
X57750Y-26000
X57750Y-32000
X57750Y-32500
T2
X43500Y-17500
X43500Y-21500
X43750Y-32500
X44250Y-23500
X44250Y-24500
X44250Y-25500
X44250Y-30016
X44250Y-31000
X45000Y-17500
X45000Y-21500
X46750Y-24750
X46750Y-26250
X46750Y-27750
X46750Y-29250
X46750Y-30750
X47250Y-16250
X47250Y-17250
X47250Y-18250
X47250Y-19250
X47250Y-20250
X47250Y-21250
X47250Y-22250
X47250Y-23250
X47750Y-32500
X47781Y-14750
X49750Y-14750
X50250Y-16250
X50250Y-17250
X50250Y-18250
X50250Y-19250
X50250Y-20250
X50250Y-21250
X50250Y-22250
X50250Y-23250
X50750Y-24750
X50750Y-26250
X50750Y-27750
X50750Y-29250
X50750Y-30750
X53000Y-16250
X53000Y-17250
X53000Y-18250
X53000Y-19250
X53000Y-20250
X53000Y-21250
X53000Y-22250
X53000Y-23250
X53000Y-26250
X53000Y-27250
X53000Y-28250
X53000Y-29250
X53000Y-32250
X53000Y-33250
X53000Y-34250
X53000Y-35250
X53531Y-14750
X53531Y-24750
X53531Y-30750
X55500Y-14750
X55500Y-24750
X55500Y-30750
X56000Y-16250
X56000Y-17250
X56000Y-18250
X56000Y-19250
X56000Y-20250
X56000Y-21250
X56000Y-22250
X56000Y-23250
X56000Y-26250
X56000Y-27250
X56000Y-28250
X56000Y-29250
X56000Y-32250
X56000Y-33250
X56000Y-34250
X56000Y-35250
T3
X44250Y-14750
X44250Y-15750
X44250Y-27000
X44250Y-28000
T4
X40614Y-18427
X40614Y-19518
X40614Y-20608
X40614Y-21699
X40614Y-30711
X40614Y-31801
X40614Y-32892
X40614Y-33982
X41732Y-17882
X41732Y-18972
X41732Y-20063
X41732Y-21154
X41732Y-22244
X41732Y-30165
X41732Y-31256
X41732Y-32346
X41732Y-33437
X41732Y-34528
X43400Y-41787
X43945Y-42906
X44491Y-41787
X44500Y-34750
X45000Y-37500
X45000Y-38500
X45000Y-39500
X45036Y-42906
X45500Y-34750
X45581Y-41787
X46000Y-37500
X46000Y-38500
X46000Y-39500
X46126Y-42906
X46500Y-34750
X46672Y-41787
X47217Y-42906
X47762Y-41787
X48250Y-37500
X48250Y-38500
X48250Y-39500
X49250Y-37500
X49250Y-38500
X49250Y-39500
X51500Y-37500
X52500Y-37500
T5
X52500Y-42941
X52500Y-45500
X54272Y-42941
X54272Y-45500
X55500Y-42941
X55500Y-45500
X57272Y-42941
X57272Y-45500
T6
X49250Y-34750
X50234Y-32766
X51219Y-34750
T7
X40660Y-42346
X41173Y-15142
X41173Y-24984
X41173Y-27425
X41173Y-37268
X50502Y-42346
T0
M30
