%TF.GenerationSoftware,KiCad,Pcbnew,5.1.12-84ad8e8a86~92~ubuntu20.04.1*%
%TF.CreationDate,2021-11-27T12:58:46+01:00*%
%TF.ProjectId,C64 Joystick Switcher,43363420-4a6f-4797-9374-69636b205377,rev?*%
%TF.SameCoordinates,PX5d80860PY70086b8*%
%TF.FileFunction,Soldermask,Bot*%
%TF.FilePolarity,Negative*%
%FSLAX46Y46*%
G04 Gerber Fmt 4.6, Leading zero omitted, Abs format (unit mm)*
G04 Created by KiCad (PCBNEW 5.1.12-84ad8e8a86~92~ubuntu20.04.1) date 2021-11-27 12:58:46*
%MOMM*%
%LPD*%
G01*
G04 APERTURE LIST*
%ADD10R,1.600000X1.600000*%
%ADD11C,1.600000*%
%ADD12C,4.800000*%
%ADD13O,1.600000X1.600000*%
%ADD14R,1.800000X1.800000*%
%ADD15C,1.800000*%
%ADD16R,1.700000X1.700000*%
%ADD17O,1.700000X1.700000*%
%ADD18C,2.000000*%
%ADD19C,1.520000*%
%ADD20R,1.520000X1.520000*%
%ADD21C,2.500000*%
G04 APERTURE END LIST*
D10*
%TO.C,J2*%
X7956000Y60975000D03*
D11*
X7956000Y63745000D03*
X7956000Y66515000D03*
X7956000Y69285000D03*
X7956000Y72055000D03*
X5116000Y62360000D03*
X5116000Y65130000D03*
X5116000Y67900000D03*
X5116000Y70670000D03*
D12*
X6536000Y79015000D03*
X6536000Y54015000D03*
%TD*%
D10*
%TO.C,J1*%
X7956000Y29775000D03*
D11*
X7956000Y32545000D03*
X7956000Y35315000D03*
X7956000Y38085000D03*
X7956000Y40855000D03*
X5116000Y31160000D03*
X5116000Y33930000D03*
X5116000Y36700000D03*
X5116000Y39470000D03*
D12*
X6536000Y47815000D03*
X6536000Y22815000D03*
%TD*%
D11*
%TO.C,R2*%
X20701000Y39370000D03*
D13*
X30861000Y39370000D03*
%TD*%
D14*
%TO.C,D1*%
X14351000Y77470000D03*
D15*
X14351000Y80010000D03*
%TD*%
D14*
%TO.C,D2*%
X14351000Y46355000D03*
D15*
X14351000Y48895000D03*
%TD*%
D10*
%TO.C,J3*%
X12192000Y11335000D03*
D11*
X14962000Y11335000D03*
X17732000Y11335000D03*
X20502000Y11335000D03*
X23272000Y11335000D03*
X13577000Y8495000D03*
X16347000Y8495000D03*
X19117000Y8495000D03*
X21887000Y8495000D03*
D12*
X5232000Y9915000D03*
X30232000Y9915000D03*
%TD*%
D16*
%TO.C,JP1*%
X32766000Y22225000D03*
D17*
X35306000Y22225000D03*
%TD*%
D11*
%TO.C,R1*%
X20701000Y43180000D03*
D13*
X30861000Y43180000D03*
%TD*%
D11*
%TO.C,R3*%
X12446000Y73025000D03*
D13*
X12446000Y62865000D03*
%TD*%
D11*
%TO.C,R4*%
X16256000Y73025000D03*
D13*
X16256000Y62865000D03*
%TD*%
D18*
%TO.C,SW1*%
X39806000Y1905000D03*
X35306000Y1905000D03*
X39806000Y8405000D03*
X35306000Y8405000D03*
%TD*%
%TO.C,SW2*%
X47426000Y1905000D03*
X42926000Y1905000D03*
X47426000Y8405000D03*
X42926000Y8405000D03*
%TD*%
D10*
%TO.C,U1*%
X21971000Y76200000D03*
D13*
X29591000Y58420000D03*
X21971000Y73660000D03*
X29591000Y60960000D03*
X21971000Y71120000D03*
X29591000Y63500000D03*
X21971000Y68580000D03*
X29591000Y66040000D03*
X21971000Y66040000D03*
X29591000Y68580000D03*
X21971000Y63500000D03*
X29591000Y71120000D03*
X21971000Y60960000D03*
X29591000Y73660000D03*
X21971000Y58420000D03*
X29591000Y76200000D03*
%TD*%
D10*
%TO.C,U2*%
X36576000Y76200000D03*
D13*
X44196000Y58420000D03*
X36576000Y73660000D03*
X44196000Y60960000D03*
X36576000Y71120000D03*
X44196000Y63500000D03*
X36576000Y68580000D03*
X44196000Y66040000D03*
X36576000Y66040000D03*
X44196000Y68580000D03*
X36576000Y63500000D03*
X44196000Y71120000D03*
X36576000Y60960000D03*
X44196000Y73660000D03*
X36576000Y58420000D03*
X44196000Y76200000D03*
%TD*%
D10*
%TO.C,U3*%
X36576000Y50800000D03*
D13*
X44196000Y43180000D03*
X36576000Y48260000D03*
G36*
G01*
X43630315Y45154315D02*
X43630315Y45154315D01*
G75*
G02*
X43630315Y46285685I565685J565685D01*
G01*
X43630315Y46285685D01*
G75*
G02*
X44761685Y46285685I565685J-565685D01*
G01*
X44761685Y46285685D01*
G75*
G02*
X44761685Y45154315I-565685J-565685D01*
G01*
X44761685Y45154315D01*
G75*
G02*
X43630315Y45154315I-565685J565685D01*
G01*
G37*
X36576000Y45720000D03*
X44196000Y48260000D03*
X36576000Y43180000D03*
X44196000Y50800000D03*
%TD*%
D11*
%TO.C,C1*%
X28321000Y80010000D03*
X23321000Y80010000D03*
%TD*%
%TO.C,C2*%
X42926000Y80010000D03*
X37926000Y80010000D03*
%TD*%
%TO.C,C3*%
X42926000Y54610000D03*
X37926000Y54610000D03*
%TD*%
D19*
%TO.C,Q1*%
X14351000Y55245000D03*
X14351000Y57785000D03*
D20*
X14351000Y52705000D03*
%TD*%
D11*
%TO.C,R5*%
X20701000Y50800000D03*
D13*
X30861000Y50800000D03*
%TD*%
D11*
%TO.C,R6*%
X20701000Y54610000D03*
D13*
X30861000Y54610000D03*
%TD*%
D11*
%TO.C,R7*%
X20701000Y46990000D03*
D13*
X30861000Y46990000D03*
%TD*%
D16*
%TO.C,J4*%
X24511000Y22225000D03*
D17*
X27051000Y22225000D03*
X24511000Y19685000D03*
X27051000Y19685000D03*
X24511000Y17145000D03*
X27051000Y17145000D03*
%TD*%
D16*
%TO.C,J5*%
X16256000Y22225000D03*
D17*
X18796000Y22225000D03*
X16256000Y19685000D03*
X18796000Y19685000D03*
X16256000Y17145000D03*
X18796000Y17145000D03*
%TD*%
D11*
%TO.C,R9*%
X13081000Y34925000D03*
D13*
X23241000Y34925000D03*
%TD*%
D21*
%TO.C,RV1*%
X29551000Y34250000D03*
X32051000Y29210000D03*
X27051000Y29210000D03*
%TD*%
D10*
%TO.C,U4*%
X36576000Y35560000D03*
D13*
X44196000Y27940000D03*
X36576000Y33020000D03*
X44196000Y30480000D03*
X36576000Y30480000D03*
X44196000Y33020000D03*
X36576000Y27940000D03*
X44196000Y35560000D03*
%TD*%
D11*
%TO.C,C4*%
X42926000Y39370000D03*
X37926000Y39370000D03*
%TD*%
D10*
%TO.C,C5*%
X14351000Y38735000D03*
D11*
X14351000Y41235000D03*
%TD*%
D16*
%TO.C,JP2*%
X14986000Y29210000D03*
D17*
X17526000Y29210000D03*
X20066000Y29210000D03*
%TD*%
M02*
