G04 #@! TF.FileFunction,Legend,Top*
%FSLAX46Y46*%
G04 Gerber Fmt 4.6, Leading zero omitted, Abs format (unit mm)*
G04 Created by KiCad (PCBNEW 4.0.7) date 01/25/20 22:00:21*
%MOMM*%
%LPD*%
G01*
G04 APERTURE LIST*
%ADD10C,0.100000*%
%ADD11C,0.150000*%
%ADD12C,0.200000*%
%ADD13C,0.120000*%
G04 APERTURE END LIST*
D10*
D11*
X127039762Y-87447381D02*
X126468333Y-87447381D01*
X126754047Y-87447381D02*
X126754047Y-86447381D01*
X126658809Y-86590238D01*
X126563571Y-86685476D01*
X126468333Y-86733095D01*
X127658809Y-86447381D02*
X127754048Y-86447381D01*
X127849286Y-86495000D01*
X127896905Y-86542619D01*
X127944524Y-86637857D01*
X127992143Y-86828333D01*
X127992143Y-87066429D01*
X127944524Y-87256905D01*
X127896905Y-87352143D01*
X127849286Y-87399762D01*
X127754048Y-87447381D01*
X127658809Y-87447381D01*
X127563571Y-87399762D01*
X127515952Y-87352143D01*
X127468333Y-87256905D01*
X127420714Y-87066429D01*
X127420714Y-86828333D01*
X127468333Y-86637857D01*
X127515952Y-86542619D01*
X127563571Y-86495000D01*
X127658809Y-86447381D01*
X128420714Y-87447381D02*
X128420714Y-86447381D01*
X128515952Y-87066429D02*
X128801667Y-87447381D01*
X128801667Y-86780714D02*
X128420714Y-87161667D01*
D12*
X120650000Y-88265000D02*
X123190000Y-88265000D01*
D11*
X125444524Y-81684762D02*
X125587381Y-81732381D01*
X125825477Y-81732381D01*
X125920715Y-81684762D01*
X125968334Y-81637143D01*
X126015953Y-81541905D01*
X126015953Y-81446667D01*
X125968334Y-81351429D01*
X125920715Y-81303810D01*
X125825477Y-81256190D01*
X125635000Y-81208571D01*
X125539762Y-81160952D01*
X125492143Y-81113333D01*
X125444524Y-81018095D01*
X125444524Y-80922857D01*
X125492143Y-80827619D01*
X125539762Y-80780000D01*
X125635000Y-80732381D01*
X125873096Y-80732381D01*
X126015953Y-80780000D01*
X126444524Y-81732381D02*
X126444524Y-80732381D01*
X126825477Y-80732381D01*
X126920715Y-80780000D01*
X126968334Y-80827619D01*
X127015953Y-80922857D01*
X127015953Y-81065714D01*
X126968334Y-81160952D01*
X126920715Y-81208571D01*
X126825477Y-81256190D01*
X126444524Y-81256190D01*
X127444524Y-81208571D02*
X127777858Y-81208571D01*
X127920715Y-81732381D02*
X127444524Y-81732381D01*
X127444524Y-80732381D01*
X127920715Y-80732381D01*
X128349286Y-81208571D02*
X128682620Y-81208571D01*
X128825477Y-81732381D02*
X128349286Y-81732381D01*
X128349286Y-80732381D01*
X128825477Y-80732381D01*
X129254048Y-81732381D02*
X129254048Y-80732381D01*
X129492143Y-80732381D01*
X129635001Y-80780000D01*
X129730239Y-80875238D01*
X129777858Y-80970476D01*
X129825477Y-81160952D01*
X129825477Y-81303810D01*
X129777858Y-81494286D01*
X129730239Y-81589524D01*
X129635001Y-81684762D01*
X129492143Y-81732381D01*
X129254048Y-81732381D01*
D12*
X143510000Y-103505000D02*
X143510000Y-102235000D01*
X111125000Y-103505000D02*
X143510000Y-103505000D01*
X143510000Y-91440000D02*
X143510000Y-102235000D01*
X111125000Y-102235000D02*
X111125000Y-103505000D01*
X111125000Y-91440000D02*
X111125000Y-102235000D01*
X111760000Y-91440000D02*
X111125000Y-91440000D01*
X120015000Y-90170000D02*
X111125000Y-90170000D01*
X120015000Y-86360000D02*
X120015000Y-90170000D01*
X111125000Y-86360000D02*
X120015000Y-86360000D01*
X111125000Y-90170000D02*
X111125000Y-86360000D01*
X143510000Y-91440000D02*
X111760000Y-91440000D01*
D11*
X145772143Y-97510715D02*
X145819762Y-97558334D01*
X145867381Y-97701191D01*
X145867381Y-97796429D01*
X145819762Y-97939287D01*
X145724524Y-98034525D01*
X145629286Y-98082144D01*
X145438810Y-98129763D01*
X145295952Y-98129763D01*
X145105476Y-98082144D01*
X145010238Y-98034525D01*
X144915000Y-97939287D01*
X144867381Y-97796429D01*
X144867381Y-97701191D01*
X144915000Y-97558334D01*
X144962619Y-97510715D01*
X145867381Y-96939287D02*
X145819762Y-97034525D01*
X145772143Y-97082144D01*
X145676905Y-97129763D01*
X145391190Y-97129763D01*
X145295952Y-97082144D01*
X145248333Y-97034525D01*
X145200714Y-96939287D01*
X145200714Y-96796429D01*
X145248333Y-96701191D01*
X145295952Y-96653572D01*
X145391190Y-96605953D01*
X145676905Y-96605953D01*
X145772143Y-96653572D01*
X145819762Y-96701191D01*
X145867381Y-96796429D01*
X145867381Y-96939287D01*
X145867381Y-96177382D02*
X145200714Y-96177382D01*
X145295952Y-96177382D02*
X145248333Y-96129763D01*
X145200714Y-96034525D01*
X145200714Y-95891667D01*
X145248333Y-95796429D01*
X145343571Y-95748810D01*
X145867381Y-95748810D01*
X145343571Y-95748810D02*
X145248333Y-95701191D01*
X145200714Y-95605953D01*
X145200714Y-95463096D01*
X145248333Y-95367858D01*
X145343571Y-95320239D01*
X145867381Y-95320239D01*
X145867381Y-94844049D02*
X145200714Y-94844049D01*
X145295952Y-94844049D02*
X145248333Y-94796430D01*
X145200714Y-94701192D01*
X145200714Y-94558334D01*
X145248333Y-94463096D01*
X145343571Y-94415477D01*
X145867381Y-94415477D01*
X145343571Y-94415477D02*
X145248333Y-94367858D01*
X145200714Y-94272620D01*
X145200714Y-94129763D01*
X145248333Y-94034525D01*
X145343571Y-93986906D01*
X145867381Y-93986906D01*
X145867381Y-93367859D02*
X145819762Y-93463097D01*
X145772143Y-93510716D01*
X145676905Y-93558335D01*
X145391190Y-93558335D01*
X145295952Y-93510716D01*
X145248333Y-93463097D01*
X145200714Y-93367859D01*
X145200714Y-93225001D01*
X145248333Y-93129763D01*
X145295952Y-93082144D01*
X145391190Y-93034525D01*
X145676905Y-93034525D01*
X145772143Y-93082144D01*
X145819762Y-93129763D01*
X145867381Y-93225001D01*
X145867381Y-93367859D01*
X145867381Y-92177382D02*
X144867381Y-92177382D01*
X145819762Y-92177382D02*
X145867381Y-92272620D01*
X145867381Y-92463097D01*
X145819762Y-92558335D01*
X145772143Y-92605954D01*
X145676905Y-92653573D01*
X145391190Y-92653573D01*
X145295952Y-92605954D01*
X145248333Y-92558335D01*
X145200714Y-92463097D01*
X145200714Y-92272620D01*
X145248333Y-92177382D01*
X145867381Y-91558335D02*
X145819762Y-91653573D01*
X145772143Y-91701192D01*
X145676905Y-91748811D01*
X145391190Y-91748811D01*
X145295952Y-91701192D01*
X145248333Y-91653573D01*
X145200714Y-91558335D01*
X145200714Y-91415477D01*
X145248333Y-91320239D01*
X145295952Y-91272620D01*
X145391190Y-91225001D01*
X145676905Y-91225001D01*
X145772143Y-91272620D01*
X145819762Y-91320239D01*
X145867381Y-91415477D01*
X145867381Y-91558335D01*
X145867381Y-90796430D02*
X145200714Y-90796430D01*
X145391190Y-90796430D02*
X145295952Y-90748811D01*
X145248333Y-90701192D01*
X145200714Y-90605954D01*
X145200714Y-90510715D01*
X145819762Y-89796429D02*
X145867381Y-89891667D01*
X145867381Y-90082144D01*
X145819762Y-90177382D01*
X145724524Y-90225001D01*
X145343571Y-90225001D01*
X145248333Y-90177382D01*
X145200714Y-90082144D01*
X145200714Y-89891667D01*
X145248333Y-89796429D01*
X145343571Y-89748810D01*
X145438810Y-89748810D01*
X145534048Y-90225001D01*
X144867381Y-88129762D02*
X144867381Y-88320239D01*
X144915000Y-88415477D01*
X144962619Y-88463096D01*
X145105476Y-88558334D01*
X145295952Y-88605953D01*
X145676905Y-88605953D01*
X145772143Y-88558334D01*
X145819762Y-88510715D01*
X145867381Y-88415477D01*
X145867381Y-88225000D01*
X145819762Y-88129762D01*
X145772143Y-88082143D01*
X145676905Y-88034524D01*
X145438810Y-88034524D01*
X145343571Y-88082143D01*
X145295952Y-88129762D01*
X145248333Y-88225000D01*
X145248333Y-88415477D01*
X145295952Y-88510715D01*
X145343571Y-88558334D01*
X145438810Y-88605953D01*
X145200714Y-87177381D02*
X145867381Y-87177381D01*
X144819762Y-87415477D02*
X145534048Y-87653572D01*
X145534048Y-87034524D01*
X144867381Y-85605952D02*
X145581667Y-85605952D01*
X145724524Y-85653572D01*
X145819762Y-85748810D01*
X145867381Y-85891667D01*
X145867381Y-85986905D01*
X145867381Y-84986905D02*
X145819762Y-85082143D01*
X145772143Y-85129762D01*
X145676905Y-85177381D01*
X145391190Y-85177381D01*
X145295952Y-85129762D01*
X145248333Y-85082143D01*
X145200714Y-84986905D01*
X145200714Y-84844047D01*
X145248333Y-84748809D01*
X145295952Y-84701190D01*
X145391190Y-84653571D01*
X145676905Y-84653571D01*
X145772143Y-84701190D01*
X145819762Y-84748809D01*
X145867381Y-84844047D01*
X145867381Y-84986905D01*
X145200714Y-84320238D02*
X145867381Y-84082143D01*
X145200714Y-83844047D02*
X145867381Y-84082143D01*
X146105476Y-84177381D01*
X146153095Y-84225000D01*
X146200714Y-84320238D01*
X145819762Y-83510714D02*
X145867381Y-83415476D01*
X145867381Y-83225000D01*
X145819762Y-83129761D01*
X145724524Y-83082142D01*
X145676905Y-83082142D01*
X145581667Y-83129761D01*
X145534048Y-83225000D01*
X145534048Y-83367857D01*
X145486429Y-83463095D01*
X145391190Y-83510714D01*
X145343571Y-83510714D01*
X145248333Y-83463095D01*
X145200714Y-83367857D01*
X145200714Y-83225000D01*
X145248333Y-83129761D01*
X145200714Y-82796428D02*
X145200714Y-82415476D01*
X144867381Y-82653571D02*
X145724524Y-82653571D01*
X145819762Y-82605952D01*
X145867381Y-82510714D01*
X145867381Y-82415476D01*
X145867381Y-82082142D02*
X145200714Y-82082142D01*
X144867381Y-82082142D02*
X144915000Y-82129761D01*
X144962619Y-82082142D01*
X144915000Y-82034523D01*
X144867381Y-82082142D01*
X144962619Y-82082142D01*
X145819762Y-81177380D02*
X145867381Y-81272618D01*
X145867381Y-81463095D01*
X145819762Y-81558333D01*
X145772143Y-81605952D01*
X145676905Y-81653571D01*
X145391190Y-81653571D01*
X145295952Y-81605952D01*
X145248333Y-81558333D01*
X145200714Y-81463095D01*
X145200714Y-81272618D01*
X145248333Y-81177380D01*
X145867381Y-80748809D02*
X144867381Y-80748809D01*
X145486429Y-80653571D02*
X145867381Y-80367856D01*
X145200714Y-80367856D02*
X145581667Y-80748809D01*
X145819762Y-79224999D02*
X145867381Y-79082142D01*
X145867381Y-78844046D01*
X145819762Y-78748808D01*
X145772143Y-78701189D01*
X145676905Y-78653570D01*
X145581667Y-78653570D01*
X145486429Y-78701189D01*
X145438810Y-78748808D01*
X145391190Y-78844046D01*
X145343571Y-79034523D01*
X145295952Y-79129761D01*
X145248333Y-79177380D01*
X145153095Y-79224999D01*
X145057857Y-79224999D01*
X144962619Y-79177380D01*
X144915000Y-79129761D01*
X144867381Y-79034523D01*
X144867381Y-78796427D01*
X144915000Y-78653570D01*
X145200714Y-78320237D02*
X145867381Y-78129761D01*
X145391190Y-77939284D01*
X145867381Y-77748808D01*
X145200714Y-77558332D01*
X145867381Y-77177380D02*
X145200714Y-77177380D01*
X144867381Y-77177380D02*
X144915000Y-77224999D01*
X144962619Y-77177380D01*
X144915000Y-77129761D01*
X144867381Y-77177380D01*
X144962619Y-77177380D01*
X145200714Y-76844047D02*
X145200714Y-76463095D01*
X144867381Y-76701190D02*
X145724524Y-76701190D01*
X145819762Y-76653571D01*
X145867381Y-76558333D01*
X145867381Y-76463095D01*
X145819762Y-75701189D02*
X145867381Y-75796427D01*
X145867381Y-75986904D01*
X145819762Y-76082142D01*
X145772143Y-76129761D01*
X145676905Y-76177380D01*
X145391190Y-76177380D01*
X145295952Y-76129761D01*
X145248333Y-76082142D01*
X145200714Y-75986904D01*
X145200714Y-75796427D01*
X145248333Y-75701189D01*
X145867381Y-75272618D02*
X144867381Y-75272618D01*
X145867381Y-74844046D02*
X145343571Y-74844046D01*
X145248333Y-74891665D01*
X145200714Y-74986903D01*
X145200714Y-75129761D01*
X145248333Y-75224999D01*
X145295952Y-75272618D01*
X145819762Y-73986903D02*
X145867381Y-74082141D01*
X145867381Y-74272618D01*
X145819762Y-74367856D01*
X145724524Y-74415475D01*
X145343571Y-74415475D01*
X145248333Y-74367856D01*
X145200714Y-74272618D01*
X145200714Y-74082141D01*
X145248333Y-73986903D01*
X145343571Y-73939284D01*
X145438810Y-73939284D01*
X145534048Y-74415475D01*
X145867381Y-73510713D02*
X145200714Y-73510713D01*
X145391190Y-73510713D02*
X145295952Y-73463094D01*
X145248333Y-73415475D01*
X145200714Y-73320237D01*
X145200714Y-73224998D01*
D10*
X110375952Y-42906905D02*
X110375952Y-42106905D01*
X110680714Y-42106905D01*
X110756905Y-42145000D01*
X110795000Y-42183095D01*
X110833095Y-42259286D01*
X110833095Y-42373571D01*
X110795000Y-42449762D01*
X110756905Y-42487857D01*
X110680714Y-42525952D01*
X110375952Y-42525952D01*
X111328333Y-42106905D02*
X111480714Y-42106905D01*
X111556905Y-42145000D01*
X111633095Y-42221190D01*
X111671190Y-42373571D01*
X111671190Y-42640238D01*
X111633095Y-42792619D01*
X111556905Y-42868810D01*
X111480714Y-42906905D01*
X111328333Y-42906905D01*
X111252143Y-42868810D01*
X111175952Y-42792619D01*
X111137857Y-42640238D01*
X111137857Y-42373571D01*
X111175952Y-42221190D01*
X111252143Y-42145000D01*
X111328333Y-42106905D01*
X112471190Y-42906905D02*
X112204523Y-42525952D01*
X112014047Y-42906905D02*
X112014047Y-42106905D01*
X112318809Y-42106905D01*
X112395000Y-42145000D01*
X112433095Y-42183095D01*
X112471190Y-42259286D01*
X112471190Y-42373571D01*
X112433095Y-42449762D01*
X112395000Y-42487857D01*
X112318809Y-42525952D01*
X112014047Y-42525952D01*
X112699761Y-42106905D02*
X113156904Y-42106905D01*
X112928333Y-42906905D02*
X112928333Y-42106905D01*
X113995000Y-42183095D02*
X114033095Y-42145000D01*
X114109286Y-42106905D01*
X114299762Y-42106905D01*
X114375952Y-42145000D01*
X114414048Y-42183095D01*
X114452143Y-42259286D01*
X114452143Y-42335476D01*
X114414048Y-42449762D01*
X113956905Y-42906905D01*
X114452143Y-42906905D01*
X110375952Y-74021905D02*
X110375952Y-73221905D01*
X110680714Y-73221905D01*
X110756905Y-73260000D01*
X110795000Y-73298095D01*
X110833095Y-73374286D01*
X110833095Y-73488571D01*
X110795000Y-73564762D01*
X110756905Y-73602857D01*
X110680714Y-73640952D01*
X110375952Y-73640952D01*
X111328333Y-73221905D02*
X111480714Y-73221905D01*
X111556905Y-73260000D01*
X111633095Y-73336190D01*
X111671190Y-73488571D01*
X111671190Y-73755238D01*
X111633095Y-73907619D01*
X111556905Y-73983810D01*
X111480714Y-74021905D01*
X111328333Y-74021905D01*
X111252143Y-73983810D01*
X111175952Y-73907619D01*
X111137857Y-73755238D01*
X111137857Y-73488571D01*
X111175952Y-73336190D01*
X111252143Y-73260000D01*
X111328333Y-73221905D01*
X112471190Y-74021905D02*
X112204523Y-73640952D01*
X112014047Y-74021905D02*
X112014047Y-73221905D01*
X112318809Y-73221905D01*
X112395000Y-73260000D01*
X112433095Y-73298095D01*
X112471190Y-73374286D01*
X112471190Y-73488571D01*
X112433095Y-73564762D01*
X112395000Y-73602857D01*
X112318809Y-73640952D01*
X112014047Y-73640952D01*
X112699761Y-73221905D02*
X113156904Y-73221905D01*
X112928333Y-74021905D02*
X112928333Y-73221905D01*
X114452143Y-74021905D02*
X113995000Y-74021905D01*
X114223571Y-74021905D02*
X114223571Y-73221905D01*
X114147381Y-73336190D01*
X114071190Y-73412381D01*
X113995000Y-73450476D01*
D11*
X145200714Y-59379762D02*
X146010238Y-59379762D01*
X146105476Y-59427381D01*
X146153095Y-59475000D01*
X146200714Y-59570239D01*
X146200714Y-59713096D01*
X146153095Y-59808334D01*
X145819762Y-59379762D02*
X145867381Y-59475000D01*
X145867381Y-59665477D01*
X145819762Y-59760715D01*
X145772143Y-59808334D01*
X145676905Y-59855953D01*
X145391190Y-59855953D01*
X145295952Y-59808334D01*
X145248333Y-59760715D01*
X145200714Y-59665477D01*
X145200714Y-59475000D01*
X145248333Y-59379762D01*
X145867381Y-58903572D02*
X145200714Y-58903572D01*
X144867381Y-58903572D02*
X144915000Y-58951191D01*
X144962619Y-58903572D01*
X144915000Y-58855953D01*
X144867381Y-58903572D01*
X144962619Y-58903572D01*
X145200714Y-58570239D02*
X145200714Y-58189287D01*
X144867381Y-58427382D02*
X145724524Y-58427382D01*
X145819762Y-58379763D01*
X145867381Y-58284525D01*
X145867381Y-58189287D01*
X145867381Y-57855953D02*
X144867381Y-57855953D01*
X145867381Y-57427381D02*
X145343571Y-57427381D01*
X145248333Y-57475000D01*
X145200714Y-57570238D01*
X145200714Y-57713096D01*
X145248333Y-57808334D01*
X145295952Y-57855953D01*
X145200714Y-56522619D02*
X145867381Y-56522619D01*
X145200714Y-56951191D02*
X145724524Y-56951191D01*
X145819762Y-56903572D01*
X145867381Y-56808334D01*
X145867381Y-56665476D01*
X145819762Y-56570238D01*
X145772143Y-56522619D01*
X145867381Y-56046429D02*
X144867381Y-56046429D01*
X145248333Y-56046429D02*
X145200714Y-55951191D01*
X145200714Y-55760714D01*
X145248333Y-55665476D01*
X145295952Y-55617857D01*
X145391190Y-55570238D01*
X145676905Y-55570238D01*
X145772143Y-55617857D01*
X145819762Y-55665476D01*
X145867381Y-55760714D01*
X145867381Y-55951191D01*
X145819762Y-56046429D01*
X145772143Y-55141667D02*
X145819762Y-55094048D01*
X145867381Y-55141667D01*
X145819762Y-55189286D01*
X145772143Y-55141667D01*
X145867381Y-55141667D01*
X145819762Y-54236905D02*
X145867381Y-54332143D01*
X145867381Y-54522620D01*
X145819762Y-54617858D01*
X145772143Y-54665477D01*
X145676905Y-54713096D01*
X145391190Y-54713096D01*
X145295952Y-54665477D01*
X145248333Y-54617858D01*
X145200714Y-54522620D01*
X145200714Y-54332143D01*
X145248333Y-54236905D01*
X145867381Y-53665477D02*
X145819762Y-53760715D01*
X145772143Y-53808334D01*
X145676905Y-53855953D01*
X145391190Y-53855953D01*
X145295952Y-53808334D01*
X145248333Y-53760715D01*
X145200714Y-53665477D01*
X145200714Y-53522619D01*
X145248333Y-53427381D01*
X145295952Y-53379762D01*
X145391190Y-53332143D01*
X145676905Y-53332143D01*
X145772143Y-53379762D01*
X145819762Y-53427381D01*
X145867381Y-53522619D01*
X145867381Y-53665477D01*
X145867381Y-52903572D02*
X145200714Y-52903572D01*
X145295952Y-52903572D02*
X145248333Y-52855953D01*
X145200714Y-52760715D01*
X145200714Y-52617857D01*
X145248333Y-52522619D01*
X145343571Y-52475000D01*
X145867381Y-52475000D01*
X145343571Y-52475000D02*
X145248333Y-52427381D01*
X145200714Y-52332143D01*
X145200714Y-52189286D01*
X145248333Y-52094048D01*
X145343571Y-52046429D01*
X145867381Y-52046429D01*
X144819762Y-50855953D02*
X146105476Y-51713096D01*
X145200714Y-50665477D02*
X145200714Y-50284525D01*
X144867381Y-50522620D02*
X145724524Y-50522620D01*
X145819762Y-50475001D01*
X145867381Y-50379763D01*
X145867381Y-50284525D01*
X145819762Y-49570238D02*
X145867381Y-49665476D01*
X145867381Y-49855953D01*
X145819762Y-49951191D01*
X145724524Y-49998810D01*
X145343571Y-49998810D01*
X145248333Y-49951191D01*
X145200714Y-49855953D01*
X145200714Y-49665476D01*
X145248333Y-49570238D01*
X145343571Y-49522619D01*
X145438810Y-49522619D01*
X145534048Y-49998810D01*
X145867381Y-49094048D02*
X144867381Y-49094048D01*
X145248333Y-49094048D02*
X145200714Y-48998810D01*
X145200714Y-48808333D01*
X145248333Y-48713095D01*
X145295952Y-48665476D01*
X145391190Y-48617857D01*
X145676905Y-48617857D01*
X145772143Y-48665476D01*
X145819762Y-48713095D01*
X145867381Y-48808333D01*
X145867381Y-48998810D01*
X145819762Y-49094048D01*
X145867381Y-48046429D02*
X145819762Y-48141667D01*
X145724524Y-48189286D01*
X144867381Y-48189286D01*
X145867381Y-43806666D02*
X145391190Y-44140000D01*
X145867381Y-44378095D02*
X144867381Y-44378095D01*
X144867381Y-43997142D01*
X144915000Y-43901904D01*
X144962619Y-43854285D01*
X145057857Y-43806666D01*
X145200714Y-43806666D01*
X145295952Y-43854285D01*
X145343571Y-43901904D01*
X145391190Y-43997142D01*
X145391190Y-44378095D01*
X145819762Y-42997142D02*
X145867381Y-43092380D01*
X145867381Y-43282857D01*
X145819762Y-43378095D01*
X145724524Y-43425714D01*
X145343571Y-43425714D01*
X145248333Y-43378095D01*
X145200714Y-43282857D01*
X145200714Y-43092380D01*
X145248333Y-42997142D01*
X145343571Y-42949523D01*
X145438810Y-42949523D01*
X145534048Y-43425714D01*
X145200714Y-42616190D02*
X145867381Y-42378095D01*
X145200714Y-42139999D01*
X145867381Y-41759047D02*
X145200714Y-41759047D01*
X144867381Y-41759047D02*
X144915000Y-41806666D01*
X144962619Y-41759047D01*
X144915000Y-41711428D01*
X144867381Y-41759047D01*
X144962619Y-41759047D01*
X145819762Y-41330476D02*
X145867381Y-41235238D01*
X145867381Y-41044762D01*
X145819762Y-40949523D01*
X145724524Y-40901904D01*
X145676905Y-40901904D01*
X145581667Y-40949523D01*
X145534048Y-41044762D01*
X145534048Y-41187619D01*
X145486429Y-41282857D01*
X145391190Y-41330476D01*
X145343571Y-41330476D01*
X145248333Y-41282857D01*
X145200714Y-41187619D01*
X145200714Y-41044762D01*
X145248333Y-40949523D01*
X145867381Y-40473333D02*
X145200714Y-40473333D01*
X144867381Y-40473333D02*
X144915000Y-40520952D01*
X144962619Y-40473333D01*
X144915000Y-40425714D01*
X144867381Y-40473333D01*
X144962619Y-40473333D01*
X145867381Y-39854286D02*
X145819762Y-39949524D01*
X145772143Y-39997143D01*
X145676905Y-40044762D01*
X145391190Y-40044762D01*
X145295952Y-39997143D01*
X145248333Y-39949524D01*
X145200714Y-39854286D01*
X145200714Y-39711428D01*
X145248333Y-39616190D01*
X145295952Y-39568571D01*
X145391190Y-39520952D01*
X145676905Y-39520952D01*
X145772143Y-39568571D01*
X145819762Y-39616190D01*
X145867381Y-39711428D01*
X145867381Y-39854286D01*
X145200714Y-39092381D02*
X145867381Y-39092381D01*
X145295952Y-39092381D02*
X145248333Y-39044762D01*
X145200714Y-38949524D01*
X145200714Y-38806666D01*
X145248333Y-38711428D01*
X145343571Y-38663809D01*
X145867381Y-38663809D01*
X145772143Y-36854285D02*
X145819762Y-36901904D01*
X145867381Y-37044761D01*
X145867381Y-37139999D01*
X145819762Y-37282857D01*
X145724524Y-37378095D01*
X145629286Y-37425714D01*
X145438810Y-37473333D01*
X145295952Y-37473333D01*
X145105476Y-37425714D01*
X145010238Y-37378095D01*
X144915000Y-37282857D01*
X144867381Y-37139999D01*
X144867381Y-37044761D01*
X144915000Y-36901904D01*
X144962619Y-36854285D01*
D12*
X136525000Y-97790000D02*
X127000000Y-97790000D01*
X135890000Y-100330000D02*
X127000000Y-100330000D01*
X136525000Y-95250000D02*
X135255000Y-95250000D01*
X127000000Y-95250000D02*
X128905000Y-95250000D01*
X118745000Y-100330000D02*
X120650000Y-100330000D01*
X118745000Y-97790000D02*
X120650000Y-97790000D01*
X118745000Y-95250000D02*
X120650000Y-95250000D01*
X135890000Y-100330000D02*
X136525000Y-100330000D01*
D11*
X141089333Y-107132381D02*
X141089333Y-106132381D01*
X141470286Y-106132381D01*
X141565524Y-106180000D01*
X141613143Y-106227619D01*
X141660762Y-106322857D01*
X141660762Y-106465714D01*
X141613143Y-106560952D01*
X141565524Y-106608571D01*
X141470286Y-106656190D01*
X141089333Y-106656190D01*
X142232190Y-107132381D02*
X142136952Y-107084762D01*
X142089333Y-107037143D01*
X142041714Y-106941905D01*
X142041714Y-106656190D01*
X142089333Y-106560952D01*
X142136952Y-106513333D01*
X142232190Y-106465714D01*
X142375048Y-106465714D01*
X142470286Y-106513333D01*
X142517905Y-106560952D01*
X142565524Y-106656190D01*
X142565524Y-106941905D01*
X142517905Y-107037143D01*
X142470286Y-107084762D01*
X142375048Y-107132381D01*
X142232190Y-107132381D01*
X142994095Y-107132381D02*
X142994095Y-106465714D01*
X142994095Y-106656190D02*
X143041714Y-106560952D01*
X143089333Y-106513333D01*
X143184571Y-106465714D01*
X143279810Y-106465714D01*
X143470286Y-106465714D02*
X143851238Y-106465714D01*
X143613143Y-106132381D02*
X143613143Y-106989524D01*
X143660762Y-107084762D01*
X143756000Y-107132381D01*
X143851238Y-107132381D01*
X144898858Y-106227619D02*
X144946477Y-106180000D01*
X145041715Y-106132381D01*
X145279811Y-106132381D01*
X145375049Y-106180000D01*
X145422668Y-106227619D01*
X145470287Y-106322857D01*
X145470287Y-106418095D01*
X145422668Y-106560952D01*
X144851239Y-107132381D01*
X145470287Y-107132381D01*
X130175238Y-93162381D02*
X130175238Y-92162381D01*
X130413333Y-92162381D01*
X130556191Y-92210000D01*
X130651429Y-92305238D01*
X130699048Y-92400476D01*
X130746667Y-92590952D01*
X130746667Y-92733810D01*
X130699048Y-92924286D01*
X130651429Y-93019524D01*
X130556191Y-93114762D01*
X130413333Y-93162381D01*
X130175238Y-93162381D01*
X131175238Y-92781429D02*
X131937143Y-92781429D01*
X132413333Y-92162381D02*
X132413333Y-92971905D01*
X132460952Y-93067143D01*
X132508571Y-93114762D01*
X132603809Y-93162381D01*
X132794286Y-93162381D01*
X132889524Y-93114762D01*
X132937143Y-93067143D01*
X132984762Y-92971905D01*
X132984762Y-92162381D01*
X133460952Y-93162381D02*
X133460952Y-92162381D01*
X133841905Y-92162381D01*
X133937143Y-92210000D01*
X133984762Y-92257619D01*
X134032381Y-92352857D01*
X134032381Y-92495714D01*
X133984762Y-92590952D01*
X133937143Y-92638571D01*
X133841905Y-92686190D01*
X133460952Y-92686190D01*
X123420239Y-92638571D02*
X123563096Y-92686190D01*
X123610715Y-92733810D01*
X123658334Y-92829048D01*
X123658334Y-92971905D01*
X123610715Y-93067143D01*
X123563096Y-93114762D01*
X123467858Y-93162381D01*
X123086905Y-93162381D01*
X123086905Y-92162381D01*
X123420239Y-92162381D01*
X123515477Y-92210000D01*
X123563096Y-92257619D01*
X123610715Y-92352857D01*
X123610715Y-92448095D01*
X123563096Y-92543333D01*
X123515477Y-92590952D01*
X123420239Y-92638571D01*
X123086905Y-92638571D01*
X124039286Y-92257619D02*
X124086905Y-92210000D01*
X124182143Y-92162381D01*
X124420239Y-92162381D01*
X124515477Y-92210000D01*
X124563096Y-92257619D01*
X124610715Y-92352857D01*
X124610715Y-92448095D01*
X124563096Y-92590952D01*
X123991667Y-93162381D01*
X124610715Y-93162381D01*
X115165239Y-92638571D02*
X115308096Y-92686190D01*
X115355715Y-92733810D01*
X115403334Y-92829048D01*
X115403334Y-92971905D01*
X115355715Y-93067143D01*
X115308096Y-93114762D01*
X115212858Y-93162381D01*
X114831905Y-93162381D01*
X114831905Y-92162381D01*
X115165239Y-92162381D01*
X115260477Y-92210000D01*
X115308096Y-92257619D01*
X115355715Y-92352857D01*
X115355715Y-92448095D01*
X115308096Y-92543333D01*
X115260477Y-92590952D01*
X115165239Y-92638571D01*
X114831905Y-92638571D01*
X116355715Y-93162381D02*
X115784286Y-93162381D01*
X116070000Y-93162381D02*
X116070000Y-92162381D01*
X115974762Y-92305238D01*
X115879524Y-92400476D01*
X115784286Y-92448095D01*
X137350476Y-100496667D02*
X137826667Y-100496667D01*
X137255238Y-100782381D02*
X137588571Y-99782381D01*
X137921905Y-100782381D01*
X138731429Y-100782381D02*
X138255238Y-100782381D01*
X138255238Y-99782381D01*
X138921905Y-99782381D02*
X139493334Y-99782381D01*
X139207619Y-100782381D02*
X139207619Y-99782381D01*
X137398095Y-94702381D02*
X137398095Y-95511905D01*
X137445714Y-95607143D01*
X137493333Y-95654762D01*
X137588571Y-95702381D01*
X137779048Y-95702381D01*
X137874286Y-95654762D01*
X137921905Y-95607143D01*
X137969524Y-95511905D01*
X137969524Y-94702381D01*
X138445714Y-95702381D02*
X138445714Y-94702381D01*
X138826667Y-94702381D01*
X138921905Y-94750000D01*
X138969524Y-94797619D01*
X139017143Y-94892857D01*
X139017143Y-95035714D01*
X138969524Y-95130952D01*
X138921905Y-95178571D01*
X138826667Y-95226190D01*
X138445714Y-95226190D01*
X137731429Y-97718571D02*
X137398095Y-97718571D01*
X137398095Y-98242381D02*
X137398095Y-97242381D01*
X137874286Y-97242381D01*
X138255238Y-98242381D02*
X138255238Y-97242381D01*
X139302857Y-98242381D02*
X138969523Y-97766190D01*
X138731428Y-98242381D02*
X138731428Y-97242381D01*
X139112381Y-97242381D01*
X139207619Y-97290000D01*
X139255238Y-97337619D01*
X139302857Y-97432857D01*
X139302857Y-97575714D01*
X139255238Y-97670952D01*
X139207619Y-97718571D01*
X139112381Y-97766190D01*
X138731428Y-97766190D01*
X139731428Y-97718571D02*
X140064762Y-97718571D01*
X140207619Y-98242381D02*
X139731428Y-98242381D01*
X139731428Y-97242381D01*
X140207619Y-97242381D01*
D12*
X142875000Y-100965000D02*
X142875000Y-100330000D01*
X140970000Y-100965000D02*
X142875000Y-100965000D01*
X140970000Y-100330000D02*
X140970000Y-100965000D01*
X142875000Y-98425000D02*
X142875000Y-97790000D01*
X140970000Y-98425000D02*
X142875000Y-98425000D01*
X140970000Y-97790000D02*
X140970000Y-98425000D01*
X141605000Y-94615000D02*
X142240000Y-94615000D01*
X142240000Y-93980000D02*
X141605000Y-94615000D01*
X142240000Y-94615000D02*
X141605000Y-93980000D01*
X142875000Y-95250000D02*
X142240000Y-95250000D01*
X142875000Y-94615000D02*
X142875000Y-95250000D01*
X142240000Y-94615000D02*
X142875000Y-94615000D01*
X142240000Y-93980000D02*
X142240000Y-94615000D01*
X141605000Y-93980000D02*
X142240000Y-93980000D01*
X141605000Y-94615000D02*
X141605000Y-93980000D01*
X140970000Y-94615000D02*
X141605000Y-94615000D01*
X140970000Y-95250000D02*
X140970000Y-94615000D01*
X141605000Y-95250000D02*
X140970000Y-95250000D01*
X142240000Y-95885000D02*
X142240000Y-95250000D01*
X141605000Y-95885000D02*
X142240000Y-95885000D01*
X141605000Y-95250000D02*
X141605000Y-95885000D01*
X141605000Y-100330000D02*
X140970000Y-100330000D01*
X141605000Y-99695000D02*
X141605000Y-100330000D01*
X142240000Y-99695000D02*
X141605000Y-99695000D01*
X142240000Y-100330000D02*
X142240000Y-99695000D01*
X142875000Y-100330000D02*
X142240000Y-100330000D01*
X141605000Y-97790000D02*
X140970000Y-97790000D01*
X141605000Y-97155000D02*
X141605000Y-97790000D01*
X142240000Y-97155000D02*
X141605000Y-97155000D01*
X142240000Y-97790000D02*
X142240000Y-97155000D01*
X142875000Y-97790000D02*
X142240000Y-97790000D01*
D11*
X108705001Y-113143571D02*
X107990715Y-113143571D01*
X107990715Y-111643571D01*
X109205001Y-113143571D02*
X109205001Y-112143571D01*
X109205001Y-111643571D02*
X109133572Y-111715000D01*
X109205001Y-111786429D01*
X109276429Y-111715000D01*
X109205001Y-111643571D01*
X109205001Y-111786429D01*
X110562144Y-113072143D02*
X110419287Y-113143571D01*
X110133573Y-113143571D01*
X109990715Y-113072143D01*
X109919287Y-113000714D01*
X109847858Y-112857857D01*
X109847858Y-112429286D01*
X109919287Y-112286429D01*
X109990715Y-112215000D01*
X110133573Y-112143571D01*
X110419287Y-112143571D01*
X110562144Y-112215000D01*
X111776429Y-113072143D02*
X111633572Y-113143571D01*
X111347858Y-113143571D01*
X111205001Y-113072143D01*
X111133572Y-112929286D01*
X111133572Y-112357857D01*
X111205001Y-112215000D01*
X111347858Y-112143571D01*
X111633572Y-112143571D01*
X111776429Y-112215000D01*
X111847858Y-112357857D01*
X111847858Y-112500714D01*
X111133572Y-112643571D01*
X112490715Y-112143571D02*
X112490715Y-113143571D01*
X112490715Y-112286429D02*
X112562143Y-112215000D01*
X112705001Y-112143571D01*
X112919286Y-112143571D01*
X113062143Y-112215000D01*
X113133572Y-112357857D01*
X113133572Y-113143571D01*
X113776429Y-113072143D02*
X113919286Y-113143571D01*
X114205001Y-113143571D01*
X114347858Y-113072143D01*
X114419286Y-112929286D01*
X114419286Y-112857857D01*
X114347858Y-112715000D01*
X114205001Y-112643571D01*
X113990715Y-112643571D01*
X113847858Y-112572143D01*
X113776429Y-112429286D01*
X113776429Y-112357857D01*
X113847858Y-112215000D01*
X113990715Y-112143571D01*
X114205001Y-112143571D01*
X114347858Y-112215000D01*
X115633572Y-113072143D02*
X115490715Y-113143571D01*
X115205001Y-113143571D01*
X115062144Y-113072143D01*
X114990715Y-112929286D01*
X114990715Y-112357857D01*
X115062144Y-112215000D01*
X115205001Y-112143571D01*
X115490715Y-112143571D01*
X115633572Y-112215000D01*
X115705001Y-112357857D01*
X115705001Y-112500714D01*
X114990715Y-112643571D01*
X116990715Y-113143571D02*
X116990715Y-111643571D01*
X116990715Y-113072143D02*
X116847858Y-113143571D01*
X116562144Y-113143571D01*
X116419286Y-113072143D01*
X116347858Y-113000714D01*
X116276429Y-112857857D01*
X116276429Y-112429286D01*
X116347858Y-112286429D01*
X116419286Y-112215000D01*
X116562144Y-112143571D01*
X116847858Y-112143571D01*
X116990715Y-112215000D01*
X119490715Y-112143571D02*
X119490715Y-113143571D01*
X118847858Y-112143571D02*
X118847858Y-112929286D01*
X118919286Y-113072143D01*
X119062144Y-113143571D01*
X119276429Y-113143571D01*
X119419286Y-113072143D01*
X119490715Y-113000714D01*
X120205001Y-112143571D02*
X120205001Y-113143571D01*
X120205001Y-112286429D02*
X120276429Y-112215000D01*
X120419287Y-112143571D01*
X120633572Y-112143571D01*
X120776429Y-112215000D01*
X120847858Y-112357857D01*
X120847858Y-113143571D01*
X122205001Y-113143571D02*
X122205001Y-111643571D01*
X122205001Y-113072143D02*
X122062144Y-113143571D01*
X121776430Y-113143571D01*
X121633572Y-113072143D01*
X121562144Y-113000714D01*
X121490715Y-112857857D01*
X121490715Y-112429286D01*
X121562144Y-112286429D01*
X121633572Y-112215000D01*
X121776430Y-112143571D01*
X122062144Y-112143571D01*
X122205001Y-112215000D01*
X123490715Y-113072143D02*
X123347858Y-113143571D01*
X123062144Y-113143571D01*
X122919287Y-113072143D01*
X122847858Y-112929286D01*
X122847858Y-112357857D01*
X122919287Y-112215000D01*
X123062144Y-112143571D01*
X123347858Y-112143571D01*
X123490715Y-112215000D01*
X123562144Y-112357857D01*
X123562144Y-112500714D01*
X122847858Y-112643571D01*
X124205001Y-113143571D02*
X124205001Y-112143571D01*
X124205001Y-112429286D02*
X124276429Y-112286429D01*
X124347858Y-112215000D01*
X124490715Y-112143571D01*
X124633572Y-112143571D01*
X108419286Y-115400714D02*
X108347857Y-115472143D01*
X108133571Y-115543571D01*
X107990714Y-115543571D01*
X107776429Y-115472143D01*
X107633571Y-115329286D01*
X107562143Y-115186429D01*
X107490714Y-114900714D01*
X107490714Y-114686429D01*
X107562143Y-114400714D01*
X107633571Y-114257857D01*
X107776429Y-114115000D01*
X107990714Y-114043571D01*
X108133571Y-114043571D01*
X108347857Y-114115000D01*
X108419286Y-114186429D01*
X109062143Y-114757857D02*
X109562143Y-114757857D01*
X109776429Y-115543571D02*
X109062143Y-115543571D01*
X109062143Y-114043571D01*
X109776429Y-114043571D01*
X111276429Y-115543571D02*
X110776429Y-114829286D01*
X110419286Y-115543571D02*
X110419286Y-114043571D01*
X110990714Y-114043571D01*
X111133572Y-114115000D01*
X111205000Y-114186429D01*
X111276429Y-114329286D01*
X111276429Y-114543571D01*
X111205000Y-114686429D01*
X111133572Y-114757857D01*
X110990714Y-114829286D01*
X110419286Y-114829286D01*
X111919286Y-115543571D02*
X111919286Y-114043571D01*
X112776429Y-115543571D01*
X112776429Y-114043571D01*
X114919286Y-114043571D02*
X115205000Y-114043571D01*
X115347858Y-114115000D01*
X115490715Y-114257857D01*
X115562143Y-114543571D01*
X115562143Y-115043571D01*
X115490715Y-115329286D01*
X115347858Y-115472143D01*
X115205000Y-115543571D01*
X114919286Y-115543571D01*
X114776429Y-115472143D01*
X114633572Y-115329286D01*
X114562143Y-115043571D01*
X114562143Y-114543571D01*
X114633572Y-114257857D01*
X114776429Y-114115000D01*
X114919286Y-114043571D01*
X116205001Y-115543571D02*
X116205001Y-114043571D01*
X116205001Y-114757857D02*
X117062144Y-114757857D01*
X117062144Y-115543571D02*
X117062144Y-114043571D01*
X118490716Y-115543571D02*
X117776430Y-115543571D01*
X117776430Y-114043571D01*
X119990716Y-114543571D02*
X120347859Y-115543571D01*
X120705001Y-114543571D01*
X121276430Y-115400714D02*
X121347858Y-115472143D01*
X121276430Y-115543571D01*
X121205001Y-115472143D01*
X121276430Y-115400714D01*
X121276430Y-115543571D01*
X122776430Y-115543571D02*
X121919287Y-115543571D01*
X122347859Y-115543571D02*
X122347859Y-114043571D01*
X122205002Y-114257857D01*
X122062144Y-114400714D01*
X121919287Y-114472143D01*
X123419287Y-115400714D02*
X123490715Y-115472143D01*
X123419287Y-115543571D01*
X123347858Y-115472143D01*
X123419287Y-115400714D01*
X123419287Y-115543571D01*
X124062144Y-114186429D02*
X124133573Y-114115000D01*
X124276430Y-114043571D01*
X124633573Y-114043571D01*
X124776430Y-114115000D01*
X124847859Y-114186429D01*
X124919287Y-114329286D01*
X124919287Y-114472143D01*
X124847859Y-114686429D01*
X123990716Y-115543571D01*
X124919287Y-115543571D01*
X133469333Y-107132381D02*
X133469333Y-106132381D01*
X133850286Y-106132381D01*
X133945524Y-106180000D01*
X133993143Y-106227619D01*
X134040762Y-106322857D01*
X134040762Y-106465714D01*
X133993143Y-106560952D01*
X133945524Y-106608571D01*
X133850286Y-106656190D01*
X133469333Y-106656190D01*
X134612190Y-107132381D02*
X134516952Y-107084762D01*
X134469333Y-107037143D01*
X134421714Y-106941905D01*
X134421714Y-106656190D01*
X134469333Y-106560952D01*
X134516952Y-106513333D01*
X134612190Y-106465714D01*
X134755048Y-106465714D01*
X134850286Y-106513333D01*
X134897905Y-106560952D01*
X134945524Y-106656190D01*
X134945524Y-106941905D01*
X134897905Y-107037143D01*
X134850286Y-107084762D01*
X134755048Y-107132381D01*
X134612190Y-107132381D01*
X135374095Y-107132381D02*
X135374095Y-106465714D01*
X135374095Y-106656190D02*
X135421714Y-106560952D01*
X135469333Y-106513333D01*
X135564571Y-106465714D01*
X135659810Y-106465714D01*
X135850286Y-106465714D02*
X136231238Y-106465714D01*
X135993143Y-106132381D02*
X135993143Y-106989524D01*
X136040762Y-107084762D01*
X136136000Y-107132381D01*
X136231238Y-107132381D01*
X137850287Y-107132381D02*
X137278858Y-107132381D01*
X137564572Y-107132381D02*
X137564572Y-106132381D01*
X137469334Y-106275238D01*
X137374096Y-106370476D01*
X137278858Y-106418095D01*
D13*
X112395462Y-35745000D02*
G75*
G03X110850170Y-41295000I-462J-2990000D01*
G01*
X112394538Y-35745000D02*
G75*
G02X113939830Y-41295000I462J-2990000D01*
G01*
X114895000Y-38735000D02*
G75*
G03X114895000Y-38735000I-2500000J0D01*
G01*
X110850000Y-41295000D02*
X113940000Y-41295000D01*
X112395462Y-66860000D02*
G75*
G03X110850170Y-72410000I-462J-2990000D01*
G01*
X112394538Y-66860000D02*
G75*
G02X113939830Y-72410000I462J-2990000D01*
G01*
X114895000Y-69850000D02*
G75*
G03X114895000Y-69850000I-2500000J0D01*
G01*
X110850000Y-72410000D02*
X113940000Y-72410000D01*
X95520000Y-66675000D02*
X107860000Y-66675000D01*
X107860000Y-66675000D02*
X107860000Y-97645000D01*
X107860000Y-97645000D02*
X95520000Y-97645000D01*
X95520000Y-35475000D02*
X107860000Y-35475000D01*
X107860000Y-35475000D02*
X107860000Y-66445000D01*
X107860000Y-66445000D02*
X95520000Y-66445000D01*
X100291000Y-116620000D02*
X100291000Y-104280000D01*
X100291000Y-104280000D02*
X131261000Y-104280000D01*
X131261000Y-104280000D02*
X131261000Y-116620000D01*
X134680000Y-96580000D02*
X134680000Y-93920000D01*
X132080000Y-96580000D02*
X134680000Y-96580000D01*
X132080000Y-93920000D02*
X134680000Y-93920000D01*
X132080000Y-96580000D02*
X132080000Y-93920000D01*
X130810000Y-96580000D02*
X129480000Y-96580000D01*
X129480000Y-96580000D02*
X129480000Y-95250000D01*
X120615000Y-72985000D02*
X120615000Y-75605000D01*
X120615000Y-75605000D02*
X127035000Y-75605000D01*
X127035000Y-75605000D02*
X127035000Y-72985000D01*
X127035000Y-72985000D02*
X120615000Y-72985000D01*
X119725000Y-74295000D02*
X120615000Y-74295000D01*
X127925000Y-74295000D02*
X127035000Y-74295000D01*
X120615000Y-76795000D02*
X120615000Y-79415000D01*
X120615000Y-79415000D02*
X127035000Y-79415000D01*
X127035000Y-79415000D02*
X127035000Y-76795000D01*
X127035000Y-76795000D02*
X120615000Y-76795000D01*
X119725000Y-78105000D02*
X120615000Y-78105000D01*
X127925000Y-78105000D02*
X127035000Y-78105000D01*
X111800000Y-46320000D02*
X109180000Y-46320000D01*
X109180000Y-46320000D02*
X109180000Y-52740000D01*
X109180000Y-52740000D02*
X111800000Y-52740000D01*
X111800000Y-52740000D02*
X111800000Y-46320000D01*
X110490000Y-45430000D02*
X110490000Y-46320000D01*
X110490000Y-53630000D02*
X110490000Y-52740000D01*
X115610000Y-46320000D02*
X112990000Y-46320000D01*
X112990000Y-46320000D02*
X112990000Y-52740000D01*
X112990000Y-52740000D02*
X115610000Y-52740000D01*
X115610000Y-52740000D02*
X115610000Y-46320000D01*
X114300000Y-45430000D02*
X114300000Y-46320000D01*
X114300000Y-53630000D02*
X114300000Y-52740000D01*
X138850000Y-114570000D02*
X138850000Y-110070000D01*
X134850000Y-115820000D02*
X136350000Y-115820000D01*
X132350000Y-110070000D02*
X132350000Y-114570000D01*
X136350000Y-108820000D02*
X134850000Y-108820000D01*
X146470000Y-114570000D02*
X146470000Y-110070000D01*
X142470000Y-115820000D02*
X143970000Y-115820000D01*
X139970000Y-110070000D02*
X139970000Y-114570000D01*
X143970000Y-108820000D02*
X142470000Y-108820000D01*
X124825000Y-39945000D02*
G75*
G02X122825000Y-39945000I-1000000J0D01*
G01*
X122825000Y-39945000D02*
X121175000Y-39945000D01*
X121175000Y-39945000D02*
X121175000Y-60385000D01*
X121175000Y-60385000D02*
X126475000Y-60385000D01*
X126475000Y-60385000D02*
X126475000Y-39945000D01*
X126475000Y-39945000D02*
X124825000Y-39945000D01*
X118685000Y-39885000D02*
X118685000Y-60445000D01*
X118685000Y-60445000D02*
X128965000Y-60445000D01*
X128965000Y-60445000D02*
X128965000Y-39885000D01*
X128965000Y-39885000D02*
X118685000Y-39885000D01*
X139430000Y-39945000D02*
G75*
G02X137430000Y-39945000I-1000000J0D01*
G01*
X137430000Y-39945000D02*
X135780000Y-39945000D01*
X135780000Y-39945000D02*
X135780000Y-60385000D01*
X135780000Y-60385000D02*
X141080000Y-60385000D01*
X141080000Y-60385000D02*
X141080000Y-39945000D01*
X141080000Y-39945000D02*
X139430000Y-39945000D01*
X133290000Y-39885000D02*
X133290000Y-60445000D01*
X133290000Y-60445000D02*
X143570000Y-60445000D01*
X143570000Y-60445000D02*
X143570000Y-39885000D01*
X143570000Y-39885000D02*
X133290000Y-39885000D01*
X139430000Y-65345000D02*
G75*
G02X137430000Y-65345000I-1000000J0D01*
G01*
X137430000Y-65345000D02*
X135780000Y-65345000D01*
X135780000Y-65345000D02*
X135780000Y-75625000D01*
X135780000Y-75625000D02*
X141080000Y-75625000D01*
X141080000Y-75625000D02*
X141080000Y-65345000D01*
X141080000Y-65345000D02*
X139430000Y-65345000D01*
X133290000Y-65285000D02*
X133290000Y-75685000D01*
X133290000Y-75685000D02*
X143570000Y-75685000D01*
X143570000Y-75685000D02*
X143570000Y-65285000D01*
X143570000Y-65285000D02*
X133290000Y-65285000D01*
X126275000Y-38775000D02*
X121455000Y-38775000D01*
X126275000Y-36155000D02*
X121455000Y-36155000D01*
X126275000Y-38775000D02*
X126275000Y-38461000D01*
X126275000Y-36469000D02*
X126275000Y-36155000D01*
X121455000Y-38775000D02*
X121455000Y-38461000D01*
X121455000Y-36469000D02*
X121455000Y-36155000D01*
X140880000Y-38775000D02*
X136060000Y-38775000D01*
X140880000Y-36155000D02*
X136060000Y-36155000D01*
X140880000Y-38775000D02*
X140880000Y-38461000D01*
X140880000Y-36469000D02*
X140880000Y-36155000D01*
X136060000Y-38775000D02*
X136060000Y-38461000D01*
X136060000Y-36469000D02*
X136060000Y-36155000D01*
X140880000Y-64175000D02*
X136060000Y-64175000D01*
X140880000Y-61555000D02*
X136060000Y-61555000D01*
X140880000Y-64175000D02*
X140880000Y-63861000D01*
X140880000Y-61869000D02*
X140880000Y-61555000D01*
X136060000Y-64175000D02*
X136060000Y-63861000D01*
X136060000Y-61869000D02*
X136060000Y-61555000D01*
X114245000Y-64030000D02*
X114245000Y-60430000D01*
X113517795Y-64554184D02*
G75*
G03X114245000Y-64030000I-1122795J2324184D01*
G01*
X111296193Y-64586400D02*
G75*
G02X109795000Y-62230000I1098807J2356400D01*
G01*
X111296193Y-59873600D02*
G75*
G03X109795000Y-62230000I1098807J-2356400D01*
G01*
X113517795Y-59905816D02*
G75*
G02X114245000Y-60430000I-1122795J-2324184D01*
G01*
X120615000Y-65365000D02*
X120615000Y-67985000D01*
X120615000Y-67985000D02*
X127035000Y-67985000D01*
X127035000Y-67985000D02*
X127035000Y-65365000D01*
X127035000Y-65365000D02*
X120615000Y-65365000D01*
X119725000Y-66675000D02*
X120615000Y-66675000D01*
X127925000Y-66675000D02*
X127035000Y-66675000D01*
X120615000Y-61555000D02*
X120615000Y-64175000D01*
X120615000Y-64175000D02*
X127035000Y-64175000D01*
X127035000Y-64175000D02*
X127035000Y-61555000D01*
X127035000Y-61555000D02*
X120615000Y-61555000D01*
X119725000Y-62865000D02*
X120615000Y-62865000D01*
X127925000Y-62865000D02*
X127035000Y-62865000D01*
X120615000Y-69175000D02*
X120615000Y-71795000D01*
X120615000Y-71795000D02*
X127035000Y-71795000D01*
X127035000Y-71795000D02*
X127035000Y-69175000D01*
X127035000Y-69175000D02*
X120615000Y-69175000D01*
X119725000Y-70485000D02*
X120615000Y-70485000D01*
X127925000Y-70485000D02*
X127035000Y-70485000D01*
X121225000Y-101660000D02*
X126425000Y-101660000D01*
X121225000Y-96520000D02*
X121225000Y-101660000D01*
X126425000Y-93920000D02*
X126425000Y-101660000D01*
X121225000Y-96520000D02*
X123825000Y-96520000D01*
X123825000Y-96520000D02*
X123825000Y-93920000D01*
X123825000Y-93920000D02*
X126425000Y-93920000D01*
X121225000Y-95250000D02*
X121225000Y-93920000D01*
X121225000Y-93920000D02*
X122555000Y-93920000D01*
X112970000Y-101660000D02*
X118170000Y-101660000D01*
X112970000Y-96520000D02*
X112970000Y-101660000D01*
X118170000Y-93920000D02*
X118170000Y-101660000D01*
X112970000Y-96520000D02*
X115570000Y-96520000D01*
X115570000Y-96520000D02*
X115570000Y-93920000D01*
X115570000Y-93920000D02*
X118170000Y-93920000D01*
X112970000Y-95250000D02*
X112970000Y-93920000D01*
X112970000Y-93920000D02*
X114300000Y-93920000D01*
X112995000Y-81240000D02*
X112995000Y-83860000D01*
X112995000Y-83860000D02*
X119415000Y-83860000D01*
X119415000Y-83860000D02*
X119415000Y-81240000D01*
X119415000Y-81240000D02*
X112995000Y-81240000D01*
X112105000Y-82550000D02*
X112995000Y-82550000D01*
X120305000Y-82550000D02*
X119415000Y-82550000D01*
X130945000Y-89415000D02*
X130945000Y-89665000D01*
X130945000Y-89665000D02*
X130695000Y-89665000D01*
X130695000Y-89665000D02*
X130695000Y-89915000D01*
X130695000Y-89915000D02*
X129445000Y-89915000D01*
X129445000Y-89915000D02*
X129445000Y-89665000D01*
X129445000Y-89665000D02*
X125795000Y-89665000D01*
X125795000Y-89665000D02*
X125795000Y-89915000D01*
X125795000Y-89915000D02*
X124495000Y-89915000D01*
X124495000Y-89915000D02*
X124495000Y-89665000D01*
X124495000Y-89665000D02*
X124195000Y-89665000D01*
X124195000Y-89665000D02*
X124195000Y-89415000D01*
X128745000Y-82365000D02*
X129645000Y-82365000D01*
X129645000Y-82365000D02*
X130995000Y-83865000D01*
X130995000Y-83865000D02*
X130995000Y-87165000D01*
X124195000Y-87165000D02*
X124195000Y-83815000D01*
X124195000Y-83815000D02*
X125545000Y-82365000D01*
X125545000Y-82365000D02*
X126445000Y-82365000D01*
X139430000Y-80585000D02*
G75*
G02X137430000Y-80585000I-1000000J0D01*
G01*
X137430000Y-80585000D02*
X135780000Y-80585000D01*
X135780000Y-80585000D02*
X135780000Y-90865000D01*
X135780000Y-90865000D02*
X141080000Y-90865000D01*
X141080000Y-90865000D02*
X141080000Y-80585000D01*
X141080000Y-80585000D02*
X139430000Y-80585000D01*
X133290000Y-80525000D02*
X133290000Y-90925000D01*
X133290000Y-90925000D02*
X143570000Y-90925000D01*
X143570000Y-90925000D02*
X143570000Y-80525000D01*
X143570000Y-80525000D02*
X133290000Y-80525000D01*
X140880000Y-79415000D02*
X136060000Y-79415000D01*
X140880000Y-76795000D02*
X136060000Y-76795000D01*
X140880000Y-79415000D02*
X140880000Y-79101000D01*
X140880000Y-77109000D02*
X140880000Y-76795000D01*
X136060000Y-79415000D02*
X136060000Y-79101000D01*
X136060000Y-77109000D02*
X136060000Y-76795000D01*
X111215277Y-75184278D02*
G75*
G03X111215000Y-79795580I1179723J-2305722D01*
G01*
X113574723Y-75184278D02*
G75*
G02X113575000Y-79795580I-1179723J-2305722D01*
G01*
X113574723Y-75184278D02*
G75*
G03X111215000Y-75184420I-1179723J-2305722D01*
G01*
X109845000Y-77490000D02*
X114945000Y-77490000D01*
X109845000Y-77450000D02*
X114945000Y-77450000D01*
X109846000Y-77410000D02*
X114944000Y-77410000D01*
X109847000Y-77370000D02*
X114943000Y-77370000D01*
X109849000Y-77330000D02*
X114941000Y-77330000D01*
X109852000Y-77290000D02*
X114938000Y-77290000D01*
X109856000Y-77250000D02*
X114934000Y-77250000D01*
X109860000Y-77210000D02*
X111415000Y-77210000D01*
X113375000Y-77210000D02*
X114930000Y-77210000D01*
X109864000Y-77170000D02*
X111415000Y-77170000D01*
X113375000Y-77170000D02*
X114926000Y-77170000D01*
X109870000Y-77130000D02*
X111415000Y-77130000D01*
X113375000Y-77130000D02*
X114920000Y-77130000D01*
X109876000Y-77090000D02*
X111415000Y-77090000D01*
X113375000Y-77090000D02*
X114914000Y-77090000D01*
X109882000Y-77050000D02*
X111415000Y-77050000D01*
X113375000Y-77050000D02*
X114908000Y-77050000D01*
X109889000Y-77010000D02*
X111415000Y-77010000D01*
X113375000Y-77010000D02*
X114901000Y-77010000D01*
X109897000Y-76970000D02*
X111415000Y-76970000D01*
X113375000Y-76970000D02*
X114893000Y-76970000D01*
X109906000Y-76930000D02*
X111415000Y-76930000D01*
X113375000Y-76930000D02*
X114884000Y-76930000D01*
X109915000Y-76890000D02*
X111415000Y-76890000D01*
X113375000Y-76890000D02*
X114875000Y-76890000D01*
X109925000Y-76850000D02*
X111415000Y-76850000D01*
X113375000Y-76850000D02*
X114865000Y-76850000D01*
X109935000Y-76810000D02*
X111415000Y-76810000D01*
X113375000Y-76810000D02*
X114855000Y-76810000D01*
X109947000Y-76769000D02*
X111415000Y-76769000D01*
X113375000Y-76769000D02*
X114843000Y-76769000D01*
X109959000Y-76729000D02*
X111415000Y-76729000D01*
X113375000Y-76729000D02*
X114831000Y-76729000D01*
X109971000Y-76689000D02*
X111415000Y-76689000D01*
X113375000Y-76689000D02*
X114819000Y-76689000D01*
X109985000Y-76649000D02*
X111415000Y-76649000D01*
X113375000Y-76649000D02*
X114805000Y-76649000D01*
X109999000Y-76609000D02*
X111415000Y-76609000D01*
X113375000Y-76609000D02*
X114791000Y-76609000D01*
X110013000Y-76569000D02*
X111415000Y-76569000D01*
X113375000Y-76569000D02*
X114777000Y-76569000D01*
X110029000Y-76529000D02*
X111415000Y-76529000D01*
X113375000Y-76529000D02*
X114761000Y-76529000D01*
X110045000Y-76489000D02*
X111415000Y-76489000D01*
X113375000Y-76489000D02*
X114745000Y-76489000D01*
X110062000Y-76449000D02*
X111415000Y-76449000D01*
X113375000Y-76449000D02*
X114728000Y-76449000D01*
X110080000Y-76409000D02*
X111415000Y-76409000D01*
X113375000Y-76409000D02*
X114710000Y-76409000D01*
X110099000Y-76369000D02*
X111415000Y-76369000D01*
X113375000Y-76369000D02*
X114691000Y-76369000D01*
X110119000Y-76329000D02*
X111415000Y-76329000D01*
X113375000Y-76329000D02*
X114671000Y-76329000D01*
X110139000Y-76289000D02*
X111415000Y-76289000D01*
X113375000Y-76289000D02*
X114651000Y-76289000D01*
X110161000Y-76249000D02*
X111415000Y-76249000D01*
X113375000Y-76249000D02*
X114629000Y-76249000D01*
X110183000Y-76209000D02*
X111415000Y-76209000D01*
X113375000Y-76209000D02*
X114607000Y-76209000D01*
X110206000Y-76169000D02*
X111415000Y-76169000D01*
X113375000Y-76169000D02*
X114584000Y-76169000D01*
X110230000Y-76129000D02*
X111415000Y-76129000D01*
X113375000Y-76129000D02*
X114560000Y-76129000D01*
X110255000Y-76089000D02*
X111415000Y-76089000D01*
X113375000Y-76089000D02*
X114535000Y-76089000D01*
X110282000Y-76049000D02*
X111415000Y-76049000D01*
X113375000Y-76049000D02*
X114508000Y-76049000D01*
X110309000Y-76009000D02*
X111415000Y-76009000D01*
X113375000Y-76009000D02*
X114481000Y-76009000D01*
X110337000Y-75969000D02*
X111415000Y-75969000D01*
X113375000Y-75969000D02*
X114453000Y-75969000D01*
X110367000Y-75929000D02*
X111415000Y-75929000D01*
X113375000Y-75929000D02*
X114423000Y-75929000D01*
X110398000Y-75889000D02*
X111415000Y-75889000D01*
X113375000Y-75889000D02*
X114392000Y-75889000D01*
X110430000Y-75849000D02*
X111415000Y-75849000D01*
X113375000Y-75849000D02*
X114360000Y-75849000D01*
X110463000Y-75809000D02*
X111415000Y-75809000D01*
X113375000Y-75809000D02*
X114327000Y-75809000D01*
X110498000Y-75769000D02*
X111415000Y-75769000D01*
X113375000Y-75769000D02*
X114292000Y-75769000D01*
X110534000Y-75729000D02*
X111415000Y-75729000D01*
X113375000Y-75729000D02*
X114256000Y-75729000D01*
X110572000Y-75689000D02*
X111415000Y-75689000D01*
X113375000Y-75689000D02*
X114218000Y-75689000D01*
X110612000Y-75649000D02*
X111415000Y-75649000D01*
X113375000Y-75649000D02*
X114178000Y-75649000D01*
X110653000Y-75609000D02*
X111415000Y-75609000D01*
X113375000Y-75609000D02*
X114137000Y-75609000D01*
X110696000Y-75569000D02*
X111415000Y-75569000D01*
X113375000Y-75569000D02*
X114094000Y-75569000D01*
X110741000Y-75529000D02*
X111415000Y-75529000D01*
X113375000Y-75529000D02*
X114049000Y-75529000D01*
X110789000Y-75489000D02*
X111415000Y-75489000D01*
X113375000Y-75489000D02*
X114001000Y-75489000D01*
X110839000Y-75449000D02*
X111415000Y-75449000D01*
X113375000Y-75449000D02*
X113951000Y-75449000D01*
X110891000Y-75409000D02*
X111415000Y-75409000D01*
X113375000Y-75409000D02*
X113899000Y-75409000D01*
X110947000Y-75369000D02*
X111415000Y-75369000D01*
X113375000Y-75369000D02*
X113843000Y-75369000D01*
X111005000Y-75329000D02*
X111415000Y-75329000D01*
X113375000Y-75329000D02*
X113785000Y-75329000D01*
X111068000Y-75289000D02*
X111415000Y-75289000D01*
X113375000Y-75289000D02*
X113722000Y-75289000D01*
X111134000Y-75249000D02*
X113656000Y-75249000D01*
X111206000Y-75209000D02*
X113584000Y-75209000D01*
X111283000Y-75169000D02*
X113507000Y-75169000D01*
X111367000Y-75129000D02*
X113423000Y-75129000D01*
X111461000Y-75089000D02*
X113329000Y-75089000D01*
X111566000Y-75049000D02*
X113224000Y-75049000D01*
X111688000Y-75009000D02*
X113102000Y-75009000D01*
X111836000Y-74969000D02*
X112954000Y-74969000D01*
X112041000Y-74929000D02*
X112749000Y-74929000D01*
X112395000Y-80940000D02*
X112395000Y-79740000D01*
X111745000Y-80340000D02*
X113045000Y-80340000D01*
X119440000Y-89595000D02*
X119440000Y-86935000D01*
X114300000Y-89595000D02*
X119440000Y-89595000D01*
X114300000Y-86935000D02*
X119440000Y-86935000D01*
X114300000Y-89595000D02*
X114300000Y-86935000D01*
X113030000Y-89595000D02*
X111700000Y-89595000D01*
X111700000Y-89595000D02*
X111700000Y-88265000D01*
D11*
X100147381Y-89796667D02*
X99147381Y-89796667D01*
X99147381Y-89415714D01*
X99195000Y-89320476D01*
X99242619Y-89272857D01*
X99337857Y-89225238D01*
X99480714Y-89225238D01*
X99575952Y-89272857D01*
X99623571Y-89320476D01*
X99671190Y-89415714D01*
X99671190Y-89796667D01*
X100147381Y-88653810D02*
X100099762Y-88749048D01*
X100052143Y-88796667D01*
X99956905Y-88844286D01*
X99671190Y-88844286D01*
X99575952Y-88796667D01*
X99528333Y-88749048D01*
X99480714Y-88653810D01*
X99480714Y-88510952D01*
X99528333Y-88415714D01*
X99575952Y-88368095D01*
X99671190Y-88320476D01*
X99956905Y-88320476D01*
X100052143Y-88368095D01*
X100099762Y-88415714D01*
X100147381Y-88510952D01*
X100147381Y-88653810D01*
X100147381Y-87891905D02*
X99480714Y-87891905D01*
X99671190Y-87891905D02*
X99575952Y-87844286D01*
X99528333Y-87796667D01*
X99480714Y-87701429D01*
X99480714Y-87606190D01*
X99480714Y-87415714D02*
X99480714Y-87034762D01*
X99147381Y-87272857D02*
X100004524Y-87272857D01*
X100099762Y-87225238D01*
X100147381Y-87130000D01*
X100147381Y-87034762D01*
X100147381Y-85415713D02*
X100147381Y-85987142D01*
X100147381Y-85701428D02*
X99147381Y-85701428D01*
X99290238Y-85796666D01*
X99385476Y-85891904D01*
X99433095Y-85987142D01*
X100147381Y-58681667D02*
X99147381Y-58681667D01*
X99147381Y-58300714D01*
X99195000Y-58205476D01*
X99242619Y-58157857D01*
X99337857Y-58110238D01*
X99480714Y-58110238D01*
X99575952Y-58157857D01*
X99623571Y-58205476D01*
X99671190Y-58300714D01*
X99671190Y-58681667D01*
X100147381Y-57538810D02*
X100099762Y-57634048D01*
X100052143Y-57681667D01*
X99956905Y-57729286D01*
X99671190Y-57729286D01*
X99575952Y-57681667D01*
X99528333Y-57634048D01*
X99480714Y-57538810D01*
X99480714Y-57395952D01*
X99528333Y-57300714D01*
X99575952Y-57253095D01*
X99671190Y-57205476D01*
X99956905Y-57205476D01*
X100052143Y-57253095D01*
X100099762Y-57300714D01*
X100147381Y-57395952D01*
X100147381Y-57538810D01*
X100147381Y-56776905D02*
X99480714Y-56776905D01*
X99671190Y-56776905D02*
X99575952Y-56729286D01*
X99528333Y-56681667D01*
X99480714Y-56586429D01*
X99480714Y-56491190D01*
X99480714Y-56300714D02*
X99480714Y-55919762D01*
X99147381Y-56157857D02*
X100004524Y-56157857D01*
X100099762Y-56110238D01*
X100147381Y-56015000D01*
X100147381Y-55919762D01*
X99242619Y-54872142D02*
X99195000Y-54824523D01*
X99147381Y-54729285D01*
X99147381Y-54491189D01*
X99195000Y-54395951D01*
X99242619Y-54348332D01*
X99337857Y-54300713D01*
X99433095Y-54300713D01*
X99575952Y-54348332D01*
X100147381Y-54919761D01*
X100147381Y-54300713D01*
X122499381Y-74207666D02*
X122023190Y-74541000D01*
X122499381Y-74779095D02*
X121499381Y-74779095D01*
X121499381Y-74398142D01*
X121547000Y-74302904D01*
X121594619Y-74255285D01*
X121689857Y-74207666D01*
X121832714Y-74207666D01*
X121927952Y-74255285D01*
X121975571Y-74302904D01*
X122023190Y-74398142D01*
X122023190Y-74779095D01*
X122499381Y-73255285D02*
X122499381Y-73826714D01*
X122499381Y-73541000D02*
X121499381Y-73541000D01*
X121642238Y-73636238D01*
X121737476Y-73731476D01*
X121785095Y-73826714D01*
X124499762Y-74747381D02*
X123928333Y-74747381D01*
X124214047Y-74747381D02*
X124214047Y-73747381D01*
X124118809Y-73890238D01*
X124023571Y-73985476D01*
X123928333Y-74033095D01*
X125118809Y-73747381D02*
X125214048Y-73747381D01*
X125309286Y-73795000D01*
X125356905Y-73842619D01*
X125404524Y-73937857D01*
X125452143Y-74128333D01*
X125452143Y-74366429D01*
X125404524Y-74556905D01*
X125356905Y-74652143D01*
X125309286Y-74699762D01*
X125214048Y-74747381D01*
X125118809Y-74747381D01*
X125023571Y-74699762D01*
X124975952Y-74652143D01*
X124928333Y-74556905D01*
X124880714Y-74366429D01*
X124880714Y-74128333D01*
X124928333Y-73937857D01*
X124975952Y-73842619D01*
X125023571Y-73795000D01*
X125118809Y-73747381D01*
X125880714Y-74747381D02*
X125880714Y-73747381D01*
X125975952Y-74366429D02*
X126261667Y-74747381D01*
X126261667Y-74080714D02*
X125880714Y-74461667D01*
X122499381Y-78271666D02*
X122023190Y-78605000D01*
X122499381Y-78843095D02*
X121499381Y-78843095D01*
X121499381Y-78462142D01*
X121547000Y-78366904D01*
X121594619Y-78319285D01*
X121689857Y-78271666D01*
X121832714Y-78271666D01*
X121927952Y-78319285D01*
X121975571Y-78366904D01*
X122023190Y-78462142D01*
X122023190Y-78843095D01*
X121594619Y-77890714D02*
X121547000Y-77843095D01*
X121499381Y-77747857D01*
X121499381Y-77509761D01*
X121547000Y-77414523D01*
X121594619Y-77366904D01*
X121689857Y-77319285D01*
X121785095Y-77319285D01*
X121927952Y-77366904D01*
X122499381Y-77938333D01*
X122499381Y-77319285D01*
X124499762Y-78557381D02*
X123928333Y-78557381D01*
X124214047Y-78557381D02*
X124214047Y-77557381D01*
X124118809Y-77700238D01*
X124023571Y-77795476D01*
X123928333Y-77843095D01*
X125118809Y-77557381D02*
X125214048Y-77557381D01*
X125309286Y-77605000D01*
X125356905Y-77652619D01*
X125404524Y-77747857D01*
X125452143Y-77938333D01*
X125452143Y-78176429D01*
X125404524Y-78366905D01*
X125356905Y-78462143D01*
X125309286Y-78509762D01*
X125214048Y-78557381D01*
X125118809Y-78557381D01*
X125023571Y-78509762D01*
X124975952Y-78462143D01*
X124928333Y-78366905D01*
X124880714Y-78176429D01*
X124880714Y-77938333D01*
X124928333Y-77747857D01*
X124975952Y-77652619D01*
X125023571Y-77605000D01*
X125118809Y-77557381D01*
X125880714Y-78557381D02*
X125880714Y-77557381D01*
X125975952Y-78176429D02*
X126261667Y-78557381D01*
X126261667Y-77890714D02*
X125880714Y-78271667D01*
X110323334Y-47950381D02*
X109990000Y-47474190D01*
X109751905Y-47950381D02*
X109751905Y-46950381D01*
X110132858Y-46950381D01*
X110228096Y-46998000D01*
X110275715Y-47045619D01*
X110323334Y-47140857D01*
X110323334Y-47283714D01*
X110275715Y-47378952D01*
X110228096Y-47426571D01*
X110132858Y-47474190D01*
X109751905Y-47474190D01*
X110656667Y-46950381D02*
X111275715Y-46950381D01*
X110942381Y-47331333D01*
X111085239Y-47331333D01*
X111180477Y-47378952D01*
X111228096Y-47426571D01*
X111275715Y-47521810D01*
X111275715Y-47759905D01*
X111228096Y-47855143D01*
X111180477Y-47902762D01*
X111085239Y-47950381D01*
X110799524Y-47950381D01*
X110704286Y-47902762D01*
X110656667Y-47855143D01*
X110037619Y-52038095D02*
X109990000Y-51990476D01*
X109942381Y-51895238D01*
X109942381Y-51657142D01*
X109990000Y-51561904D01*
X110037619Y-51514285D01*
X110132857Y-51466666D01*
X110228095Y-51466666D01*
X110370952Y-51514285D01*
X110942381Y-52085714D01*
X110942381Y-51466666D01*
X110037619Y-51085714D02*
X109990000Y-51038095D01*
X109942381Y-50942857D01*
X109942381Y-50704761D01*
X109990000Y-50609523D01*
X110037619Y-50561904D01*
X110132857Y-50514285D01*
X110228095Y-50514285D01*
X110370952Y-50561904D01*
X110942381Y-51133333D01*
X110942381Y-50514285D01*
X109942381Y-49895238D02*
X109942381Y-49799999D01*
X109990000Y-49704761D01*
X110037619Y-49657142D01*
X110132857Y-49609523D01*
X110323333Y-49561904D01*
X110561429Y-49561904D01*
X110751905Y-49609523D01*
X110847143Y-49657142D01*
X110894762Y-49704761D01*
X110942381Y-49799999D01*
X110942381Y-49895238D01*
X110894762Y-49990476D01*
X110847143Y-50038095D01*
X110751905Y-50085714D01*
X110561429Y-50133333D01*
X110323333Y-50133333D01*
X110132857Y-50085714D01*
X110037619Y-50038095D01*
X109990000Y-49990476D01*
X109942381Y-49895238D01*
X114133334Y-47950381D02*
X113800000Y-47474190D01*
X113561905Y-47950381D02*
X113561905Y-46950381D01*
X113942858Y-46950381D01*
X114038096Y-46998000D01*
X114085715Y-47045619D01*
X114133334Y-47140857D01*
X114133334Y-47283714D01*
X114085715Y-47378952D01*
X114038096Y-47426571D01*
X113942858Y-47474190D01*
X113561905Y-47474190D01*
X114990477Y-47283714D02*
X114990477Y-47950381D01*
X114752381Y-46902762D02*
X114514286Y-47617048D01*
X115133334Y-47617048D01*
X113847619Y-52038095D02*
X113800000Y-51990476D01*
X113752381Y-51895238D01*
X113752381Y-51657142D01*
X113800000Y-51561904D01*
X113847619Y-51514285D01*
X113942857Y-51466666D01*
X114038095Y-51466666D01*
X114180952Y-51514285D01*
X114752381Y-52085714D01*
X114752381Y-51466666D01*
X113847619Y-51085714D02*
X113800000Y-51038095D01*
X113752381Y-50942857D01*
X113752381Y-50704761D01*
X113800000Y-50609523D01*
X113847619Y-50561904D01*
X113942857Y-50514285D01*
X114038095Y-50514285D01*
X114180952Y-50561904D01*
X114752381Y-51133333D01*
X114752381Y-50514285D01*
X113752381Y-49895238D02*
X113752381Y-49799999D01*
X113800000Y-49704761D01*
X113847619Y-49657142D01*
X113942857Y-49609523D01*
X114133333Y-49561904D01*
X114371429Y-49561904D01*
X114561905Y-49609523D01*
X114657143Y-49657142D01*
X114704762Y-49704761D01*
X114752381Y-49799999D01*
X114752381Y-49895238D01*
X114704762Y-49990476D01*
X114657143Y-50038095D01*
X114561905Y-50085714D01*
X114371429Y-50133333D01*
X114133333Y-50133333D01*
X113942857Y-50085714D01*
X113847619Y-50038095D01*
X113800000Y-49990476D01*
X113752381Y-49895238D01*
X123063095Y-43267381D02*
X123063095Y-44076905D01*
X123110714Y-44172143D01*
X123158333Y-44219762D01*
X123253571Y-44267381D01*
X123444048Y-44267381D01*
X123539286Y-44219762D01*
X123586905Y-44172143D01*
X123634524Y-44076905D01*
X123634524Y-43267381D01*
X124634524Y-44267381D02*
X124063095Y-44267381D01*
X124348809Y-44267381D02*
X124348809Y-43267381D01*
X124253571Y-43410238D01*
X124158333Y-43505476D01*
X124063095Y-43553095D01*
X123277381Y-54284048D02*
X123277381Y-53617381D01*
X124277381Y-54045953D01*
X123610714Y-52807857D02*
X124277381Y-52807857D01*
X123229762Y-53045953D02*
X123944048Y-53284048D01*
X123944048Y-52665000D01*
X124277381Y-52284048D02*
X123277381Y-52284048D01*
X123753571Y-52284048D02*
X123753571Y-51712619D01*
X124277381Y-51712619D02*
X123277381Y-51712619D01*
X124182143Y-50665000D02*
X124229762Y-50712619D01*
X124277381Y-50855476D01*
X124277381Y-50950714D01*
X124229762Y-51093572D01*
X124134524Y-51188810D01*
X124039286Y-51236429D01*
X123848810Y-51284048D01*
X123705952Y-51284048D01*
X123515476Y-51236429D01*
X123420238Y-51188810D01*
X123325000Y-51093572D01*
X123277381Y-50950714D01*
X123277381Y-50855476D01*
X123325000Y-50712619D01*
X123372619Y-50665000D01*
X123277381Y-50379286D02*
X123277381Y-49807857D01*
X124277381Y-50093572D02*
X123277381Y-50093572D01*
X123610714Y-49045952D02*
X124277381Y-49045952D01*
X123229762Y-49284048D02*
X123944048Y-49522143D01*
X123944048Y-48903095D01*
X123277381Y-48331667D02*
X123277381Y-48236428D01*
X123325000Y-48141190D01*
X123372619Y-48093571D01*
X123467857Y-48045952D01*
X123658333Y-47998333D01*
X123896429Y-47998333D01*
X124086905Y-48045952D01*
X124182143Y-48093571D01*
X124229762Y-48141190D01*
X124277381Y-48236428D01*
X124277381Y-48331667D01*
X124229762Y-48426905D01*
X124182143Y-48474524D01*
X124086905Y-48522143D01*
X123896429Y-48569762D01*
X123658333Y-48569762D01*
X123467857Y-48522143D01*
X123372619Y-48474524D01*
X123325000Y-48426905D01*
X123277381Y-48331667D01*
X123277381Y-47093571D02*
X123277381Y-47569762D01*
X123753571Y-47617381D01*
X123705952Y-47569762D01*
X123658333Y-47474524D01*
X123658333Y-47236428D01*
X123705952Y-47141190D01*
X123753571Y-47093571D01*
X123848810Y-47045952D01*
X124086905Y-47045952D01*
X124182143Y-47093571D01*
X124229762Y-47141190D01*
X124277381Y-47236428D01*
X124277381Y-47474524D01*
X124229762Y-47569762D01*
X124182143Y-47617381D01*
X123277381Y-46712619D02*
X123277381Y-46093571D01*
X123658333Y-46426905D01*
X123658333Y-46284047D01*
X123705952Y-46188809D01*
X123753571Y-46141190D01*
X123848810Y-46093571D01*
X124086905Y-46093571D01*
X124182143Y-46141190D01*
X124229762Y-46188809D01*
X124277381Y-46284047D01*
X124277381Y-46569762D01*
X124229762Y-46665000D01*
X124182143Y-46712619D01*
X137668095Y-43267381D02*
X137668095Y-44076905D01*
X137715714Y-44172143D01*
X137763333Y-44219762D01*
X137858571Y-44267381D01*
X138049048Y-44267381D01*
X138144286Y-44219762D01*
X138191905Y-44172143D01*
X138239524Y-44076905D01*
X138239524Y-43267381D01*
X138668095Y-43362619D02*
X138715714Y-43315000D01*
X138810952Y-43267381D01*
X139049048Y-43267381D01*
X139144286Y-43315000D01*
X139191905Y-43362619D01*
X139239524Y-43457857D01*
X139239524Y-43553095D01*
X139191905Y-43695952D01*
X138620476Y-44267381D01*
X139239524Y-44267381D01*
X137882381Y-54284048D02*
X137882381Y-53617381D01*
X138882381Y-54045953D01*
X138215714Y-52807857D02*
X138882381Y-52807857D01*
X137834762Y-53045953D02*
X138549048Y-53284048D01*
X138549048Y-52665000D01*
X138882381Y-52284048D02*
X137882381Y-52284048D01*
X138358571Y-52284048D02*
X138358571Y-51712619D01*
X138882381Y-51712619D02*
X137882381Y-51712619D01*
X138787143Y-50665000D02*
X138834762Y-50712619D01*
X138882381Y-50855476D01*
X138882381Y-50950714D01*
X138834762Y-51093572D01*
X138739524Y-51188810D01*
X138644286Y-51236429D01*
X138453810Y-51284048D01*
X138310952Y-51284048D01*
X138120476Y-51236429D01*
X138025238Y-51188810D01*
X137930000Y-51093572D01*
X137882381Y-50950714D01*
X137882381Y-50855476D01*
X137930000Y-50712619D01*
X137977619Y-50665000D01*
X137882381Y-50379286D02*
X137882381Y-49807857D01*
X138882381Y-50093572D02*
X137882381Y-50093572D01*
X138215714Y-49045952D02*
X138882381Y-49045952D01*
X137834762Y-49284048D02*
X138549048Y-49522143D01*
X138549048Y-48903095D01*
X137882381Y-48331667D02*
X137882381Y-48236428D01*
X137930000Y-48141190D01*
X137977619Y-48093571D01*
X138072857Y-48045952D01*
X138263333Y-47998333D01*
X138501429Y-47998333D01*
X138691905Y-48045952D01*
X138787143Y-48093571D01*
X138834762Y-48141190D01*
X138882381Y-48236428D01*
X138882381Y-48331667D01*
X138834762Y-48426905D01*
X138787143Y-48474524D01*
X138691905Y-48522143D01*
X138501429Y-48569762D01*
X138263333Y-48569762D01*
X138072857Y-48522143D01*
X137977619Y-48474524D01*
X137930000Y-48426905D01*
X137882381Y-48331667D01*
X137882381Y-47093571D02*
X137882381Y-47569762D01*
X138358571Y-47617381D01*
X138310952Y-47569762D01*
X138263333Y-47474524D01*
X138263333Y-47236428D01*
X138310952Y-47141190D01*
X138358571Y-47093571D01*
X138453810Y-47045952D01*
X138691905Y-47045952D01*
X138787143Y-47093571D01*
X138834762Y-47141190D01*
X138882381Y-47236428D01*
X138882381Y-47474524D01*
X138834762Y-47569762D01*
X138787143Y-47617381D01*
X137882381Y-46712619D02*
X137882381Y-46093571D01*
X138263333Y-46426905D01*
X138263333Y-46284047D01*
X138310952Y-46188809D01*
X138358571Y-46141190D01*
X138453810Y-46093571D01*
X138691905Y-46093571D01*
X138787143Y-46141190D01*
X138834762Y-46188809D01*
X138882381Y-46284047D01*
X138882381Y-46569762D01*
X138834762Y-46665000D01*
X138787143Y-46712619D01*
X137668095Y-68667381D02*
X137668095Y-69476905D01*
X137715714Y-69572143D01*
X137763333Y-69619762D01*
X137858571Y-69667381D01*
X138049048Y-69667381D01*
X138144286Y-69619762D01*
X138191905Y-69572143D01*
X138239524Y-69476905D01*
X138239524Y-68667381D01*
X138620476Y-68667381D02*
X139239524Y-68667381D01*
X138906190Y-69048333D01*
X139049048Y-69048333D01*
X139144286Y-69095952D01*
X139191905Y-69143571D01*
X139239524Y-69238810D01*
X139239524Y-69476905D01*
X139191905Y-69572143D01*
X139144286Y-69619762D01*
X139049048Y-69667381D01*
X138763333Y-69667381D01*
X138668095Y-69619762D01*
X138620476Y-69572143D01*
X136263333Y-72207381D02*
X136263333Y-71207381D01*
X136834762Y-72207381D01*
X136834762Y-71207381D01*
X137310952Y-71683571D02*
X137644286Y-71683571D01*
X137787143Y-72207381D02*
X137310952Y-72207381D01*
X137310952Y-71207381D01*
X137787143Y-71207381D01*
X138691905Y-71207381D02*
X138215714Y-71207381D01*
X138168095Y-71683571D01*
X138215714Y-71635952D01*
X138310952Y-71588333D01*
X138549048Y-71588333D01*
X138644286Y-71635952D01*
X138691905Y-71683571D01*
X138739524Y-71778810D01*
X138739524Y-72016905D01*
X138691905Y-72112143D01*
X138644286Y-72159762D01*
X138549048Y-72207381D01*
X138310952Y-72207381D01*
X138215714Y-72159762D01*
X138168095Y-72112143D01*
X139644286Y-71207381D02*
X139168095Y-71207381D01*
X139120476Y-71683571D01*
X139168095Y-71635952D01*
X139263333Y-71588333D01*
X139501429Y-71588333D01*
X139596667Y-71635952D01*
X139644286Y-71683571D01*
X139691905Y-71778810D01*
X139691905Y-72016905D01*
X139644286Y-72112143D01*
X139596667Y-72159762D01*
X139501429Y-72207381D01*
X139263333Y-72207381D01*
X139168095Y-72159762D01*
X139120476Y-72112143D01*
X140596667Y-71207381D02*
X140120476Y-71207381D01*
X140072857Y-71683571D01*
X140120476Y-71635952D01*
X140215714Y-71588333D01*
X140453810Y-71588333D01*
X140549048Y-71635952D01*
X140596667Y-71683571D01*
X140644286Y-71778810D01*
X140644286Y-72016905D01*
X140596667Y-72112143D01*
X140549048Y-72159762D01*
X140453810Y-72207381D01*
X140215714Y-72207381D01*
X140120476Y-72159762D01*
X140072857Y-72112143D01*
X123658334Y-37822143D02*
X123610715Y-37869762D01*
X123467858Y-37917381D01*
X123372620Y-37917381D01*
X123229762Y-37869762D01*
X123134524Y-37774524D01*
X123086905Y-37679286D01*
X123039286Y-37488810D01*
X123039286Y-37345952D01*
X123086905Y-37155476D01*
X123134524Y-37060238D01*
X123229762Y-36965000D01*
X123372620Y-36917381D01*
X123467858Y-36917381D01*
X123610715Y-36965000D01*
X123658334Y-37012619D01*
X124610715Y-37917381D02*
X124039286Y-37917381D01*
X124325000Y-37917381D02*
X124325000Y-36917381D01*
X124229762Y-37060238D01*
X124134524Y-37155476D01*
X124039286Y-37203095D01*
X138263334Y-37822143D02*
X138215715Y-37869762D01*
X138072858Y-37917381D01*
X137977620Y-37917381D01*
X137834762Y-37869762D01*
X137739524Y-37774524D01*
X137691905Y-37679286D01*
X137644286Y-37488810D01*
X137644286Y-37345952D01*
X137691905Y-37155476D01*
X137739524Y-37060238D01*
X137834762Y-36965000D01*
X137977620Y-36917381D01*
X138072858Y-36917381D01*
X138215715Y-36965000D01*
X138263334Y-37012619D01*
X138644286Y-37012619D02*
X138691905Y-36965000D01*
X138787143Y-36917381D01*
X139025239Y-36917381D01*
X139120477Y-36965000D01*
X139168096Y-37012619D01*
X139215715Y-37107857D01*
X139215715Y-37203095D01*
X139168096Y-37345952D01*
X138596667Y-37917381D01*
X139215715Y-37917381D01*
X138263334Y-63222143D02*
X138215715Y-63269762D01*
X138072858Y-63317381D01*
X137977620Y-63317381D01*
X137834762Y-63269762D01*
X137739524Y-63174524D01*
X137691905Y-63079286D01*
X137644286Y-62888810D01*
X137644286Y-62745952D01*
X137691905Y-62555476D01*
X137739524Y-62460238D01*
X137834762Y-62365000D01*
X137977620Y-62317381D01*
X138072858Y-62317381D01*
X138215715Y-62365000D01*
X138263334Y-62412619D01*
X138596667Y-62317381D02*
X139215715Y-62317381D01*
X138882381Y-62698333D01*
X139025239Y-62698333D01*
X139120477Y-62745952D01*
X139168096Y-62793571D01*
X139215715Y-62888810D01*
X139215715Y-63126905D01*
X139168096Y-63222143D01*
X139120477Y-63269762D01*
X139025239Y-63317381D01*
X138739524Y-63317381D01*
X138644286Y-63269762D01*
X138596667Y-63222143D01*
X122372381Y-66841666D02*
X121896190Y-67175000D01*
X122372381Y-67413095D02*
X121372381Y-67413095D01*
X121372381Y-67032142D01*
X121420000Y-66936904D01*
X121467619Y-66889285D01*
X121562857Y-66841666D01*
X121705714Y-66841666D01*
X121800952Y-66889285D01*
X121848571Y-66936904D01*
X121896190Y-67032142D01*
X121896190Y-67413095D01*
X121372381Y-65936904D02*
X121372381Y-66413095D01*
X121848571Y-66460714D01*
X121800952Y-66413095D01*
X121753333Y-66317857D01*
X121753333Y-66079761D01*
X121800952Y-65984523D01*
X121848571Y-65936904D01*
X121943810Y-65889285D01*
X122181905Y-65889285D01*
X122277143Y-65936904D01*
X122324762Y-65984523D01*
X122372381Y-66079761D01*
X122372381Y-66317857D01*
X122324762Y-66413095D01*
X122277143Y-66460714D01*
X123928333Y-66222619D02*
X123975952Y-66175000D01*
X124071190Y-66127381D01*
X124309286Y-66127381D01*
X124404524Y-66175000D01*
X124452143Y-66222619D01*
X124499762Y-66317857D01*
X124499762Y-66413095D01*
X124452143Y-66555952D01*
X123880714Y-67127381D01*
X124499762Y-67127381D01*
X124928333Y-67127381D02*
X124928333Y-66127381D01*
X125023571Y-66746429D02*
X125309286Y-67127381D01*
X125309286Y-66460714D02*
X124928333Y-66841667D01*
X125690238Y-66222619D02*
X125737857Y-66175000D01*
X125833095Y-66127381D01*
X126071191Y-66127381D01*
X126166429Y-66175000D01*
X126214048Y-66222619D01*
X126261667Y-66317857D01*
X126261667Y-66413095D01*
X126214048Y-66555952D01*
X125642619Y-67127381D01*
X126261667Y-67127381D01*
X122372381Y-63031666D02*
X121896190Y-63365000D01*
X122372381Y-63603095D02*
X121372381Y-63603095D01*
X121372381Y-63222142D01*
X121420000Y-63126904D01*
X121467619Y-63079285D01*
X121562857Y-63031666D01*
X121705714Y-63031666D01*
X121800952Y-63079285D01*
X121848571Y-63126904D01*
X121896190Y-63222142D01*
X121896190Y-63603095D01*
X121372381Y-62174523D02*
X121372381Y-62365000D01*
X121420000Y-62460238D01*
X121467619Y-62507857D01*
X121610476Y-62603095D01*
X121800952Y-62650714D01*
X122181905Y-62650714D01*
X122277143Y-62603095D01*
X122324762Y-62555476D01*
X122372381Y-62460238D01*
X122372381Y-62269761D01*
X122324762Y-62174523D01*
X122277143Y-62126904D01*
X122181905Y-62079285D01*
X121943810Y-62079285D01*
X121848571Y-62126904D01*
X121800952Y-62174523D01*
X121753333Y-62269761D01*
X121753333Y-62460238D01*
X121800952Y-62555476D01*
X121848571Y-62603095D01*
X121943810Y-62650714D01*
X124023572Y-63317381D02*
X123452143Y-63317381D01*
X123737857Y-63317381D02*
X123737857Y-62317381D01*
X123642619Y-62460238D01*
X123547381Y-62555476D01*
X123452143Y-62603095D01*
X124642619Y-62317381D02*
X124737858Y-62317381D01*
X124833096Y-62365000D01*
X124880715Y-62412619D01*
X124928334Y-62507857D01*
X124975953Y-62698333D01*
X124975953Y-62936429D01*
X124928334Y-63126905D01*
X124880715Y-63222143D01*
X124833096Y-63269762D01*
X124737858Y-63317381D01*
X124642619Y-63317381D01*
X124547381Y-63269762D01*
X124499762Y-63222143D01*
X124452143Y-63126905D01*
X124404524Y-62936429D01*
X124404524Y-62698333D01*
X124452143Y-62507857D01*
X124499762Y-62412619D01*
X124547381Y-62365000D01*
X124642619Y-62317381D01*
X125595000Y-62317381D02*
X125690239Y-62317381D01*
X125785477Y-62365000D01*
X125833096Y-62412619D01*
X125880715Y-62507857D01*
X125928334Y-62698333D01*
X125928334Y-62936429D01*
X125880715Y-63126905D01*
X125833096Y-63222143D01*
X125785477Y-63269762D01*
X125690239Y-63317381D01*
X125595000Y-63317381D01*
X125499762Y-63269762D01*
X125452143Y-63222143D01*
X125404524Y-63126905D01*
X125356905Y-62936429D01*
X125356905Y-62698333D01*
X125404524Y-62507857D01*
X125452143Y-62412619D01*
X125499762Y-62365000D01*
X125595000Y-62317381D01*
X126356905Y-63317381D02*
X126356905Y-62317381D01*
X126452143Y-62936429D02*
X126737858Y-63317381D01*
X126737858Y-62650714D02*
X126356905Y-63031667D01*
X122372381Y-70651666D02*
X121896190Y-70985000D01*
X122372381Y-71223095D02*
X121372381Y-71223095D01*
X121372381Y-70842142D01*
X121420000Y-70746904D01*
X121467619Y-70699285D01*
X121562857Y-70651666D01*
X121705714Y-70651666D01*
X121800952Y-70699285D01*
X121848571Y-70746904D01*
X121896190Y-70842142D01*
X121896190Y-71223095D01*
X121372381Y-70318333D02*
X121372381Y-69651666D01*
X122372381Y-70080238D01*
X123928333Y-70032619D02*
X123975952Y-69985000D01*
X124071190Y-69937381D01*
X124309286Y-69937381D01*
X124404524Y-69985000D01*
X124452143Y-70032619D01*
X124499762Y-70127857D01*
X124499762Y-70223095D01*
X124452143Y-70365952D01*
X123880714Y-70937381D01*
X124499762Y-70937381D01*
X124928333Y-70937381D02*
X124928333Y-69937381D01*
X125023571Y-70556429D02*
X125309286Y-70937381D01*
X125309286Y-70270714D02*
X124928333Y-70651667D01*
X125690238Y-70032619D02*
X125737857Y-69985000D01*
X125833095Y-69937381D01*
X126071191Y-69937381D01*
X126166429Y-69985000D01*
X126214048Y-70032619D01*
X126261667Y-70127857D01*
X126261667Y-70223095D01*
X126214048Y-70365952D01*
X125642619Y-70937381D01*
X126261667Y-70937381D01*
X114752381Y-82716666D02*
X114276190Y-83050000D01*
X114752381Y-83288095D02*
X113752381Y-83288095D01*
X113752381Y-82907142D01*
X113800000Y-82811904D01*
X113847619Y-82764285D01*
X113942857Y-82716666D01*
X114085714Y-82716666D01*
X114180952Y-82764285D01*
X114228571Y-82811904D01*
X114276190Y-82907142D01*
X114276190Y-83288095D01*
X114752381Y-82240476D02*
X114752381Y-82050000D01*
X114704762Y-81954761D01*
X114657143Y-81907142D01*
X114514286Y-81811904D01*
X114323810Y-81764285D01*
X113942857Y-81764285D01*
X113847619Y-81811904D01*
X113800000Y-81859523D01*
X113752381Y-81954761D01*
X113752381Y-82145238D01*
X113800000Y-82240476D01*
X113847619Y-82288095D01*
X113942857Y-82335714D01*
X114180952Y-82335714D01*
X114276190Y-82288095D01*
X114323810Y-82240476D01*
X114371429Y-82145238D01*
X114371429Y-81954761D01*
X114323810Y-81859523D01*
X114276190Y-81811904D01*
X114180952Y-81764285D01*
X116879762Y-83002381D02*
X116308333Y-83002381D01*
X116594047Y-83002381D02*
X116594047Y-82002381D01*
X116498809Y-82145238D01*
X116403571Y-82240476D01*
X116308333Y-82288095D01*
X117498809Y-82002381D02*
X117594048Y-82002381D01*
X117689286Y-82050000D01*
X117736905Y-82097619D01*
X117784524Y-82192857D01*
X117832143Y-82383333D01*
X117832143Y-82621429D01*
X117784524Y-82811905D01*
X117736905Y-82907143D01*
X117689286Y-82954762D01*
X117594048Y-83002381D01*
X117498809Y-83002381D01*
X117403571Y-82954762D01*
X117355952Y-82907143D01*
X117308333Y-82811905D01*
X117260714Y-82621429D01*
X117260714Y-82383333D01*
X117308333Y-82192857D01*
X117355952Y-82097619D01*
X117403571Y-82050000D01*
X117498809Y-82002381D01*
X118260714Y-83002381D02*
X118260714Y-82002381D01*
X118355952Y-82621429D02*
X118641667Y-83002381D01*
X118641667Y-82335714D02*
X118260714Y-82716667D01*
X127039762Y-86177381D02*
X126706428Y-85701190D01*
X126468333Y-86177381D02*
X126468333Y-85177381D01*
X126849286Y-85177381D01*
X126944524Y-85225000D01*
X126992143Y-85272619D01*
X127039762Y-85367857D01*
X127039762Y-85510714D01*
X126992143Y-85605952D01*
X126944524Y-85653571D01*
X126849286Y-85701190D01*
X126468333Y-85701190D01*
X127325476Y-85177381D02*
X127658809Y-86177381D01*
X127992143Y-85177381D01*
X128849286Y-86177381D02*
X128277857Y-86177381D01*
X128563571Y-86177381D02*
X128563571Y-85177381D01*
X128468333Y-85320238D01*
X128373095Y-85415476D01*
X128277857Y-85463095D01*
X137668095Y-83907381D02*
X137668095Y-84716905D01*
X137715714Y-84812143D01*
X137763333Y-84859762D01*
X137858571Y-84907381D01*
X138049048Y-84907381D01*
X138144286Y-84859762D01*
X138191905Y-84812143D01*
X138239524Y-84716905D01*
X138239524Y-83907381D01*
X139144286Y-84240714D02*
X139144286Y-84907381D01*
X138906190Y-83859762D02*
X138668095Y-84574048D01*
X139287143Y-84574048D01*
X136263333Y-87447381D02*
X136263333Y-86447381D01*
X136834762Y-87447381D01*
X136834762Y-86447381D01*
X137310952Y-86923571D02*
X137644286Y-86923571D01*
X137787143Y-87447381D02*
X137310952Y-87447381D01*
X137310952Y-86447381D01*
X137787143Y-86447381D01*
X138691905Y-86447381D02*
X138215714Y-86447381D01*
X138168095Y-86923571D01*
X138215714Y-86875952D01*
X138310952Y-86828333D01*
X138549048Y-86828333D01*
X138644286Y-86875952D01*
X138691905Y-86923571D01*
X138739524Y-87018810D01*
X138739524Y-87256905D01*
X138691905Y-87352143D01*
X138644286Y-87399762D01*
X138549048Y-87447381D01*
X138310952Y-87447381D01*
X138215714Y-87399762D01*
X138168095Y-87352143D01*
X139644286Y-86447381D02*
X139168095Y-86447381D01*
X139120476Y-86923571D01*
X139168095Y-86875952D01*
X139263333Y-86828333D01*
X139501429Y-86828333D01*
X139596667Y-86875952D01*
X139644286Y-86923571D01*
X139691905Y-87018810D01*
X139691905Y-87256905D01*
X139644286Y-87352143D01*
X139596667Y-87399762D01*
X139501429Y-87447381D01*
X139263333Y-87447381D01*
X139168095Y-87399762D01*
X139120476Y-87352143D01*
X140596667Y-86447381D02*
X140120476Y-86447381D01*
X140072857Y-86923571D01*
X140120476Y-86875952D01*
X140215714Y-86828333D01*
X140453810Y-86828333D01*
X140549048Y-86875952D01*
X140596667Y-86923571D01*
X140644286Y-87018810D01*
X140644286Y-87256905D01*
X140596667Y-87352143D01*
X140549048Y-87399762D01*
X140453810Y-87447381D01*
X140215714Y-87447381D01*
X140120476Y-87399762D01*
X140072857Y-87352143D01*
X138263334Y-78462143D02*
X138215715Y-78509762D01*
X138072858Y-78557381D01*
X137977620Y-78557381D01*
X137834762Y-78509762D01*
X137739524Y-78414524D01*
X137691905Y-78319286D01*
X137644286Y-78128810D01*
X137644286Y-77985952D01*
X137691905Y-77795476D01*
X137739524Y-77700238D01*
X137834762Y-77605000D01*
X137977620Y-77557381D01*
X138072858Y-77557381D01*
X138215715Y-77605000D01*
X138263334Y-77652619D01*
X139120477Y-77890714D02*
X139120477Y-78557381D01*
X138882381Y-77509762D02*
X138644286Y-78224048D01*
X139263334Y-78224048D01*
X110847143Y-78906666D02*
X110894762Y-78954285D01*
X110942381Y-79097142D01*
X110942381Y-79192380D01*
X110894762Y-79335238D01*
X110799524Y-79430476D01*
X110704286Y-79478095D01*
X110513810Y-79525714D01*
X110370952Y-79525714D01*
X110180476Y-79478095D01*
X110085238Y-79430476D01*
X109990000Y-79335238D01*
X109942381Y-79192380D01*
X109942381Y-79097142D01*
X109990000Y-78954285D01*
X110037619Y-78906666D01*
X109942381Y-78001904D02*
X109942381Y-78478095D01*
X110418571Y-78525714D01*
X110370952Y-78478095D01*
X110323333Y-78382857D01*
X110323333Y-78144761D01*
X110370952Y-78049523D01*
X110418571Y-78001904D01*
X110513810Y-77954285D01*
X110751905Y-77954285D01*
X110847143Y-78001904D01*
X110894762Y-78049523D01*
X110942381Y-78144761D01*
X110942381Y-78382857D01*
X110894762Y-78478095D01*
X110847143Y-78525714D01*
X112284286Y-85764667D02*
X112760477Y-85764667D01*
X112189048Y-86050381D02*
X112522381Y-85050381D01*
X112855715Y-86050381D01*
X113189048Y-85050381D02*
X113189048Y-85859905D01*
X113236667Y-85955143D01*
X113284286Y-86002762D01*
X113379524Y-86050381D01*
X113570001Y-86050381D01*
X113665239Y-86002762D01*
X113712858Y-85955143D01*
X113760477Y-85859905D01*
X113760477Y-85050381D01*
X114093810Y-85050381D02*
X114665239Y-85050381D01*
X114379524Y-86050381D02*
X114379524Y-85050381D01*
X115189048Y-85050381D02*
X115379525Y-85050381D01*
X115474763Y-85098000D01*
X115570001Y-85193238D01*
X115617620Y-85383714D01*
X115617620Y-85717048D01*
X115570001Y-85907524D01*
X115474763Y-86002762D01*
X115379525Y-86050381D01*
X115189048Y-86050381D01*
X115093810Y-86002762D01*
X114998572Y-85907524D01*
X114950953Y-85717048D01*
X114950953Y-85383714D01*
X114998572Y-85193238D01*
X115093810Y-85098000D01*
X115189048Y-85050381D01*
X116379525Y-85526571D02*
X116046191Y-85526571D01*
X116046191Y-86050381D02*
X116046191Y-85050381D01*
X116522382Y-85050381D01*
X116903334Y-86050381D02*
X116903334Y-85050381D01*
X117950953Y-86050381D02*
X117617619Y-85574190D01*
X117379524Y-86050381D02*
X117379524Y-85050381D01*
X117760477Y-85050381D01*
X117855715Y-85098000D01*
X117903334Y-85145619D01*
X117950953Y-85240857D01*
X117950953Y-85383714D01*
X117903334Y-85478952D01*
X117855715Y-85526571D01*
X117760477Y-85574190D01*
X117379524Y-85574190D01*
X118379524Y-85526571D02*
X118712858Y-85526571D01*
X118855715Y-86050381D02*
X118379524Y-86050381D01*
X118379524Y-85050381D01*
X118855715Y-85050381D01*
M02*
