M48
; DRILL file {KiCad 5.1.12-84ad8e8a86~92~ubuntu20.04.1} date Sa 27 Nov 2021 12:59:40 CET
; FORMAT={-:-/ absolute / inch / decimal}
; #@! TF.CreationDate,2021-11-27T12:59:40+01:00
; #@! TF.GenerationSoftware,Kicad,Pcbnew,5.1.12-84ad8e8a86~92~ubuntu20.04.1
; #@! TF.FileFunction,Plated,1,2,PTH
FMAT,2
INCH
T1C0.0157
T2C0.0315
T3C0.0354
T4C0.0394
T5C0.0433
T6C0.0472
T7C0.1260
%
G90
G05
T1
X0.1321Y2.2982
X0.453Y1.6821
X0.5691Y2.65
X0.7502Y0.9951
X0.9707Y2.3
X1.014Y1.9124
X1.014Y1.7746
X1.09Y2.35
X1.1282Y1.7982
X1.2345Y2.35
X1.2581Y2.95
X1.2581Y2.85
X1.2581Y2.2352
X1.2739Y1.8927
X1.2857Y2.2943
X1.29Y1.3
X1.3211Y2.8
X1.329Y2.65
X1.388Y2.1093
X1.39Y0.5226
X1.4943Y2.45
X1.5219Y2.2392
X1.5219Y1.7037
X1.5613Y1.75
X1.5652Y2.75
X1.5888Y0.9793
X1.5967Y2.85
X1.6006Y1.7037
X1.64Y1.75
X1.6636Y0.9793
X1.6715Y2.85
X1.6794Y2.2392
X1.8093Y2.15
X1.8211Y1.95
X1.8211Y1.5856
X1.8526Y2.8
T2
X0.49Y2.875
X0.49Y2.475
X0.515Y1.375
X0.565Y2.275
X0.565Y2.175
X0.565Y2.075
X0.565Y1.6234
X0.565Y1.525
X0.64Y2.875
X0.64Y2.475
X0.815Y2.15
X0.815Y2.0
X0.815Y1.85
X0.815Y1.7
X0.815Y1.55
X0.865Y3.0
X0.865Y2.9
X0.865Y2.8
X0.865Y2.7
X0.865Y2.6
X0.865Y2.5
X0.865Y2.4
X0.865Y2.3
X0.915Y1.375
X0.9181Y3.15
X1.115Y3.15
X1.165Y3.0
X1.165Y2.9
X1.165Y2.8
X1.165Y2.7
X1.165Y2.6
X1.165Y2.5
X1.165Y2.4
X1.165Y2.3
X1.215Y2.15
X1.215Y2.0
X1.215Y1.85
X1.215Y1.7
X1.215Y1.55
X1.44Y3.0
X1.44Y2.9
X1.44Y2.8
X1.44Y2.7
X1.44Y2.6
X1.44Y2.5
X1.44Y2.4
X1.44Y2.3
X1.44Y2.0
X1.44Y1.9
X1.44Y1.8
X1.44Y1.7
X1.44Y1.4
X1.44Y1.3
X1.44Y1.2
X1.44Y1.1
X1.4931Y3.15
X1.4931Y2.15
X1.4931Y1.55
X1.69Y3.15
X1.69Y2.15
X1.69Y1.55
X1.74Y3.0
X1.74Y2.9
X1.74Y2.8
X1.74Y2.7
X1.74Y2.6
X1.74Y2.5
X1.74Y2.4
X1.74Y2.3
X1.74Y2.0
X1.74Y1.9
X1.74Y1.8
X1.74Y1.7
X1.74Y1.4
X1.74Y1.3
X1.74Y1.2
X1.74Y1.1
T3
X0.565Y3.15
X0.565Y3.05
X0.565Y1.925
X0.565Y1.825
T4
X0.2014Y2.7823
X0.2014Y2.6732
X0.2014Y2.5642
X0.2014Y2.4551
X0.2014Y1.5539
X0.2014Y1.4449
X0.2014Y1.3358
X0.2014Y1.2268
X0.3132Y2.8368
X0.3132Y2.7278
X0.3132Y2.6187
X0.3132Y2.5096
X0.3132Y2.4006
X0.3132Y1.6085
X0.3132Y1.4994
X0.3132Y1.3904
X0.3132Y1.2813
X0.3132Y1.1722
X0.48Y0.4463
X0.5345Y0.3344
X0.5891Y0.4463
X0.59Y1.15
X0.64Y0.875
X0.64Y0.775
X0.64Y0.675
X0.6436Y0.3344
X0.69Y1.15
X0.6981Y0.4463
X0.74Y0.875
X0.74Y0.775
X0.74Y0.675
X0.7526Y0.3344
X0.79Y1.15
X0.8072Y0.4463
X0.8617Y0.3344
X0.9162Y0.4463
X0.965Y0.875
X0.965Y0.775
X0.965Y0.675
X1.065Y0.875
X1.065Y0.775
X1.065Y0.675
X1.29Y0.875
X1.39Y0.875
T5
X1.39Y0.3309
X1.39Y0.075
X1.5672Y0.3309
X1.5672Y0.075
X1.69Y0.3309
X1.69Y0.075
X1.8672Y0.3309
X1.8672Y0.075
T6
X1.065Y1.15
X1.1634Y1.3484
X1.2619Y1.15
T7
X0.206Y0.3904
X0.2573Y3.1108
X0.2573Y2.1266
X0.2573Y1.8825
X0.2573Y0.8982
X1.1902Y0.3904
T0
M30
