G04 #@! TF.FileFunction,Legend,Bot*
%FSLAX46Y46*%
G04 Gerber Fmt 4.6, Leading zero omitted, Abs format (unit mm)*
G04 Created by KiCad (PCBNEW 4.0.7) date 01/25/20 22:00:21*
%MOMM*%
%LPD*%
G01*
G04 APERTURE LIST*
%ADD10C,0.100000*%
%ADD11C,0.200000*%
%ADD12C,0.150000*%
G04 APERTURE END LIST*
D10*
D11*
X130810000Y-93980000D02*
X130810000Y-94615000D01*
X133350000Y-93980000D02*
X130810000Y-93980000D01*
X133350000Y-94615000D02*
X133350000Y-93980000D01*
X125095000Y-96520000D02*
X125095000Y-97155000D01*
X122555000Y-96520000D02*
X125095000Y-96520000D01*
X122555000Y-97155000D02*
X122555000Y-96520000D01*
X116840000Y-99060000D02*
X116840000Y-99695000D01*
X114300000Y-99060000D02*
X116840000Y-99060000D01*
X114300000Y-99695000D02*
X114300000Y-99060000D01*
D12*
X116823810Y-85526571D02*
X116490476Y-85526571D01*
X116347619Y-86050381D02*
X116823810Y-86050381D01*
X116823810Y-85050381D01*
X116347619Y-85050381D01*
X115919048Y-86050381D02*
X115919048Y-85050381D01*
X115347619Y-86050381D01*
X115347619Y-85050381D01*
X114919048Y-85764667D02*
X114442857Y-85764667D01*
X115014286Y-86050381D02*
X114680953Y-85050381D01*
X114347619Y-86050381D01*
X113680952Y-85526571D02*
X113538095Y-85574190D01*
X113490476Y-85621810D01*
X113442857Y-85717048D01*
X113442857Y-85859905D01*
X113490476Y-85955143D01*
X113538095Y-86002762D01*
X113633333Y-86050381D01*
X114014286Y-86050381D01*
X114014286Y-85050381D01*
X113680952Y-85050381D01*
X113585714Y-85098000D01*
X113538095Y-85145619D01*
X113490476Y-85240857D01*
X113490476Y-85336095D01*
X113538095Y-85431333D01*
X113585714Y-85478952D01*
X113680952Y-85526571D01*
X114014286Y-85526571D01*
X112538095Y-86050381D02*
X113014286Y-86050381D01*
X113014286Y-85050381D01*
X112204762Y-85526571D02*
X111871428Y-85526571D01*
X111728571Y-86050381D02*
X112204762Y-86050381D01*
X112204762Y-85050381D01*
X111728571Y-85050381D01*
D11*
X120015000Y-86360000D02*
X120015000Y-90170000D01*
X116205000Y-86360000D02*
X120015000Y-86360000D01*
X111125000Y-86360000D02*
X112395000Y-86360000D01*
X115570000Y-86360000D02*
X115570000Y-87630000D01*
X113030000Y-86360000D02*
X115570000Y-86360000D01*
X113030000Y-87630000D02*
X113030000Y-86360000D01*
X111125000Y-90170000D02*
X111125000Y-86360000D01*
X120015000Y-90170000D02*
X111125000Y-90170000D01*
X118110000Y-100330000D02*
X120650000Y-100330000D01*
X118745000Y-97790000D02*
X120650000Y-97790000D01*
X118745000Y-95250000D02*
X120650000Y-95250000D01*
X127000000Y-95250000D02*
X128905000Y-95250000D01*
X111125000Y-103505000D02*
X146685000Y-103505000D01*
X111125000Y-90805000D02*
X111125000Y-103505000D01*
X146685000Y-90805000D02*
X111125000Y-90805000D01*
X146685000Y-103505000D02*
X146685000Y-90805000D01*
D12*
X144334525Y-99132381D02*
X144334525Y-98132381D01*
X144096430Y-98132381D01*
X143953572Y-98180000D01*
X143858334Y-98275238D01*
X143810715Y-98370476D01*
X143763096Y-98560952D01*
X143763096Y-98703810D01*
X143810715Y-98894286D01*
X143858334Y-98989524D01*
X143953572Y-99084762D01*
X144096430Y-99132381D01*
X144334525Y-99132381D01*
X143191668Y-99132381D02*
X143286906Y-99084762D01*
X143334525Y-99037143D01*
X143382144Y-98941905D01*
X143382144Y-98656190D01*
X143334525Y-98560952D01*
X143286906Y-98513333D01*
X143191668Y-98465714D01*
X143048810Y-98465714D01*
X142953572Y-98513333D01*
X142905953Y-98560952D01*
X142858334Y-98656190D01*
X142858334Y-98941905D01*
X142905953Y-99037143D01*
X142953572Y-99084762D01*
X143048810Y-99132381D01*
X143191668Y-99132381D01*
X141667858Y-99132381D02*
X141667858Y-98132381D01*
X141096429Y-99132381D01*
X141096429Y-98132381D01*
X140429763Y-98132381D02*
X140239286Y-98132381D01*
X140144048Y-98180000D01*
X140048810Y-98275238D01*
X140001191Y-98465714D01*
X140001191Y-98799048D01*
X140048810Y-98989524D01*
X140144048Y-99084762D01*
X140239286Y-99132381D01*
X140429763Y-99132381D01*
X140525001Y-99084762D01*
X140620239Y-98989524D01*
X140667858Y-98799048D01*
X140667858Y-98465714D01*
X140620239Y-98275238D01*
X140525001Y-98180000D01*
X140429763Y-98132381D01*
X139715477Y-98132381D02*
X139144048Y-98132381D01*
X139429763Y-99132381D02*
X139429763Y-98132381D01*
X137620238Y-99084762D02*
X137715476Y-99132381D01*
X137905953Y-99132381D01*
X138001191Y-99084762D01*
X138048810Y-99037143D01*
X138096429Y-98941905D01*
X138096429Y-98656190D01*
X138048810Y-98560952D01*
X138001191Y-98513333D01*
X137905953Y-98465714D01*
X137715476Y-98465714D01*
X137620238Y-98513333D01*
X137191667Y-99132381D02*
X137191667Y-98132381D01*
X136763095Y-99132381D02*
X136763095Y-98608571D01*
X136810714Y-98513333D01*
X136905952Y-98465714D01*
X137048810Y-98465714D01*
X137144048Y-98513333D01*
X137191667Y-98560952D01*
X135858333Y-99132381D02*
X135858333Y-98608571D01*
X135905952Y-98513333D01*
X136001190Y-98465714D01*
X136191667Y-98465714D01*
X136286905Y-98513333D01*
X135858333Y-99084762D02*
X135953571Y-99132381D01*
X136191667Y-99132381D01*
X136286905Y-99084762D01*
X136334524Y-98989524D01*
X136334524Y-98894286D01*
X136286905Y-98799048D01*
X136191667Y-98751429D01*
X135953571Y-98751429D01*
X135858333Y-98703810D01*
X135382143Y-98465714D02*
X135382143Y-99132381D01*
X135382143Y-98560952D02*
X135334524Y-98513333D01*
X135239286Y-98465714D01*
X135096428Y-98465714D01*
X135001190Y-98513333D01*
X134953571Y-98608571D01*
X134953571Y-99132381D01*
X134048809Y-98465714D02*
X134048809Y-99275238D01*
X134096428Y-99370476D01*
X134144047Y-99418095D01*
X134239286Y-99465714D01*
X134382143Y-99465714D01*
X134477381Y-99418095D01*
X134048809Y-99084762D02*
X134144047Y-99132381D01*
X134334524Y-99132381D01*
X134429762Y-99084762D01*
X134477381Y-99037143D01*
X134525000Y-98941905D01*
X134525000Y-98656190D01*
X134477381Y-98560952D01*
X134429762Y-98513333D01*
X134334524Y-98465714D01*
X134144047Y-98465714D01*
X134048809Y-98513333D01*
X133191666Y-99084762D02*
X133286904Y-99132381D01*
X133477381Y-99132381D01*
X133572619Y-99084762D01*
X133620238Y-98989524D01*
X133620238Y-98608571D01*
X133572619Y-98513333D01*
X133477381Y-98465714D01*
X133286904Y-98465714D01*
X133191666Y-98513333D01*
X133144047Y-98608571D01*
X133144047Y-98703810D01*
X133620238Y-98799048D01*
X132048809Y-98465714D02*
X131858333Y-99132381D01*
X131667856Y-98656190D01*
X131477380Y-99132381D01*
X131286904Y-98465714D01*
X130905952Y-99132381D02*
X130905952Y-98132381D01*
X130477380Y-99132381D02*
X130477380Y-98608571D01*
X130524999Y-98513333D01*
X130620237Y-98465714D01*
X130763095Y-98465714D01*
X130858333Y-98513333D01*
X130905952Y-98560952D01*
X129620237Y-99084762D02*
X129715475Y-99132381D01*
X129905952Y-99132381D01*
X130001190Y-99084762D01*
X130048809Y-98989524D01*
X130048809Y-98608571D01*
X130001190Y-98513333D01*
X129905952Y-98465714D01*
X129715475Y-98465714D01*
X129620237Y-98513333D01*
X129572618Y-98608571D01*
X129572618Y-98703810D01*
X130048809Y-98799048D01*
X129144047Y-98465714D02*
X129144047Y-99132381D01*
X129144047Y-98560952D02*
X129096428Y-98513333D01*
X129001190Y-98465714D01*
X128858332Y-98465714D01*
X128763094Y-98513333D01*
X128715475Y-98608571D01*
X128715475Y-99132381D01*
X145358334Y-100115714D02*
X145358334Y-101115714D01*
X145358334Y-100163333D02*
X145263096Y-100115714D01*
X145072619Y-100115714D01*
X144977381Y-100163333D01*
X144929762Y-100210952D01*
X144882143Y-100306190D01*
X144882143Y-100591905D01*
X144929762Y-100687143D01*
X144977381Y-100734762D01*
X145072619Y-100782381D01*
X145263096Y-100782381D01*
X145358334Y-100734762D01*
X144310715Y-100782381D02*
X144405953Y-100734762D01*
X144453572Y-100687143D01*
X144501191Y-100591905D01*
X144501191Y-100306190D01*
X144453572Y-100210952D01*
X144405953Y-100163333D01*
X144310715Y-100115714D01*
X144167857Y-100115714D01*
X144072619Y-100163333D01*
X144025000Y-100210952D01*
X143977381Y-100306190D01*
X143977381Y-100591905D01*
X144025000Y-100687143D01*
X144072619Y-100734762D01*
X144167857Y-100782381D01*
X144310715Y-100782381D01*
X143644048Y-100115714D02*
X143453572Y-100782381D01*
X143263095Y-100306190D01*
X143072619Y-100782381D01*
X142882143Y-100115714D01*
X142120238Y-100734762D02*
X142215476Y-100782381D01*
X142405953Y-100782381D01*
X142501191Y-100734762D01*
X142548810Y-100639524D01*
X142548810Y-100258571D01*
X142501191Y-100163333D01*
X142405953Y-100115714D01*
X142215476Y-100115714D01*
X142120238Y-100163333D01*
X142072619Y-100258571D01*
X142072619Y-100353810D01*
X142548810Y-100449048D01*
X141644048Y-100782381D02*
X141644048Y-100115714D01*
X141644048Y-100306190D02*
X141596429Y-100210952D01*
X141548810Y-100163333D01*
X141453572Y-100115714D01*
X141358333Y-100115714D01*
X140644047Y-100734762D02*
X140739285Y-100782381D01*
X140929762Y-100782381D01*
X141025000Y-100734762D01*
X141072619Y-100639524D01*
X141072619Y-100258571D01*
X141025000Y-100163333D01*
X140929762Y-100115714D01*
X140739285Y-100115714D01*
X140644047Y-100163333D01*
X140596428Y-100258571D01*
X140596428Y-100353810D01*
X141072619Y-100449048D01*
X139739285Y-100782381D02*
X139739285Y-99782381D01*
X139739285Y-100734762D02*
X139834523Y-100782381D01*
X140025000Y-100782381D01*
X140120238Y-100734762D01*
X140167857Y-100687143D01*
X140215476Y-100591905D01*
X140215476Y-100306190D01*
X140167857Y-100210952D01*
X140120238Y-100163333D01*
X140025000Y-100115714D01*
X139834523Y-100115714D01*
X139739285Y-100163333D01*
X139215476Y-100734762D02*
X139215476Y-100782381D01*
X139263095Y-100877619D01*
X139310714Y-100925238D01*
X137596428Y-100782381D02*
X137596428Y-99782381D01*
X137596428Y-100734762D02*
X137691666Y-100782381D01*
X137882143Y-100782381D01*
X137977381Y-100734762D01*
X138025000Y-100687143D01*
X138072619Y-100591905D01*
X138072619Y-100306190D01*
X138025000Y-100210952D01*
X137977381Y-100163333D01*
X137882143Y-100115714D01*
X137691666Y-100115714D01*
X137596428Y-100163333D01*
X136977381Y-100782381D02*
X137072619Y-100734762D01*
X137120238Y-100687143D01*
X137167857Y-100591905D01*
X137167857Y-100306190D01*
X137120238Y-100210952D01*
X137072619Y-100163333D01*
X136977381Y-100115714D01*
X136834523Y-100115714D01*
X136739285Y-100163333D01*
X136691666Y-100210952D01*
X136644047Y-100306190D01*
X136644047Y-100591905D01*
X136691666Y-100687143D01*
X136739285Y-100734762D01*
X136834523Y-100782381D01*
X136977381Y-100782381D01*
X135453571Y-100115714D02*
X135453571Y-100782381D01*
X135453571Y-100210952D02*
X135405952Y-100163333D01*
X135310714Y-100115714D01*
X135167856Y-100115714D01*
X135072618Y-100163333D01*
X135024999Y-100258571D01*
X135024999Y-100782381D01*
X134405952Y-100782381D02*
X134501190Y-100734762D01*
X134548809Y-100687143D01*
X134596428Y-100591905D01*
X134596428Y-100306190D01*
X134548809Y-100210952D01*
X134501190Y-100163333D01*
X134405952Y-100115714D01*
X134263094Y-100115714D01*
X134167856Y-100163333D01*
X134120237Y-100210952D01*
X134072618Y-100306190D01*
X134072618Y-100591905D01*
X134120237Y-100687143D01*
X134167856Y-100734762D01*
X134263094Y-100782381D01*
X134405952Y-100782381D01*
X133786904Y-100115714D02*
X133405952Y-100115714D01*
X133644047Y-99782381D02*
X133644047Y-100639524D01*
X133596428Y-100734762D01*
X133501190Y-100782381D01*
X133405952Y-100782381D01*
X132310713Y-100115714D02*
X132310713Y-100972857D01*
X132358332Y-101068095D01*
X132453570Y-101115714D01*
X132501189Y-101115714D01*
X132310713Y-99782381D02*
X132358332Y-99830000D01*
X132310713Y-99877619D01*
X132263094Y-99830000D01*
X132310713Y-99782381D01*
X132310713Y-99877619D01*
X131405951Y-100115714D02*
X131405951Y-100782381D01*
X131834523Y-100115714D02*
X131834523Y-100639524D01*
X131786904Y-100734762D01*
X131691666Y-100782381D01*
X131548808Y-100782381D01*
X131453570Y-100734762D01*
X131405951Y-100687143D01*
X130929761Y-100782381D02*
X130929761Y-100115714D01*
X130929761Y-100210952D02*
X130882142Y-100163333D01*
X130786904Y-100115714D01*
X130644046Y-100115714D01*
X130548808Y-100163333D01*
X130501189Y-100258571D01*
X130501189Y-100782381D01*
X130501189Y-100258571D02*
X130453570Y-100163333D01*
X130358332Y-100115714D01*
X130215475Y-100115714D01*
X130120237Y-100163333D01*
X130072618Y-100258571D01*
X130072618Y-100782381D01*
X129596428Y-100115714D02*
X129596428Y-101115714D01*
X129596428Y-100163333D02*
X129501190Y-100115714D01*
X129310713Y-100115714D01*
X129215475Y-100163333D01*
X129167856Y-100210952D01*
X129120237Y-100306190D01*
X129120237Y-100591905D01*
X129167856Y-100687143D01*
X129215475Y-100734762D01*
X129310713Y-100782381D01*
X129501190Y-100782381D01*
X129596428Y-100734762D01*
X128310713Y-100734762D02*
X128405951Y-100782381D01*
X128596428Y-100782381D01*
X128691666Y-100734762D01*
X128739285Y-100639524D01*
X128739285Y-100258571D01*
X128691666Y-100163333D01*
X128596428Y-100115714D01*
X128405951Y-100115714D01*
X128310713Y-100163333D01*
X128263094Y-100258571D01*
X128263094Y-100353810D01*
X128739285Y-100449048D01*
X127834523Y-100782381D02*
X127834523Y-100115714D01*
X127834523Y-100306190D02*
X127786904Y-100210952D01*
X127739285Y-100163333D01*
X127644047Y-100115714D01*
X127548808Y-100115714D01*
X145882144Y-102432381D02*
X145882144Y-101765714D01*
X145882144Y-101860952D02*
X145834525Y-101813333D01*
X145739287Y-101765714D01*
X145596429Y-101765714D01*
X145501191Y-101813333D01*
X145453572Y-101908571D01*
X145453572Y-102432381D01*
X145453572Y-101908571D02*
X145405953Y-101813333D01*
X145310715Y-101765714D01*
X145167858Y-101765714D01*
X145072620Y-101813333D01*
X145025001Y-101908571D01*
X145025001Y-102432381D01*
X144405954Y-102432381D02*
X144501192Y-102384762D01*
X144548811Y-102337143D01*
X144596430Y-102241905D01*
X144596430Y-101956190D01*
X144548811Y-101860952D01*
X144501192Y-101813333D01*
X144405954Y-101765714D01*
X144263096Y-101765714D01*
X144167858Y-101813333D01*
X144120239Y-101860952D01*
X144072620Y-101956190D01*
X144072620Y-102241905D01*
X144120239Y-102337143D01*
X144167858Y-102384762D01*
X144263096Y-102432381D01*
X144405954Y-102432381D01*
X143644049Y-102432381D02*
X143644049Y-101765714D01*
X143644049Y-101956190D02*
X143596430Y-101860952D01*
X143548811Y-101813333D01*
X143453573Y-101765714D01*
X143358334Y-101765714D01*
X142644048Y-102384762D02*
X142739286Y-102432381D01*
X142929763Y-102432381D01*
X143025001Y-102384762D01*
X143072620Y-102289524D01*
X143072620Y-101908571D01*
X143025001Y-101813333D01*
X142929763Y-101765714D01*
X142739286Y-101765714D01*
X142644048Y-101813333D01*
X142596429Y-101908571D01*
X142596429Y-102003810D01*
X143072620Y-102099048D01*
X141548810Y-101765714D02*
X141167858Y-101765714D01*
X141405953Y-101432381D02*
X141405953Y-102289524D01*
X141358334Y-102384762D01*
X141263096Y-102432381D01*
X141167858Y-102432381D01*
X140834524Y-102432381D02*
X140834524Y-101432381D01*
X140405952Y-102432381D02*
X140405952Y-101908571D01*
X140453571Y-101813333D01*
X140548809Y-101765714D01*
X140691667Y-101765714D01*
X140786905Y-101813333D01*
X140834524Y-101860952D01*
X139501190Y-102432381D02*
X139501190Y-101908571D01*
X139548809Y-101813333D01*
X139644047Y-101765714D01*
X139834524Y-101765714D01*
X139929762Y-101813333D01*
X139501190Y-102384762D02*
X139596428Y-102432381D01*
X139834524Y-102432381D01*
X139929762Y-102384762D01*
X139977381Y-102289524D01*
X139977381Y-102194286D01*
X139929762Y-102099048D01*
X139834524Y-102051429D01*
X139596428Y-102051429D01*
X139501190Y-102003810D01*
X139025000Y-101765714D02*
X139025000Y-102432381D01*
X139025000Y-101860952D02*
X138977381Y-101813333D01*
X138882143Y-101765714D01*
X138739285Y-101765714D01*
X138644047Y-101813333D01*
X138596428Y-101908571D01*
X138596428Y-102432381D01*
X137215476Y-102432381D02*
X137310714Y-102384762D01*
X137358333Y-102337143D01*
X137405952Y-102241905D01*
X137405952Y-101956190D01*
X137358333Y-101860952D01*
X137310714Y-101813333D01*
X137215476Y-101765714D01*
X137072618Y-101765714D01*
X136977380Y-101813333D01*
X136929761Y-101860952D01*
X136882142Y-101956190D01*
X136882142Y-102241905D01*
X136929761Y-102337143D01*
X136977380Y-102384762D01*
X137072618Y-102432381D01*
X137215476Y-102432381D01*
X136453571Y-101765714D02*
X136453571Y-102432381D01*
X136453571Y-101860952D02*
X136405952Y-101813333D01*
X136310714Y-101765714D01*
X136167856Y-101765714D01*
X136072618Y-101813333D01*
X136024999Y-101908571D01*
X136024999Y-102432381D01*
X135120237Y-102384762D02*
X135215475Y-102432381D01*
X135405952Y-102432381D01*
X135501190Y-102384762D01*
X135548809Y-102337143D01*
X135596428Y-102241905D01*
X135596428Y-101956190D01*
X135548809Y-101860952D01*
X135501190Y-101813333D01*
X135405952Y-101765714D01*
X135215475Y-101765714D01*
X135120237Y-101813333D01*
X134310713Y-102384762D02*
X134405951Y-102432381D01*
X134596428Y-102432381D01*
X134691666Y-102384762D01*
X134739285Y-102289524D01*
X134739285Y-101908571D01*
X134691666Y-101813333D01*
X134596428Y-101765714D01*
X134405951Y-101765714D01*
X134310713Y-101813333D01*
X134263094Y-101908571D01*
X134263094Y-102003810D01*
X134739285Y-102099048D01*
X133072618Y-101765714D02*
X133072618Y-102765714D01*
X133072618Y-101813333D02*
X132977380Y-101765714D01*
X132786903Y-101765714D01*
X132691665Y-101813333D01*
X132644046Y-101860952D01*
X132596427Y-101956190D01*
X132596427Y-102241905D01*
X132644046Y-102337143D01*
X132691665Y-102384762D01*
X132786903Y-102432381D01*
X132977380Y-102432381D01*
X133072618Y-102384762D01*
X131786903Y-102384762D02*
X131882141Y-102432381D01*
X132072618Y-102432381D01*
X132167856Y-102384762D01*
X132215475Y-102289524D01*
X132215475Y-101908571D01*
X132167856Y-101813333D01*
X132072618Y-101765714D01*
X131882141Y-101765714D01*
X131786903Y-101813333D01*
X131739284Y-101908571D01*
X131739284Y-102003810D01*
X132215475Y-102099048D01*
X131310713Y-102432381D02*
X131310713Y-101765714D01*
X131310713Y-101956190D02*
X131263094Y-101860952D01*
X131215475Y-101813333D01*
X131120237Y-101765714D01*
X131024998Y-101765714D01*
X129786903Y-102432381D02*
X129882141Y-102384762D01*
X129929760Y-102289524D01*
X129929760Y-101432381D01*
X129405950Y-102432381D02*
X129405950Y-101765714D01*
X129405950Y-101432381D02*
X129453569Y-101480000D01*
X129405950Y-101527619D01*
X129358331Y-101480000D01*
X129405950Y-101432381D01*
X129405950Y-101527619D01*
X128929760Y-101765714D02*
X128929760Y-102432381D01*
X128929760Y-101860952D02*
X128882141Y-101813333D01*
X128786903Y-101765714D01*
X128644045Y-101765714D01*
X128548807Y-101813333D01*
X128501188Y-101908571D01*
X128501188Y-102432381D01*
X127644045Y-102384762D02*
X127739283Y-102432381D01*
X127929760Y-102432381D01*
X128024998Y-102384762D01*
X128072617Y-102289524D01*
X128072617Y-101908571D01*
X128024998Y-101813333D01*
X127929760Y-101765714D01*
X127739283Y-101765714D01*
X127644045Y-101813333D01*
X127596426Y-101908571D01*
X127596426Y-102003810D01*
X128072617Y-102099048D01*
X127167855Y-102337143D02*
X127120236Y-102384762D01*
X127167855Y-102432381D01*
X127215474Y-102384762D01*
X127167855Y-102337143D01*
X127167855Y-102432381D01*
X127167855Y-102051429D02*
X127215474Y-101480000D01*
X127167855Y-101432381D01*
X127120236Y-101480000D01*
X127167855Y-102051429D01*
X127167855Y-101432381D01*
X123562142Y-113000714D02*
X123633571Y-113072143D01*
X123847857Y-113143571D01*
X123990714Y-113143571D01*
X124204999Y-113072143D01*
X124347857Y-112929286D01*
X124419285Y-112786429D01*
X124490714Y-112500714D01*
X124490714Y-112286429D01*
X124419285Y-112000714D01*
X124347857Y-111857857D01*
X124204999Y-111715000D01*
X123990714Y-111643571D01*
X123847857Y-111643571D01*
X123633571Y-111715000D01*
X123562142Y-111786429D01*
X122704999Y-113143571D02*
X122847857Y-113072143D01*
X122919285Y-113000714D01*
X122990714Y-112857857D01*
X122990714Y-112429286D01*
X122919285Y-112286429D01*
X122847857Y-112215000D01*
X122704999Y-112143571D01*
X122490714Y-112143571D01*
X122347857Y-112215000D01*
X122276428Y-112286429D01*
X122204999Y-112429286D01*
X122204999Y-112857857D01*
X122276428Y-113000714D01*
X122347857Y-113072143D01*
X122490714Y-113143571D01*
X122704999Y-113143571D01*
X121562142Y-113143571D02*
X121562142Y-112143571D01*
X121562142Y-112286429D02*
X121490714Y-112215000D01*
X121347856Y-112143571D01*
X121133571Y-112143571D01*
X120990714Y-112215000D01*
X120919285Y-112357857D01*
X120919285Y-113143571D01*
X120919285Y-112357857D02*
X120847856Y-112215000D01*
X120704999Y-112143571D01*
X120490714Y-112143571D01*
X120347856Y-112215000D01*
X120276428Y-112357857D01*
X120276428Y-113143571D01*
X119562142Y-113143571D02*
X119562142Y-112143571D01*
X119562142Y-112286429D02*
X119490714Y-112215000D01*
X119347856Y-112143571D01*
X119133571Y-112143571D01*
X118990714Y-112215000D01*
X118919285Y-112357857D01*
X118919285Y-113143571D01*
X118919285Y-112357857D02*
X118847856Y-112215000D01*
X118704999Y-112143571D01*
X118490714Y-112143571D01*
X118347856Y-112215000D01*
X118276428Y-112357857D01*
X118276428Y-113143571D01*
X117347856Y-113143571D02*
X117490714Y-113072143D01*
X117562142Y-113000714D01*
X117633571Y-112857857D01*
X117633571Y-112429286D01*
X117562142Y-112286429D01*
X117490714Y-112215000D01*
X117347856Y-112143571D01*
X117133571Y-112143571D01*
X116990714Y-112215000D01*
X116919285Y-112286429D01*
X116847856Y-112429286D01*
X116847856Y-112857857D01*
X116919285Y-113000714D01*
X116990714Y-113072143D01*
X117133571Y-113143571D01*
X117347856Y-113143571D01*
X115562142Y-113143571D02*
X115562142Y-111643571D01*
X115562142Y-113072143D02*
X115704999Y-113143571D01*
X115990713Y-113143571D01*
X116133571Y-113072143D01*
X116204999Y-113000714D01*
X116276428Y-112857857D01*
X116276428Y-112429286D01*
X116204999Y-112286429D01*
X116133571Y-112215000D01*
X115990713Y-112143571D01*
X115704999Y-112143571D01*
X115562142Y-112215000D01*
X114633570Y-113143571D02*
X114776428Y-113072143D01*
X114847856Y-113000714D01*
X114919285Y-112857857D01*
X114919285Y-112429286D01*
X114847856Y-112286429D01*
X114776428Y-112215000D01*
X114633570Y-112143571D01*
X114419285Y-112143571D01*
X114276428Y-112215000D01*
X114204999Y-112286429D01*
X114133570Y-112429286D01*
X114133570Y-112857857D01*
X114204999Y-113000714D01*
X114276428Y-113072143D01*
X114419285Y-113143571D01*
X114633570Y-113143571D01*
X113490713Y-113143571D02*
X113490713Y-112143571D01*
X113490713Y-112429286D02*
X113419285Y-112286429D01*
X113347856Y-112215000D01*
X113204999Y-112143571D01*
X113062142Y-112143571D01*
X111990714Y-113072143D02*
X112133571Y-113143571D01*
X112419285Y-113143571D01*
X112562142Y-113072143D01*
X112633571Y-112929286D01*
X112633571Y-112357857D01*
X112562142Y-112215000D01*
X112419285Y-112143571D01*
X112133571Y-112143571D01*
X111990714Y-112215000D01*
X111919285Y-112357857D01*
X111919285Y-112500714D01*
X112633571Y-112643571D01*
X109490714Y-111643571D02*
X109776428Y-111643571D01*
X109919285Y-111715000D01*
X109990714Y-111786429D01*
X110133571Y-112000714D01*
X110205000Y-112286429D01*
X110205000Y-112857857D01*
X110133571Y-113000714D01*
X110062143Y-113072143D01*
X109919285Y-113143571D01*
X109633571Y-113143571D01*
X109490714Y-113072143D01*
X109419285Y-113000714D01*
X109347857Y-112857857D01*
X109347857Y-112500714D01*
X109419285Y-112357857D01*
X109490714Y-112286429D01*
X109633571Y-112215000D01*
X109919285Y-112215000D01*
X110062143Y-112286429D01*
X110133571Y-112357857D01*
X110205000Y-112500714D01*
X108062143Y-112143571D02*
X108062143Y-113143571D01*
X108419286Y-111572143D02*
X108776429Y-112643571D01*
X107847857Y-112643571D01*
X125169286Y-114043571D02*
X125169286Y-115115000D01*
X125240714Y-115329286D01*
X125383571Y-115472143D01*
X125597857Y-115543571D01*
X125740714Y-115543571D01*
X124240714Y-115543571D02*
X124383572Y-115472143D01*
X124455000Y-115400714D01*
X124526429Y-115257857D01*
X124526429Y-114829286D01*
X124455000Y-114686429D01*
X124383572Y-114615000D01*
X124240714Y-114543571D01*
X124026429Y-114543571D01*
X123883572Y-114615000D01*
X123812143Y-114686429D01*
X123740714Y-114829286D01*
X123740714Y-115257857D01*
X123812143Y-115400714D01*
X123883572Y-115472143D01*
X124026429Y-115543571D01*
X124240714Y-115543571D01*
X123240714Y-114543571D02*
X122883571Y-115543571D01*
X122526429Y-114543571D02*
X122883571Y-115543571D01*
X123026429Y-115900714D01*
X123097857Y-115972143D01*
X123240714Y-116043571D01*
X122026429Y-115472143D02*
X121883572Y-115543571D01*
X121597857Y-115543571D01*
X121455000Y-115472143D01*
X121383572Y-115329286D01*
X121383572Y-115257857D01*
X121455000Y-115115000D01*
X121597857Y-115043571D01*
X121812143Y-115043571D01*
X121955000Y-114972143D01*
X122026429Y-114829286D01*
X122026429Y-114757857D01*
X121955000Y-114615000D01*
X121812143Y-114543571D01*
X121597857Y-114543571D01*
X121455000Y-114615000D01*
X120955000Y-114543571D02*
X120383571Y-114543571D01*
X120740714Y-114043571D02*
X120740714Y-115329286D01*
X120669286Y-115472143D01*
X120526428Y-115543571D01*
X120383571Y-115543571D01*
X119883571Y-115543571D02*
X119883571Y-114543571D01*
X119883571Y-114043571D02*
X119955000Y-114115000D01*
X119883571Y-114186429D01*
X119812143Y-114115000D01*
X119883571Y-114043571D01*
X119883571Y-114186429D01*
X118526428Y-115472143D02*
X118669285Y-115543571D01*
X118954999Y-115543571D01*
X119097857Y-115472143D01*
X119169285Y-115400714D01*
X119240714Y-115257857D01*
X119240714Y-114829286D01*
X119169285Y-114686429D01*
X119097857Y-114615000D01*
X118954999Y-114543571D01*
X118669285Y-114543571D01*
X118526428Y-114615000D01*
X117883571Y-115543571D02*
X117883571Y-114043571D01*
X117740714Y-114972143D02*
X117312143Y-115543571D01*
X117312143Y-114543571D02*
X117883571Y-115115000D01*
X115597857Y-115472143D02*
X115383571Y-115543571D01*
X115026428Y-115543571D01*
X114883571Y-115472143D01*
X114812142Y-115400714D01*
X114740714Y-115257857D01*
X114740714Y-115115000D01*
X114812142Y-114972143D01*
X114883571Y-114900714D01*
X115026428Y-114829286D01*
X115312142Y-114757857D01*
X115455000Y-114686429D01*
X115526428Y-114615000D01*
X115597857Y-114472143D01*
X115597857Y-114329286D01*
X115526428Y-114186429D01*
X115455000Y-114115000D01*
X115312142Y-114043571D01*
X114955000Y-114043571D01*
X114740714Y-114115000D01*
X114240714Y-114543571D02*
X113955000Y-115543571D01*
X113669286Y-114829286D01*
X113383571Y-115543571D01*
X113097857Y-114543571D01*
X112526428Y-115543571D02*
X112526428Y-114543571D01*
X112526428Y-114043571D02*
X112597857Y-114115000D01*
X112526428Y-114186429D01*
X112455000Y-114115000D01*
X112526428Y-114043571D01*
X112526428Y-114186429D01*
X112026428Y-114543571D02*
X111454999Y-114543571D01*
X111812142Y-114043571D02*
X111812142Y-115329286D01*
X111740714Y-115472143D01*
X111597856Y-115543571D01*
X111454999Y-115543571D01*
X110312142Y-115472143D02*
X110454999Y-115543571D01*
X110740713Y-115543571D01*
X110883571Y-115472143D01*
X110954999Y-115400714D01*
X111026428Y-115257857D01*
X111026428Y-114829286D01*
X110954999Y-114686429D01*
X110883571Y-114615000D01*
X110740713Y-114543571D01*
X110454999Y-114543571D01*
X110312142Y-114615000D01*
X109669285Y-115543571D02*
X109669285Y-114043571D01*
X109026428Y-115543571D02*
X109026428Y-114757857D01*
X109097857Y-114615000D01*
X109240714Y-114543571D01*
X109454999Y-114543571D01*
X109597857Y-114615000D01*
X109669285Y-114686429D01*
X107740714Y-115472143D02*
X107883571Y-115543571D01*
X108169285Y-115543571D01*
X108312142Y-115472143D01*
X108383571Y-115329286D01*
X108383571Y-114757857D01*
X108312142Y-114615000D01*
X108169285Y-114543571D01*
X107883571Y-114543571D01*
X107740714Y-114615000D01*
X107669285Y-114757857D01*
X107669285Y-114900714D01*
X108383571Y-115043571D01*
X107026428Y-115543571D02*
X107026428Y-114543571D01*
X107026428Y-114829286D02*
X106955000Y-114686429D01*
X106883571Y-114615000D01*
X106740714Y-114543571D01*
X106597857Y-114543571D01*
D10*
X110432857Y-60744286D02*
X110470952Y-60858572D01*
X110509048Y-60896667D01*
X110585238Y-60934762D01*
X110699524Y-60934762D01*
X110775714Y-60896667D01*
X110813810Y-60858572D01*
X110851905Y-60782381D01*
X110851905Y-60477619D01*
X110051905Y-60477619D01*
X110051905Y-60744286D01*
X110090000Y-60820476D01*
X110128095Y-60858572D01*
X110204286Y-60896667D01*
X110280476Y-60896667D01*
X110356667Y-60858572D01*
X110394762Y-60820476D01*
X110432857Y-60744286D01*
X110432857Y-60477619D01*
X110775714Y-61734762D02*
X110813810Y-61696667D01*
X110851905Y-61582381D01*
X110851905Y-61506191D01*
X110813810Y-61391905D01*
X110737619Y-61315714D01*
X110661429Y-61277619D01*
X110509048Y-61239524D01*
X110394762Y-61239524D01*
X110242381Y-61277619D01*
X110166190Y-61315714D01*
X110090000Y-61391905D01*
X110051905Y-61506191D01*
X110051905Y-61582381D01*
X110090000Y-61696667D01*
X110128095Y-61734762D01*
X110051905Y-62458572D02*
X110051905Y-62077619D01*
X110432857Y-62039524D01*
X110394762Y-62077619D01*
X110356667Y-62153810D01*
X110356667Y-62344286D01*
X110394762Y-62420476D01*
X110432857Y-62458572D01*
X110509048Y-62496667D01*
X110699524Y-62496667D01*
X110775714Y-62458572D01*
X110813810Y-62420476D01*
X110851905Y-62344286D01*
X110851905Y-62153810D01*
X110813810Y-62077619D01*
X110775714Y-62039524D01*
X110318571Y-63182381D02*
X110851905Y-63182381D01*
X110013810Y-62991905D02*
X110585238Y-62801429D01*
X110585238Y-63296667D01*
X110051905Y-63525239D02*
X110051905Y-64058572D01*
X110851905Y-63715715D01*
X110851905Y-76612857D02*
X110851905Y-76155714D01*
X110851905Y-76384285D02*
X110051905Y-76384285D01*
X110166190Y-76308095D01*
X110242381Y-76231904D01*
X110280476Y-76155714D01*
X110051905Y-77108095D02*
X110051905Y-77184286D01*
X110090000Y-77260476D01*
X110128095Y-77298571D01*
X110204286Y-77336667D01*
X110356667Y-77374762D01*
X110547143Y-77374762D01*
X110699524Y-77336667D01*
X110775714Y-77298571D01*
X110813810Y-77260476D01*
X110851905Y-77184286D01*
X110851905Y-77108095D01*
X110813810Y-77031905D01*
X110775714Y-76993809D01*
X110699524Y-76955714D01*
X110547143Y-76917619D01*
X110356667Y-76917619D01*
X110204286Y-76955714D01*
X110128095Y-76993809D01*
X110090000Y-77031905D01*
X110051905Y-77108095D01*
X110318571Y-78060476D02*
X110851905Y-78060476D01*
X110318571Y-77717619D02*
X110737619Y-77717619D01*
X110813810Y-77755714D01*
X110851905Y-77831905D01*
X110851905Y-77946191D01*
X110813810Y-78022381D01*
X110775714Y-78060476D01*
X110432857Y-78708096D02*
X110432857Y-78441429D01*
X110851905Y-78441429D02*
X110051905Y-78441429D01*
X110051905Y-78822382D01*
M02*
