%TF.GenerationSoftware,KiCad,Pcbnew,5.1.12-84ad8e8a86~92~ubuntu20.04.1*%
%TF.CreationDate,2021-11-27T12:58:46+01:00*%
%TF.ProjectId,C64 Joystick Switcher,43363420-4a6f-4797-9374-69636b205377,rev?*%
%TF.SameCoordinates,PX5d80860PY70086b8*%
%TF.FileFunction,Copper,L1,Top*%
%TF.FilePolarity,Positive*%
%FSLAX46Y46*%
G04 Gerber Fmt 4.6, Leading zero omitted, Abs format (unit mm)*
G04 Created by KiCad (PCBNEW 5.1.12-84ad8e8a86~92~ubuntu20.04.1) date 2021-11-27 12:58:46*
%MOMM*%
%LPD*%
G01*
G04 APERTURE LIST*
%TA.AperFunction,ComponentPad*%
%ADD10R,1.600000X1.600000*%
%TD*%
%TA.AperFunction,ComponentPad*%
%ADD11C,1.600000*%
%TD*%
%TA.AperFunction,ComponentPad*%
%ADD12C,4.800000*%
%TD*%
%TA.AperFunction,ComponentPad*%
%ADD13O,1.600000X1.600000*%
%TD*%
%TA.AperFunction,ComponentPad*%
%ADD14R,1.800000X1.800000*%
%TD*%
%TA.AperFunction,ComponentPad*%
%ADD15C,1.800000*%
%TD*%
%TA.AperFunction,ComponentPad*%
%ADD16R,1.700000X1.700000*%
%TD*%
%TA.AperFunction,ComponentPad*%
%ADD17O,1.700000X1.700000*%
%TD*%
%TA.AperFunction,ComponentPad*%
%ADD18C,2.000000*%
%TD*%
%TA.AperFunction,ComponentPad*%
%ADD19C,1.520000*%
%TD*%
%TA.AperFunction,ComponentPad*%
%ADD20R,1.520000X1.520000*%
%TD*%
%TA.AperFunction,ComponentPad*%
%ADD21C,2.500000*%
%TD*%
%TA.AperFunction,ViaPad*%
%ADD22C,1.000000*%
%TD*%
%TA.AperFunction,Conductor*%
%ADD23C,0.250000*%
%TD*%
%TA.AperFunction,Conductor*%
%ADD24C,0.500000*%
%TD*%
%TA.AperFunction,Conductor*%
%ADD25C,1.000000*%
%TD*%
%TA.AperFunction,Conductor*%
%ADD26C,0.800000*%
%TD*%
%TA.AperFunction,Conductor*%
%ADD27C,0.550000*%
%TD*%
G04 APERTURE END LIST*
D10*
%TO.P,J2,1*%
%TO.N,Net-(J2-Pad1)*%
X7956000Y60975000D03*
D11*
%TO.P,J2,2*%
%TO.N,Net-(J2-Pad2)*%
X7956000Y63745000D03*
%TO.P,J2,3*%
%TO.N,Net-(J2-Pad3)*%
X7956000Y66515000D03*
%TO.P,J2,4*%
%TO.N,Net-(J2-Pad4)*%
X7956000Y69285000D03*
%TO.P,J2,5*%
%TO.N,N/C*%
X7956000Y72055000D03*
%TO.P,J2,6*%
%TO.N,Net-(J2-Pad6)*%
X5116000Y62360000D03*
%TO.P,J2,7*%
%TO.N,VCC*%
X5116000Y65130000D03*
%TO.P,J2,8*%
%TO.N,GND*%
X5116000Y67900000D03*
%TO.P,J2,9*%
%TO.N,Net-(J2-Pad9)*%
X5116000Y70670000D03*
D12*
%TO.P,J2,0*%
%TO.N,N/C*%
X6536000Y79015000D03*
X6536000Y54015000D03*
%TD*%
D10*
%TO.P,J1,1*%
%TO.N,Net-(J1-Pad1)*%
X7956000Y29775000D03*
D11*
%TO.P,J1,2*%
%TO.N,Net-(J1-Pad2)*%
X7956000Y32545000D03*
%TO.P,J1,3*%
%TO.N,Net-(J1-Pad3)*%
X7956000Y35315000D03*
%TO.P,J1,4*%
%TO.N,Net-(J1-Pad4)*%
X7956000Y38085000D03*
%TO.P,J1,5*%
%TO.N,N/C*%
X7956000Y40855000D03*
%TO.P,J1,6*%
%TO.N,Net-(J1-Pad6)*%
X5116000Y31160000D03*
%TO.P,J1,7*%
%TO.N,VCC*%
X5116000Y33930000D03*
%TO.P,J1,8*%
%TO.N,GND*%
X5116000Y36700000D03*
%TO.P,J1,9*%
%TO.N,Net-(J1-Pad9)*%
X5116000Y39470000D03*
D12*
%TO.P,J1,0*%
%TO.N,N/C*%
X6536000Y47815000D03*
X6536000Y22815000D03*
%TD*%
D11*
%TO.P,R2,1*%
%TO.N,Net-(R2-Pad1)*%
X20701000Y39370000D03*
D13*
%TO.P,R2,2*%
%TO.N,VCC*%
X30861000Y39370000D03*
%TD*%
D14*
%TO.P,D1,1*%
%TO.N,PORT*%
X14351000Y77470000D03*
D15*
%TO.P,D1,2*%
%TO.N,Net-(D1-Pad2)*%
X14351000Y80010000D03*
%TD*%
D14*
%TO.P,D2,1*%
%TO.N,Net-(D2-Pad1)*%
X14351000Y46355000D03*
D15*
%TO.P,D2,2*%
%TO.N,PORT*%
X14351000Y48895000D03*
%TD*%
D10*
%TO.P,J3,1*%
%TO.N,/GP_UP*%
X12192000Y11335000D03*
D11*
%TO.P,J3,2*%
%TO.N,DOWN*%
X14962000Y11335000D03*
%TO.P,J3,3*%
%TO.N,LEFT*%
X17732000Y11335000D03*
%TO.P,J3,4*%
%TO.N,RIGHT*%
X20502000Y11335000D03*
%TO.P,J3,5*%
%TO.N,N/C*%
X23272000Y11335000D03*
%TO.P,J3,6*%
%TO.N,/GP_BTN_1*%
X13577000Y8495000D03*
%TO.P,J3,7*%
%TO.N,VCC*%
X16347000Y8495000D03*
%TO.P,J3,8*%
%TO.N,GND*%
X19117000Y8495000D03*
%TO.P,J3,9*%
%TO.N,/GP_BTN_2*%
X21887000Y8495000D03*
D12*
%TO.P,J3,0*%
%TO.N,N/C*%
X5232000Y9915000D03*
X30232000Y9915000D03*
%TD*%
D16*
%TO.P,JP1,1*%
%TO.N,UP*%
X32766000Y22225000D03*
D17*
%TO.P,JP1,2*%
%TO.N,/GP_UP*%
X35306000Y22225000D03*
%TD*%
D11*
%TO.P,R1,1*%
%TO.N,Net-(R1-Pad1)*%
X20701000Y43180000D03*
D13*
%TO.P,R1,2*%
%TO.N,VCC*%
X30861000Y43180000D03*
%TD*%
D11*
%TO.P,R3,1*%
%TO.N,Net-(D1-Pad2)*%
X12446000Y73025000D03*
D13*
%TO.P,R3,2*%
%TO.N,VCC*%
X12446000Y62865000D03*
%TD*%
D11*
%TO.P,R4,1*%
%TO.N,GND*%
X16256000Y73025000D03*
D13*
%TO.P,R4,2*%
%TO.N,Net-(D2-Pad1)*%
X16256000Y62865000D03*
%TD*%
D18*
%TO.P,SW1,2*%
%TO.N,Net-(R2-Pad1)*%
X39806000Y1905000D03*
%TO.P,SW1,1*%
%TO.N,GND*%
X35306000Y1905000D03*
%TO.P,SW1,2*%
%TO.N,Net-(R2-Pad1)*%
X39806000Y8405000D03*
%TO.P,SW1,1*%
%TO.N,GND*%
X35306000Y8405000D03*
%TD*%
%TO.P,SW2,2*%
%TO.N,Net-(R1-Pad1)*%
X47426000Y1905000D03*
%TO.P,SW2,1*%
%TO.N,GND*%
X42926000Y1905000D03*
%TO.P,SW2,2*%
%TO.N,Net-(R1-Pad1)*%
X47426000Y8405000D03*
%TO.P,SW2,1*%
%TO.N,GND*%
X42926000Y8405000D03*
%TD*%
D10*
%TO.P,U1,1*%
%TO.N,Net-(J1-Pad3)*%
X21971000Y76200000D03*
D13*
%TO.P,U1,9*%
%TO.N,PORT*%
X29591000Y58420000D03*
%TO.P,U1,2*%
%TO.N,Net-(J2-Pad3)*%
X21971000Y73660000D03*
%TO.P,U1,10*%
%TO.N,PORT*%
X29591000Y60960000D03*
%TO.P,U1,3*%
%TO.N,Net-(J1-Pad2)*%
X21971000Y71120000D03*
%TO.P,U1,11*%
%TO.N,PORT*%
X29591000Y63500000D03*
%TO.P,U1,4*%
%TO.N,DOWN*%
X21971000Y68580000D03*
%TO.P,U1,12*%
%TO.N,Net-(J2-Pad4)*%
X29591000Y66040000D03*
%TO.P,U1,5*%
%TO.N,Net-(J2-Pad2)*%
X21971000Y66040000D03*
%TO.P,U1,13*%
%TO.N,Net-(J1-Pad4)*%
X29591000Y68580000D03*
%TO.P,U1,6*%
%TO.N,GND*%
X21971000Y63500000D03*
%TO.P,U1,14*%
%TO.N,RIGHT*%
X29591000Y71120000D03*
%TO.P,U1,7*%
%TO.N,GND*%
X21971000Y60960000D03*
%TO.P,U1,15*%
%TO.N,LEFT*%
X29591000Y73660000D03*
%TO.P,U1,8*%
%TO.N,GND*%
X21971000Y58420000D03*
%TO.P,U1,16*%
%TO.N,VCC*%
X29591000Y76200000D03*
%TD*%
D10*
%TO.P,U2,1*%
%TO.N,Net-(J1-Pad1)*%
X36576000Y76200000D03*
D13*
%TO.P,U2,9*%
%TO.N,PORT*%
X44196000Y58420000D03*
%TO.P,U2,2*%
%TO.N,Net-(J2-Pad1)*%
X36576000Y73660000D03*
%TO.P,U2,10*%
%TO.N,PORT*%
X44196000Y60960000D03*
%TO.P,U2,3*%
%TO.N,Net-(J1-Pad9)*%
X36576000Y71120000D03*
%TO.P,U2,11*%
%TO.N,PORT*%
X44196000Y63500000D03*
%TO.P,U2,4*%
%TO.N,ALT_FIRE*%
X36576000Y68580000D03*
%TO.P,U2,12*%
%TO.N,Net-(J2-Pad6)*%
X44196000Y66040000D03*
%TO.P,U2,5*%
%TO.N,Net-(J2-Pad9)*%
X36576000Y66040000D03*
%TO.P,U2,13*%
%TO.N,Net-(J1-Pad6)*%
X44196000Y68580000D03*
%TO.P,U2,6*%
%TO.N,GND*%
X36576000Y63500000D03*
%TO.P,U2,14*%
%TO.N,Net-(JP2-Pad2)*%
X44196000Y71120000D03*
%TO.P,U2,7*%
%TO.N,GND*%
X36576000Y60960000D03*
%TO.P,U2,15*%
%TO.N,UP*%
X44196000Y73660000D03*
%TO.P,U2,8*%
%TO.N,GND*%
X36576000Y58420000D03*
%TO.P,U2,16*%
%TO.N,VCC*%
X44196000Y76200000D03*
%TD*%
D10*
%TO.P,U3,1*%
%TO.N,GND*%
X36576000Y50800000D03*
D13*
%TO.P,U3,5*%
%TO.N,N/C*%
X44196000Y43180000D03*
%TO.P,U3,2*%
%TO.N,Net-(R2-Pad1)*%
X36576000Y48260000D03*
%TO.P,U3,6*%
%TO.N,GND*%
%TA.AperFunction,ComponentPad*%
G36*
G01*
X43630315Y45154315D02*
X43630315Y45154315D01*
G75*
G02*
X43630315Y46285685I565685J565685D01*
G01*
X43630315Y46285685D01*
G75*
G02*
X44761685Y46285685I565685J-565685D01*
G01*
X44761685Y46285685D01*
G75*
G02*
X44761685Y45154315I-565685J-565685D01*
G01*
X44761685Y45154315D01*
G75*
G02*
X43630315Y45154315I-565685J565685D01*
G01*
G37*
%TD.AperFunction*%
%TO.P,U3,3*%
%TO.N,PORT*%
X36576000Y45720000D03*
%TO.P,U3,7*%
%TO.N,N/C*%
X44196000Y48260000D03*
%TO.P,U3,4*%
%TO.N,Net-(R1-Pad1)*%
X36576000Y43180000D03*
%TO.P,U3,8*%
%TO.N,VCC*%
X44196000Y50800000D03*
%TD*%
D11*
%TO.P,C1,1*%
%TO.N,VCC*%
X28321000Y80010000D03*
%TO.P,C1,2*%
%TO.N,GND*%
X23321000Y80010000D03*
%TD*%
%TO.P,C2,1*%
%TO.N,VCC*%
X42926000Y80010000D03*
%TO.P,C2,2*%
%TO.N,GND*%
X37926000Y80010000D03*
%TD*%
%TO.P,C3,1*%
%TO.N,VCC*%
X42926000Y54610000D03*
%TO.P,C3,2*%
%TO.N,GND*%
X37926000Y54610000D03*
%TD*%
D19*
%TO.P,Q1,2*%
%TO.N,Net-(Q1-Pad2)*%
X14351000Y55245000D03*
%TO.P,Q1,3*%
%TO.N,GND*%
X14351000Y57785000D03*
D20*
%TO.P,Q1,1*%
%TO.N,ALT_FIRE*%
X14351000Y52705000D03*
%TD*%
D11*
%TO.P,R5,1*%
%TO.N,ALT_FIRE*%
X20701000Y50800000D03*
D13*
%TO.P,R5,2*%
%TO.N,VCC*%
X30861000Y50800000D03*
%TD*%
D11*
%TO.P,R6,1*%
%TO.N,ALT_FIRE*%
X20701000Y54610000D03*
D13*
%TO.P,R6,2*%
%TO.N,Net-(Q1-Pad2)*%
X30861000Y54610000D03*
%TD*%
D11*
%TO.P,R7,1*%
%TO.N,Net-(J4-Pad6)*%
X20701000Y46990000D03*
D13*
%TO.P,R7,2*%
%TO.N,Net-(Q1-Pad2)*%
X30861000Y46990000D03*
%TD*%
D16*
%TO.P,J4,1*%
%TO.N,/GP_BTN_2*%
X24511000Y22225000D03*
D17*
%TO.P,J4,2*%
%TO.N,UP*%
X27051000Y22225000D03*
%TO.P,J4,3*%
%TO.N,/GP_BTN_2*%
X24511000Y19685000D03*
%TO.P,J4,4*%
%TO.N,FIRE*%
X27051000Y19685000D03*
%TO.P,J4,5*%
%TO.N,/GP_BTN_2*%
X24511000Y17145000D03*
%TO.P,J4,6*%
%TO.N,Net-(J4-Pad6)*%
X27051000Y17145000D03*
%TD*%
D16*
%TO.P,J5,1*%
%TO.N,/GP_BTN_1*%
X16256000Y22225000D03*
D17*
%TO.P,J5,2*%
%TO.N,UP*%
X18796000Y22225000D03*
%TO.P,J5,3*%
%TO.N,/GP_BTN_1*%
X16256000Y19685000D03*
%TO.P,J5,4*%
%TO.N,FIRE*%
X18796000Y19685000D03*
%TO.P,J5,5*%
%TO.N,/GP_BTN_1*%
X16256000Y17145000D03*
%TO.P,J5,6*%
%TO.N,Net-(J4-Pad6)*%
X18796000Y17145000D03*
%TD*%
D11*
%TO.P,R9,1*%
%TO.N,Net-(C5-Pad1)*%
X13081000Y34925000D03*
D13*
%TO.P,R9,2*%
%TO.N,Net-(R9-Pad2)*%
X23241000Y34925000D03*
%TD*%
D21*
%TO.P,RV1,2*%
%TO.N,Net-(R9-Pad2)*%
X29551000Y34250000D03*
%TO.P,RV1,3*%
%TO.N,VCC*%
X32051000Y29210000D03*
%TO.P,RV1,1*%
%TO.N,N/C*%
X27051000Y29210000D03*
%TD*%
D10*
%TO.P,U4,1*%
%TO.N,FIRE*%
X36576000Y35560000D03*
D13*
%TO.P,U4,5*%
%TO.N,N/C*%
X44196000Y27940000D03*
%TO.P,U4,2*%
%TO.N,Net-(C5-Pad1)*%
X36576000Y33020000D03*
%TO.P,U4,6*%
X44196000Y30480000D03*
%TO.P,U4,3*%
%TO.N,AUTOFIRE*%
X36576000Y30480000D03*
%TO.P,U4,7*%
%TO.N,Net-(R9-Pad2)*%
X44196000Y33020000D03*
%TO.P,U4,4*%
%TO.N,VCC*%
X36576000Y27940000D03*
%TO.P,U4,8*%
X44196000Y35560000D03*
%TD*%
D11*
%TO.P,C4,1*%
%TO.N,VCC*%
X42926000Y39370000D03*
%TO.P,C4,2*%
%TO.N,GND*%
X37926000Y39370000D03*
%TD*%
D10*
%TO.P,C5,1*%
%TO.N,Net-(C5-Pad1)*%
X14351000Y38735000D03*
D11*
%TO.P,C5,2*%
%TO.N,GND*%
X14351000Y41235000D03*
%TD*%
D16*
%TO.P,JP2,1*%
%TO.N,AUTOFIRE*%
X14986000Y29210000D03*
D17*
%TO.P,JP2,2*%
%TO.N,Net-(JP2-Pad2)*%
X17526000Y29210000D03*
%TO.P,JP2,3*%
%TO.N,FIRE*%
X20066000Y29210000D03*
%TD*%
D22*
%TO.N,PORT*%
X25756000Y48575000D03*
X3356000Y58375000D03*
X28656000Y45675000D03*
%TO.N,VCC*%
X45956000Y54610000D03*
X35256000Y53575000D03*
%TO.N,DOWN*%
X19056000Y25275000D03*
X38656000Y43275000D03*
X39756000Y69850000D03*
%TO.N,LEFT*%
X40356000Y24875000D03*
X40656000Y43275000D03*
X40556000Y72390000D03*
%TO.N,RIGHT*%
X42256000Y24875000D03*
X41656000Y44450000D03*
X42456000Y72390000D03*
%TO.N,UP*%
X39656000Y44450000D03*
%TO.N,Net-(J1-Pad9)*%
X33556000Y71120000D03*
X11506000Y42725000D03*
X32656000Y58275000D03*
%TO.N,Net-(J2-Pad9)*%
X14456000Y67310000D03*
%TO.N,ALT_FIRE*%
X33756000Y67310000D03*
X31956000Y56775000D03*
%TO.N,Net-(R1-Pad1)*%
X46256000Y40275000D03*
X25756000Y45075000D03*
%TO.N,Net-(R2-Pad1)*%
X46256000Y49530000D03*
X32356000Y48075000D03*
%TO.N,Net-(J1-Pad1)*%
X38656000Y56875000D03*
%TO.N,Net-(J1-Pad2)*%
X31956000Y72390000D03*
X31356000Y59690000D03*
%TO.N,Net-(J1-Pad3)*%
X24656000Y58420000D03*
%TO.N,Net-(J1-Pad4)*%
X27686000Y59690000D03*
%TO.N,Net-(J1-Pad6)*%
X42656000Y56875000D03*
%TO.N,Net-(J2-Pad1)*%
X37956000Y62230000D03*
%TO.N,Net-(J2-Pad4)*%
X31956000Y74930000D03*
%TO.N,/GP_UP*%
X35306000Y13275000D03*
%TO.N,Net-(C5-Pad1)*%
X32766000Y33020000D03*
%TO.N,Net-(JP2-Pad2)*%
X47056000Y71120000D03*
%TD*%
D23*
%TO.N,PORT*%
X14351000Y48895000D02*
X17636000Y48895000D01*
X17956000Y48575000D02*
X17636000Y48895000D01*
X25756000Y48575000D02*
X17956000Y48575000D01*
X28656000Y47875000D02*
X27956000Y48575000D01*
X28656000Y45675000D02*
X28656000Y47875000D01*
X27956000Y48575000D02*
X25756000Y48575000D01*
X33971000Y60960000D02*
X29591000Y60960000D01*
X35241000Y59690000D02*
X33971000Y60960000D01*
X42926000Y59690000D02*
X35241000Y59690000D01*
X44196000Y60960000D02*
X42926000Y59690000D01*
X11938000Y75057000D02*
X14351000Y77470000D01*
X1856000Y72976000D02*
X3937000Y75057000D01*
X1856000Y59875000D02*
X1856000Y72976000D01*
X3937000Y75057000D02*
X11938000Y75057000D01*
X3356000Y58375000D02*
X1856000Y59875000D01*
D24*
%TO.N,Net-(D1-Pad2)*%
X14006000Y73025000D02*
X12446000Y73025000D01*
X16356000Y75375000D02*
X14006000Y73025000D01*
X15921000Y80010000D02*
X16356000Y79575000D01*
X16356000Y79575000D02*
X16356000Y75375000D01*
X14351000Y80010000D02*
X15921000Y80010000D01*
%TO.N,VCC*%
X2656000Y33930000D02*
X2656000Y15475000D01*
D25*
X42926000Y36830000D02*
X44196000Y35560000D01*
X42926000Y39370000D02*
X42926000Y36830000D01*
D24*
X45956000Y54610000D02*
X42926000Y54610000D01*
X2656000Y33930000D02*
X5116000Y33930000D01*
X7656000Y14675000D02*
X9256000Y13075000D01*
X9256000Y13075000D02*
X9256000Y7775000D01*
X9256000Y7775000D02*
X10756000Y6275000D01*
X10756000Y6275000D02*
X15856000Y6275000D01*
X16347000Y6766000D02*
X16347000Y8495000D01*
X15856000Y6275000D02*
X16347000Y6766000D01*
X3456000Y14675000D02*
X2656000Y15475000D01*
X7656000Y14675000D02*
X3456000Y14675000D01*
X2656000Y65130000D02*
X5116000Y65130000D01*
D25*
X42926000Y77470000D02*
X44196000Y76200000D01*
X42926000Y80010000D02*
X42926000Y77470000D01*
X28321000Y77470000D02*
X29591000Y76200000D01*
X28321000Y80010000D02*
X28321000Y77470000D01*
D24*
X28321000Y80010000D02*
X31721000Y80010000D01*
X31721000Y80010000D02*
X33456000Y78275000D01*
X33456000Y78275000D02*
X39356000Y78275000D01*
X41091000Y80010000D02*
X42926000Y80010000D01*
X39356000Y78275000D02*
X41091000Y80010000D01*
X2656000Y61875000D02*
X2656000Y65130000D01*
X4856000Y59675000D02*
X2656000Y61875000D01*
X4856000Y57175000D02*
X4856000Y59675000D01*
X2656000Y54975000D02*
X4856000Y57175000D01*
X2656000Y33930000D02*
X2656000Y54975000D01*
X26491000Y80010000D02*
X28321000Y80010000D01*
X24656000Y78175000D02*
X26491000Y80010000D01*
X19556000Y78175000D02*
X24656000Y78175000D01*
X2656000Y65130000D02*
X2656000Y72475000D01*
X18006000Y76625000D02*
X18006000Y71525000D01*
X18006000Y76625000D02*
X19556000Y78175000D01*
X18006000Y71525000D02*
X17256000Y70775000D01*
X17256000Y70775000D02*
X10956000Y70775000D01*
X10956000Y70775000D02*
X9956000Y71775000D01*
X9956000Y71775000D02*
X9956000Y73375000D01*
X9156000Y74175000D02*
X4356000Y74175000D01*
X9956000Y73375000D02*
X9156000Y74175000D01*
X2656000Y72475000D02*
X4356000Y74175000D01*
X44821000Y80010000D02*
X42926000Y80010000D01*
X45956000Y78875000D02*
X44821000Y80010000D01*
X45956000Y54610000D02*
X45956000Y78875000D01*
X45956000Y52975000D02*
X45956000Y54610000D01*
X47556000Y51375000D02*
X45956000Y52975000D01*
X47556000Y39375000D02*
X47556000Y51375000D01*
X46856000Y38675000D02*
X47556000Y39375000D01*
X45456000Y38675000D02*
X46856000Y38675000D01*
X44761000Y39370000D02*
X45456000Y38675000D01*
X42926000Y39370000D02*
X44761000Y39370000D01*
X39356000Y52875000D02*
X41091000Y54610000D01*
X37056000Y52875000D02*
X39356000Y52875000D01*
X41091000Y54610000D02*
X42926000Y54610000D01*
X36356000Y53575000D02*
X37056000Y52875000D01*
X35256000Y53575000D02*
X36356000Y53575000D01*
D25*
X42926000Y52070000D02*
X44196000Y50800000D01*
X42926000Y54610000D02*
X42926000Y52070000D01*
D24*
X30861000Y43180000D02*
X30861000Y39370000D01*
D23*
X10181000Y65130000D02*
X12446000Y62865000D01*
X5116000Y65130000D02*
X10181000Y65130000D01*
%TO.N,DOWN*%
X23241000Y69850000D02*
X21971000Y68580000D01*
X39756000Y69850000D02*
X23241000Y69850000D01*
X39456000Y27475000D02*
X37256000Y25275000D01*
X37256000Y25275000D02*
X19056000Y25275000D01*
X39456000Y40175000D02*
X39456000Y27475000D01*
X38656000Y40975000D02*
X39456000Y40175000D01*
X38656000Y43275000D02*
X38656000Y40975000D01*
%TO.N,LEFT*%
X40656000Y38175000D02*
X40656000Y43275000D01*
X40656000Y26775000D02*
X40656000Y38175000D01*
X40356000Y26475000D02*
X40656000Y26775000D01*
X40356000Y24875000D02*
X40356000Y26475000D01*
X32941000Y73660000D02*
X29591000Y73660000D01*
X34211000Y74930000D02*
X32941000Y73660000D01*
X38016000Y74930000D02*
X40556000Y72390000D01*
X34211000Y74930000D02*
X38016000Y74930000D01*
%TO.N,RIGHT*%
X32101000Y71120000D02*
X29591000Y71120000D01*
X33371000Y72390000D02*
X32101000Y71120000D01*
X42256000Y25775000D02*
X42256000Y24875000D01*
X41256000Y26775000D02*
X42256000Y25775000D01*
X41256000Y40775000D02*
X41256000Y26775000D01*
X41656000Y41175000D02*
X41256000Y40775000D01*
X41656000Y44450000D02*
X41656000Y41175000D01*
X38786000Y71175000D02*
X37571000Y72390000D01*
X37571000Y72390000D02*
X33371000Y72390000D01*
X41241000Y71175000D02*
X42456000Y72390000D01*
X38786000Y71175000D02*
X41241000Y71175000D01*
%TO.N,UP*%
X18796000Y22225000D02*
X20066000Y20955000D01*
X25781000Y20955000D02*
X27051000Y22225000D01*
X20066000Y20955000D02*
X25781000Y20955000D01*
X40056000Y27075000D02*
X37656000Y24675000D01*
X40056000Y40575000D02*
X40056000Y27075000D01*
X39656000Y40975000D02*
X40056000Y40575000D01*
X39656000Y44450000D02*
X39656000Y40975000D01*
X37656000Y24675000D02*
X33438000Y24675000D01*
X32766000Y24003000D02*
X32766000Y22225000D01*
X33438000Y24675000D02*
X32766000Y24003000D01*
%TO.N,FIRE*%
X18796000Y19685000D02*
X20066000Y18415000D01*
X25781000Y18415000D02*
X27051000Y19685000D01*
X20066000Y18415000D02*
X25781000Y18415000D01*
X17526000Y20955000D02*
X18796000Y19685000D01*
X25681000Y25975000D02*
X24568500Y27087500D01*
X37006000Y25975000D02*
X25681000Y25975000D01*
X38656000Y27625000D02*
X37006000Y25975000D01*
X38656000Y35175000D02*
X38656000Y27625000D01*
X17526000Y26670000D02*
X17526000Y20955000D01*
X38271000Y35560000D02*
X38656000Y35175000D01*
X17943500Y27087500D02*
X17526000Y26670000D01*
X36576000Y35560000D02*
X38271000Y35560000D01*
X20066000Y29210000D02*
X20066000Y27087500D01*
X24568500Y27087500D02*
X20066000Y27087500D01*
X20066000Y27087500D02*
X17943500Y27087500D01*
%TO.N,Net-(J1-Pad9)*%
X36576000Y71120000D02*
X33556000Y71120000D01*
X11506000Y55115000D02*
X11506000Y42725000D01*
X12906000Y56515000D02*
X11506000Y55115000D01*
X25886000Y57075000D02*
X25326000Y56515000D01*
X25326000Y56515000D02*
X12906000Y56515000D01*
X30456000Y57075000D02*
X25886000Y57075000D01*
X31656000Y58275000D02*
X30456000Y57075000D01*
X32656000Y58275000D02*
X31656000Y58275000D01*
%TO.N,Net-(J2-Pad9)*%
X32131000Y66040000D02*
X36576000Y66040000D01*
X32131000Y66040000D02*
X30861000Y67310000D01*
X30861000Y67310000D02*
X14456000Y67310000D01*
%TO.N,Net-(J4-Pad6)*%
X21336000Y46990000D02*
X20701000Y46990000D01*
X18796000Y17145000D02*
X20066000Y15875000D01*
X25781000Y15875000D02*
X27051000Y17145000D01*
X20066000Y15875000D02*
X25781000Y15875000D01*
%TO.N,Net-(Q1-Pad2)*%
X16956000Y50975000D02*
X13106000Y50975000D01*
X13106000Y50975000D02*
X12456000Y51625000D01*
X12456000Y51625000D02*
X12456000Y54825000D01*
X12876000Y55245000D02*
X14351000Y55245000D01*
X12456000Y54825000D02*
X12876000Y55245000D01*
X29256000Y49575000D02*
X24056000Y49575000D01*
X29256000Y53005000D02*
X30861000Y54610000D01*
X29256000Y49575000D02*
X29256000Y53005000D01*
X16956000Y50975000D02*
X18756000Y49175000D01*
X23656000Y49175000D02*
X24056000Y49575000D01*
X18756000Y49175000D02*
X23656000Y49175000D01*
X29256000Y48595000D02*
X30861000Y46990000D01*
X29256000Y49575000D02*
X29256000Y48595000D01*
D24*
%TO.N,ALT_FIRE*%
X20701000Y54610000D02*
X20701000Y50800000D01*
X17038500Y52705000D02*
X14351000Y52705000D01*
X18943500Y54610000D02*
X17038500Y52705000D01*
X20701000Y54610000D02*
X18943500Y54610000D01*
D23*
X34036000Y68580000D02*
X36576000Y68580000D01*
X33756000Y68300000D02*
X33756000Y67310000D01*
X34036000Y68580000D02*
X33756000Y68300000D01*
X24491000Y54610000D02*
X20701000Y54610000D01*
X26256000Y56375000D02*
X24491000Y54610000D01*
X30856000Y56375000D02*
X26256000Y56375000D01*
X31256000Y56775000D02*
X30856000Y56375000D01*
X31956000Y56775000D02*
X31256000Y56775000D01*
D26*
%TO.N,Net-(R1-Pad1)*%
X47426000Y1905000D02*
X47426000Y8405000D01*
D24*
X23861000Y43180000D02*
X25756000Y45075000D01*
X20701000Y43180000D02*
X23861000Y43180000D01*
D23*
X37956000Y44560000D02*
X36576000Y43180000D01*
X39071000Y46990000D02*
X37956000Y45875000D01*
X45541000Y46990000D02*
X39071000Y46990000D01*
X37956000Y45875000D02*
X37956000Y44560000D01*
X46256000Y46275000D02*
X45541000Y46990000D01*
X46256000Y40275000D02*
X46256000Y46275000D01*
%TO.N,Net-(R2-Pad1)*%
X36576000Y48260000D02*
X37846000Y48260000D01*
X39116000Y49530000D02*
X46256000Y49530000D01*
X37846000Y48260000D02*
X39116000Y49530000D01*
X39751000Y8460000D02*
X39806000Y8405000D01*
D26*
X39806000Y1905000D02*
X39806000Y8405000D01*
D23*
X32356000Y47175000D02*
X32356000Y48075000D01*
X32766000Y46765000D02*
X32356000Y47175000D01*
X32766000Y38385000D02*
X32766000Y46765000D01*
X32481000Y38100000D02*
X32766000Y38385000D01*
X24531000Y38100000D02*
X32481000Y38100000D01*
X23261000Y39370000D02*
X24531000Y38100000D01*
X20701000Y39370000D02*
X23261000Y39370000D01*
%TO.N,Net-(J1-Pad1)*%
X11176000Y31750000D02*
X9201000Y29775000D01*
X34671000Y32390000D02*
X34031000Y31750000D01*
X34671000Y50560000D02*
X34671000Y32390000D01*
X9201000Y29775000D02*
X7956000Y29775000D01*
X34156000Y51075000D02*
X34671000Y50560000D01*
X34031000Y31750000D02*
X11176000Y31750000D01*
X35256000Y56075000D02*
X34156000Y54975000D01*
X34156000Y54975000D02*
X34156000Y51075000D01*
X37856000Y56075000D02*
X35256000Y56075000D01*
X38656000Y56875000D02*
X37856000Y56075000D01*
%TO.N,Net-(J1-Pad2)*%
X21971000Y71120000D02*
X23241000Y72390000D01*
X31956000Y72390000D02*
X23241000Y72390000D01*
X10356000Y34945000D02*
X7956000Y32545000D01*
X34356000Y57075000D02*
X32956000Y55675000D01*
X32946000Y37465000D02*
X17146000Y37465000D01*
X32956000Y55675000D02*
X32956000Y50475000D01*
X11756000Y36875000D02*
X10356000Y35475000D01*
X32956000Y50475000D02*
X33401000Y50030000D01*
X17146000Y37465000D02*
X16556000Y36875000D01*
X33401000Y50030000D02*
X33401000Y37920000D01*
X33401000Y37920000D02*
X32946000Y37465000D01*
X16556000Y36875000D02*
X11756000Y36875000D01*
X10356000Y35475000D02*
X10356000Y34945000D01*
X34356000Y57075000D02*
X34356000Y58975000D01*
X33641000Y59690000D02*
X31356000Y59690000D01*
X34356000Y58975000D02*
X33641000Y59690000D01*
%TO.N,Net-(J1-Pad3)*%
X23311000Y57075000D02*
X24656000Y58420000D01*
X18106000Y59175000D02*
X20206000Y57075000D01*
X11566000Y59175000D02*
X18106000Y59175000D01*
X10306000Y57915000D02*
X11566000Y59175000D01*
X20206000Y57075000D02*
X23311000Y57075000D01*
X10306000Y36425000D02*
X10306000Y57915000D01*
X9196000Y35315000D02*
X10306000Y36425000D01*
X7956000Y35315000D02*
X9196000Y35315000D01*
%TO.N,Net-(J1-Pad4)*%
X9256000Y38085000D02*
X7956000Y38085000D01*
X9756000Y38585000D02*
X9256000Y38085000D01*
X9756000Y58275000D02*
X9756000Y38585000D01*
X11171000Y59690000D02*
X9756000Y58275000D01*
X27686000Y59690000D02*
X11171000Y59690000D01*
%TO.N,Net-(J1-Pad6)*%
X9496000Y31115000D02*
X5161000Y31115000D01*
X10956000Y32575000D02*
X9496000Y31115000D01*
X10956000Y35175000D02*
X10956000Y32575000D01*
X42656000Y56875000D02*
X41656000Y57875000D01*
X41656000Y57875000D02*
X38156000Y57875000D01*
X38156000Y57875000D02*
X36956000Y56675000D01*
X33556000Y55275000D02*
X33556000Y50775000D01*
X36956000Y56675000D02*
X34956000Y56675000D01*
X16846000Y36275000D02*
X12056000Y36275000D01*
X34956000Y56675000D02*
X33556000Y55275000D01*
X33556000Y50775000D02*
X34036000Y50295000D01*
X34036000Y50295000D02*
X34036000Y37255000D01*
X34036000Y37255000D02*
X33611000Y36830000D01*
X33611000Y36830000D02*
X17401000Y36830000D01*
X17401000Y36830000D02*
X16846000Y36275000D01*
X12056000Y36275000D02*
X10956000Y35175000D01*
%TO.N,Net-(J2-Pad1)*%
X9256000Y60975000D02*
X7956000Y60975000D01*
X18041000Y60205000D02*
X10026000Y60205000D01*
X10026000Y60205000D02*
X9256000Y60975000D01*
X20066000Y62230000D02*
X18041000Y60205000D01*
X37956000Y62230000D02*
X20066000Y62230000D01*
%TO.N,Net-(J2-Pad2)*%
X11666000Y61235000D02*
X9156000Y63745000D01*
X9156000Y63745000D02*
X7956000Y63745000D01*
X13356000Y61235000D02*
X11666000Y61235000D01*
X14351000Y62230000D02*
X13356000Y61235000D01*
X14351000Y65405000D02*
X14351000Y62230000D01*
X14986000Y66040000D02*
X14351000Y65405000D01*
X21971000Y66040000D02*
X14986000Y66040000D01*
%TO.N,Net-(J2-Pad3)*%
X17756000Y68575000D02*
X10016000Y68575000D01*
X10016000Y68575000D02*
X7956000Y66515000D01*
X19856000Y70675000D02*
X17756000Y68575000D01*
X19856000Y72975000D02*
X19856000Y70675000D01*
X20541000Y73660000D02*
X19856000Y72975000D01*
X21971000Y73660000D02*
X20541000Y73660000D01*
%TO.N,Net-(J2-Pad4)*%
X17266000Y69285000D02*
X7956000Y69285000D01*
X19056000Y71075000D02*
X17266000Y69285000D01*
X20411000Y74930000D02*
X19056000Y73575000D01*
X31956000Y74930000D02*
X20411000Y74930000D01*
X19056000Y73575000D02*
X19056000Y71075000D01*
%TO.N,Net-(J2-Pad6)*%
X9649000Y62360000D02*
X5116000Y62360000D01*
X17001000Y60720000D02*
X11289000Y60720000D01*
X11289000Y60720000D02*
X9649000Y62360000D01*
X21051000Y64770000D02*
X17001000Y60720000D01*
X42926000Y64770000D02*
X21051000Y64770000D01*
X44196000Y66040000D02*
X42926000Y64770000D01*
D27*
%TO.N,/GP_UP*%
X12192000Y12811000D02*
X12192000Y11335000D01*
X12656000Y13275000D02*
X12192000Y12811000D01*
X35306000Y13275000D02*
X12656000Y13275000D01*
D23*
%TO.N,AUTOFIRE*%
X34036000Y30480000D02*
X36576000Y30480000D01*
X33401000Y31115000D02*
X34036000Y30480000D01*
X16891000Y31115000D02*
X14986000Y29210000D01*
X33401000Y31115000D02*
X16891000Y31115000D01*
%TO.N,Net-(C5-Pad1)*%
X14351000Y38735000D02*
X14351000Y38100000D01*
X19306000Y34925000D02*
X13081000Y34925000D01*
X20576000Y36195000D02*
X19306000Y34925000D01*
X32436000Y36195000D02*
X20576000Y36195000D01*
X32766000Y35865000D02*
X32436000Y36195000D01*
X32766000Y33020000D02*
X32766000Y35865000D01*
%TO.N,Net-(JP2-Pad2)*%
X47056000Y55875000D02*
X47056000Y71120000D01*
X48356000Y54575000D02*
X47056000Y55875000D01*
X47356000Y14875000D02*
X48356000Y15875000D01*
X48356000Y15875000D02*
X48356000Y54575000D01*
X14462000Y14875000D02*
X47356000Y14875000D01*
X13589000Y15748000D02*
X14462000Y14875000D01*
X13589000Y25273000D02*
X13589000Y15748000D01*
X17526000Y29210000D02*
X13589000Y25273000D01*
D24*
%TO.N,Net-(R9-Pad2)*%
X29551000Y34250000D02*
X26581000Y34250000D01*
X25906000Y34925000D02*
X23241000Y34925000D01*
X26581000Y34250000D02*
X25906000Y34925000D01*
%TD*%
M02*
