%TF.GenerationSoftware,KiCad,Pcbnew,5.1.12-84ad8e8a86~92~ubuntu20.04.1*%
%TF.CreationDate,2021-11-27T12:58:46+01:00*%
%TF.ProjectId,C64 Joystick Switcher,43363420-4a6f-4797-9374-69636b205377,rev?*%
%TF.SameCoordinates,PX5d80860PY70086b8*%
%TF.FileFunction,Legend,Bot*%
%TF.FilePolarity,Positive*%
%FSLAX46Y46*%
G04 Gerber Fmt 4.6, Leading zero omitted, Abs format (unit mm)*
G04 Created by KiCad (PCBNEW 5.1.12-84ad8e8a86~92~ubuntu20.04.1) date 2021-11-27 12:58:46*
%MOMM*%
%LPD*%
G01*
G04 APERTURE LIST*
%ADD10C,0.200000*%
%ADD11C,0.150000*%
%ADD12C,0.100000*%
%ADD13R,1.600000X1.600000*%
%ADD14C,1.600000*%
%ADD15C,4.800000*%
%ADD16O,1.600000X1.600000*%
%ADD17R,1.800000X1.800000*%
%ADD18C,1.800000*%
%ADD19R,1.700000X1.700000*%
%ADD20O,1.700000X1.700000*%
%ADD21C,2.000000*%
%ADD22C,1.520000*%
%ADD23R,1.520000X1.520000*%
%ADD24C,2.500000*%
G04 APERTURE END LIST*
D10*
X32766000Y23495000D02*
X32766000Y23215000D01*
X35306000Y23495000D02*
X32766000Y23495000D01*
X35306000Y23215000D02*
X35306000Y23495000D01*
X27051000Y20955000D02*
X27051000Y20675000D01*
X24511000Y20955000D02*
X27051000Y20955000D01*
X24511000Y20675000D02*
X24511000Y20955000D01*
X18796000Y18415000D02*
X18796000Y18135000D01*
X16256000Y18415000D02*
X18796000Y18415000D01*
X16256000Y18135000D02*
X16256000Y18415000D01*
D11*
X18779809Y31948429D02*
X18446476Y31948429D01*
X18303619Y31424620D02*
X18779809Y31424620D01*
X18779809Y32424620D01*
X18303619Y32424620D01*
X17875047Y31424620D02*
X17875047Y32424620D01*
X17303619Y31424620D01*
X17303619Y32424620D01*
X16875047Y31710334D02*
X16398857Y31710334D01*
X16970285Y31424620D02*
X16636952Y32424620D01*
X16303619Y31424620D01*
X15636952Y31948429D02*
X15494095Y31900810D01*
X15446476Y31853191D01*
X15398857Y31757953D01*
X15398857Y31615096D01*
X15446476Y31519858D01*
X15494095Y31472239D01*
X15589333Y31424620D01*
X15970285Y31424620D01*
X15970285Y32424620D01*
X15636952Y32424620D01*
X15541714Y32377000D01*
X15494095Y32329381D01*
X15446476Y32234143D01*
X15446476Y32138905D01*
X15494095Y32043667D01*
X15541714Y31996048D01*
X15636952Y31948429D01*
X15970285Y31948429D01*
X14494095Y31424620D02*
X14970285Y31424620D01*
X14970285Y32424620D01*
X14160761Y31948429D02*
X13827428Y31948429D01*
X13684571Y31424620D02*
X14160761Y31424620D01*
X14160761Y32424620D01*
X13684571Y32424620D01*
D10*
X21971000Y31115000D02*
X21971000Y27305000D01*
X18161000Y31115000D02*
X21971000Y31115000D01*
X13081000Y31115000D02*
X14351000Y31115000D01*
X17526000Y31115000D02*
X17526000Y30200000D01*
X14986000Y31115000D02*
X17526000Y31115000D01*
X14986000Y30200000D02*
X14986000Y31115000D01*
X13081000Y27305000D02*
X13081000Y31115000D01*
X21971000Y27305000D02*
X13081000Y27305000D01*
X20066000Y17145000D02*
X22606000Y17145000D01*
X20701000Y19685000D02*
X22606000Y19685000D01*
X20701000Y22225000D02*
X22606000Y22225000D01*
X28956000Y22225000D02*
X30861000Y22225000D01*
X13081000Y13970000D02*
X48641000Y13970000D01*
X13081000Y26670000D02*
X13081000Y13970000D01*
X48641000Y26670000D02*
X13081000Y26670000D01*
X48641000Y13970000D02*
X48641000Y26670000D01*
D11*
X46290523Y18342620D02*
X46290523Y19342620D01*
X46052428Y19342620D01*
X45909571Y19295000D01*
X45814333Y19199762D01*
X45766714Y19104524D01*
X45719095Y18914048D01*
X45719095Y18771191D01*
X45766714Y18580715D01*
X45814333Y18485477D01*
X45909571Y18390239D01*
X46052428Y18342620D01*
X46290523Y18342620D01*
X45147666Y18342620D02*
X45242904Y18390239D01*
X45290523Y18437858D01*
X45338142Y18533096D01*
X45338142Y18818810D01*
X45290523Y18914048D01*
X45242904Y18961667D01*
X45147666Y19009286D01*
X45004809Y19009286D01*
X44909571Y18961667D01*
X44861952Y18914048D01*
X44814333Y18818810D01*
X44814333Y18533096D01*
X44861952Y18437858D01*
X44909571Y18390239D01*
X45004809Y18342620D01*
X45147666Y18342620D01*
X43623857Y18342620D02*
X43623857Y19342620D01*
X43052428Y18342620D01*
X43052428Y19342620D01*
X42385761Y19342620D02*
X42195285Y19342620D01*
X42100047Y19295000D01*
X42004809Y19199762D01*
X41957190Y19009286D01*
X41957190Y18675953D01*
X42004809Y18485477D01*
X42100047Y18390239D01*
X42195285Y18342620D01*
X42385761Y18342620D01*
X42481000Y18390239D01*
X42576238Y18485477D01*
X42623857Y18675953D01*
X42623857Y19009286D01*
X42576238Y19199762D01*
X42481000Y19295000D01*
X42385761Y19342620D01*
X41671476Y19342620D02*
X41100047Y19342620D01*
X41385761Y18342620D02*
X41385761Y19342620D01*
X39576238Y18390239D02*
X39671476Y18342620D01*
X39861952Y18342620D01*
X39957190Y18390239D01*
X40004809Y18437858D01*
X40052428Y18533096D01*
X40052428Y18818810D01*
X40004809Y18914048D01*
X39957190Y18961667D01*
X39861952Y19009286D01*
X39671476Y19009286D01*
X39576238Y18961667D01*
X39147666Y18342620D02*
X39147666Y19342620D01*
X38719095Y18342620D02*
X38719095Y18866429D01*
X38766714Y18961667D01*
X38861952Y19009286D01*
X39004809Y19009286D01*
X39100047Y18961667D01*
X39147666Y18914048D01*
X37814333Y18342620D02*
X37814333Y18866429D01*
X37861952Y18961667D01*
X37957190Y19009286D01*
X38147666Y19009286D01*
X38242904Y18961667D01*
X37814333Y18390239D02*
X37909571Y18342620D01*
X38147666Y18342620D01*
X38242904Y18390239D01*
X38290523Y18485477D01*
X38290523Y18580715D01*
X38242904Y18675953D01*
X38147666Y18723572D01*
X37909571Y18723572D01*
X37814333Y18771191D01*
X37338142Y19009286D02*
X37338142Y18342620D01*
X37338142Y18914048D02*
X37290523Y18961667D01*
X37195285Y19009286D01*
X37052428Y19009286D01*
X36957190Y18961667D01*
X36909571Y18866429D01*
X36909571Y18342620D01*
X36004809Y19009286D02*
X36004809Y18199762D01*
X36052428Y18104524D01*
X36100047Y18056905D01*
X36195285Y18009286D01*
X36338142Y18009286D01*
X36433380Y18056905D01*
X36004809Y18390239D02*
X36100047Y18342620D01*
X36290523Y18342620D01*
X36385761Y18390239D01*
X36433380Y18437858D01*
X36481000Y18533096D01*
X36481000Y18818810D01*
X36433380Y18914048D01*
X36385761Y18961667D01*
X36290523Y19009286D01*
X36100047Y19009286D01*
X36004809Y18961667D01*
X35147666Y18390239D02*
X35242904Y18342620D01*
X35433380Y18342620D01*
X35528619Y18390239D01*
X35576238Y18485477D01*
X35576238Y18866429D01*
X35528619Y18961667D01*
X35433380Y19009286D01*
X35242904Y19009286D01*
X35147666Y18961667D01*
X35100047Y18866429D01*
X35100047Y18771191D01*
X35576238Y18675953D01*
X34004809Y19009286D02*
X33814333Y18342620D01*
X33623857Y18818810D01*
X33433380Y18342620D01*
X33242904Y19009286D01*
X32861952Y18342620D02*
X32861952Y19342620D01*
X32433380Y18342620D02*
X32433380Y18866429D01*
X32481000Y18961667D01*
X32576238Y19009286D01*
X32719095Y19009286D01*
X32814333Y18961667D01*
X32861952Y18914048D01*
X31576238Y18390239D02*
X31671476Y18342620D01*
X31861952Y18342620D01*
X31957190Y18390239D01*
X32004809Y18485477D01*
X32004809Y18866429D01*
X31957190Y18961667D01*
X31861952Y19009286D01*
X31671476Y19009286D01*
X31576238Y18961667D01*
X31528619Y18866429D01*
X31528619Y18771191D01*
X32004809Y18675953D01*
X31100047Y19009286D02*
X31100047Y18342620D01*
X31100047Y18914048D02*
X31052428Y18961667D01*
X30957190Y19009286D01*
X30814333Y19009286D01*
X30719095Y18961667D01*
X30671476Y18866429D01*
X30671476Y18342620D01*
X47314333Y17359286D02*
X47314333Y16359286D01*
X47314333Y17311667D02*
X47219095Y17359286D01*
X47028619Y17359286D01*
X46933380Y17311667D01*
X46885761Y17264048D01*
X46838142Y17168810D01*
X46838142Y16883096D01*
X46885761Y16787858D01*
X46933380Y16740239D01*
X47028619Y16692620D01*
X47219095Y16692620D01*
X47314333Y16740239D01*
X46266714Y16692620D02*
X46361952Y16740239D01*
X46409571Y16787858D01*
X46457190Y16883096D01*
X46457190Y17168810D01*
X46409571Y17264048D01*
X46361952Y17311667D01*
X46266714Y17359286D01*
X46123857Y17359286D01*
X46028619Y17311667D01*
X45981000Y17264048D01*
X45933380Y17168810D01*
X45933380Y16883096D01*
X45981000Y16787858D01*
X46028619Y16740239D01*
X46123857Y16692620D01*
X46266714Y16692620D01*
X45600047Y17359286D02*
X45409571Y16692620D01*
X45219095Y17168810D01*
X45028619Y16692620D01*
X44838142Y17359286D01*
X44076238Y16740239D02*
X44171476Y16692620D01*
X44361952Y16692620D01*
X44457190Y16740239D01*
X44504809Y16835477D01*
X44504809Y17216429D01*
X44457190Y17311667D01*
X44361952Y17359286D01*
X44171476Y17359286D01*
X44076238Y17311667D01*
X44028619Y17216429D01*
X44028619Y17121191D01*
X44504809Y17025953D01*
X43600047Y16692620D02*
X43600047Y17359286D01*
X43600047Y17168810D02*
X43552428Y17264048D01*
X43504809Y17311667D01*
X43409571Y17359286D01*
X43314333Y17359286D01*
X42600047Y16740239D02*
X42695285Y16692620D01*
X42885761Y16692620D01*
X42981000Y16740239D01*
X43028619Y16835477D01*
X43028619Y17216429D01*
X42981000Y17311667D01*
X42885761Y17359286D01*
X42695285Y17359286D01*
X42600047Y17311667D01*
X42552428Y17216429D01*
X42552428Y17121191D01*
X43028619Y17025953D01*
X41695285Y16692620D02*
X41695285Y17692620D01*
X41695285Y16740239D02*
X41790523Y16692620D01*
X41981000Y16692620D01*
X42076238Y16740239D01*
X42123857Y16787858D01*
X42171476Y16883096D01*
X42171476Y17168810D01*
X42123857Y17264048D01*
X42076238Y17311667D01*
X41981000Y17359286D01*
X41790523Y17359286D01*
X41695285Y17311667D01*
X41171476Y16740239D02*
X41171476Y16692620D01*
X41219095Y16597381D01*
X41266714Y16549762D01*
X39552428Y16692620D02*
X39552428Y17692620D01*
X39552428Y16740239D02*
X39647666Y16692620D01*
X39838142Y16692620D01*
X39933380Y16740239D01*
X39981000Y16787858D01*
X40028619Y16883096D01*
X40028619Y17168810D01*
X39981000Y17264048D01*
X39933380Y17311667D01*
X39838142Y17359286D01*
X39647666Y17359286D01*
X39552428Y17311667D01*
X38933380Y16692620D02*
X39028619Y16740239D01*
X39076238Y16787858D01*
X39123857Y16883096D01*
X39123857Y17168810D01*
X39076238Y17264048D01*
X39028619Y17311667D01*
X38933380Y17359286D01*
X38790523Y17359286D01*
X38695285Y17311667D01*
X38647666Y17264048D01*
X38600047Y17168810D01*
X38600047Y16883096D01*
X38647666Y16787858D01*
X38695285Y16740239D01*
X38790523Y16692620D01*
X38933380Y16692620D01*
X37409571Y17359286D02*
X37409571Y16692620D01*
X37409571Y17264048D02*
X37361952Y17311667D01*
X37266714Y17359286D01*
X37123857Y17359286D01*
X37028619Y17311667D01*
X36981000Y17216429D01*
X36981000Y16692620D01*
X36361952Y16692620D02*
X36457190Y16740239D01*
X36504809Y16787858D01*
X36552428Y16883096D01*
X36552428Y17168810D01*
X36504809Y17264048D01*
X36457190Y17311667D01*
X36361952Y17359286D01*
X36219095Y17359286D01*
X36123857Y17311667D01*
X36076238Y17264048D01*
X36028619Y17168810D01*
X36028619Y16883096D01*
X36076238Y16787858D01*
X36123857Y16740239D01*
X36219095Y16692620D01*
X36361952Y16692620D01*
X35742904Y17359286D02*
X35361952Y17359286D01*
X35600047Y17692620D02*
X35600047Y16835477D01*
X35552428Y16740239D01*
X35457190Y16692620D01*
X35361952Y16692620D01*
X34266714Y17359286D02*
X34266714Y16502143D01*
X34314333Y16406905D01*
X34409571Y16359286D01*
X34457190Y16359286D01*
X34266714Y17692620D02*
X34314333Y17645000D01*
X34266714Y17597381D01*
X34219095Y17645000D01*
X34266714Y17692620D01*
X34266714Y17597381D01*
X33361952Y17359286D02*
X33361952Y16692620D01*
X33790523Y17359286D02*
X33790523Y16835477D01*
X33742904Y16740239D01*
X33647666Y16692620D01*
X33504809Y16692620D01*
X33409571Y16740239D01*
X33361952Y16787858D01*
X32885761Y16692620D02*
X32885761Y17359286D01*
X32885761Y17264048D02*
X32838142Y17311667D01*
X32742904Y17359286D01*
X32600047Y17359286D01*
X32504809Y17311667D01*
X32457190Y17216429D01*
X32457190Y16692620D01*
X32457190Y17216429D02*
X32409571Y17311667D01*
X32314333Y17359286D01*
X32171476Y17359286D01*
X32076238Y17311667D01*
X32028619Y17216429D01*
X32028619Y16692620D01*
X31552428Y17359286D02*
X31552428Y16359286D01*
X31552428Y17311667D02*
X31457190Y17359286D01*
X31266714Y17359286D01*
X31171476Y17311667D01*
X31123857Y17264048D01*
X31076238Y17168810D01*
X31076238Y16883096D01*
X31123857Y16787858D01*
X31171476Y16740239D01*
X31266714Y16692620D01*
X31457190Y16692620D01*
X31552428Y16740239D01*
X30266714Y16740239D02*
X30361952Y16692620D01*
X30552428Y16692620D01*
X30647666Y16740239D01*
X30695285Y16835477D01*
X30695285Y17216429D01*
X30647666Y17311667D01*
X30552428Y17359286D01*
X30361952Y17359286D01*
X30266714Y17311667D01*
X30219095Y17216429D01*
X30219095Y17121191D01*
X30695285Y17025953D01*
X29790523Y16692620D02*
X29790523Y17359286D01*
X29790523Y17168810D02*
X29742904Y17264048D01*
X29695285Y17311667D01*
X29600047Y17359286D01*
X29504809Y17359286D01*
X47838142Y15042620D02*
X47838142Y15709286D01*
X47838142Y15614048D02*
X47790523Y15661667D01*
X47695285Y15709286D01*
X47552428Y15709286D01*
X47457190Y15661667D01*
X47409571Y15566429D01*
X47409571Y15042620D01*
X47409571Y15566429D02*
X47361952Y15661667D01*
X47266714Y15709286D01*
X47123857Y15709286D01*
X47028619Y15661667D01*
X46981000Y15566429D01*
X46981000Y15042620D01*
X46361952Y15042620D02*
X46457190Y15090239D01*
X46504809Y15137858D01*
X46552428Y15233096D01*
X46552428Y15518810D01*
X46504809Y15614048D01*
X46457190Y15661667D01*
X46361952Y15709286D01*
X46219095Y15709286D01*
X46123857Y15661667D01*
X46076238Y15614048D01*
X46028619Y15518810D01*
X46028619Y15233096D01*
X46076238Y15137858D01*
X46123857Y15090239D01*
X46219095Y15042620D01*
X46361952Y15042620D01*
X45600047Y15042620D02*
X45600047Y15709286D01*
X45600047Y15518810D02*
X45552428Y15614048D01*
X45504809Y15661667D01*
X45409571Y15709286D01*
X45314333Y15709286D01*
X44600047Y15090239D02*
X44695285Y15042620D01*
X44885761Y15042620D01*
X44981000Y15090239D01*
X45028619Y15185477D01*
X45028619Y15566429D01*
X44981000Y15661667D01*
X44885761Y15709286D01*
X44695285Y15709286D01*
X44600047Y15661667D01*
X44552428Y15566429D01*
X44552428Y15471191D01*
X45028619Y15375953D01*
X43504809Y15709286D02*
X43123857Y15709286D01*
X43361952Y16042620D02*
X43361952Y15185477D01*
X43314333Y15090239D01*
X43219095Y15042620D01*
X43123857Y15042620D01*
X42790523Y15042620D02*
X42790523Y16042620D01*
X42361952Y15042620D02*
X42361952Y15566429D01*
X42409571Y15661667D01*
X42504809Y15709286D01*
X42647666Y15709286D01*
X42742904Y15661667D01*
X42790523Y15614048D01*
X41457190Y15042620D02*
X41457190Y15566429D01*
X41504809Y15661667D01*
X41600047Y15709286D01*
X41790523Y15709286D01*
X41885761Y15661667D01*
X41457190Y15090239D02*
X41552428Y15042620D01*
X41790523Y15042620D01*
X41885761Y15090239D01*
X41933380Y15185477D01*
X41933380Y15280715D01*
X41885761Y15375953D01*
X41790523Y15423572D01*
X41552428Y15423572D01*
X41457190Y15471191D01*
X40981000Y15709286D02*
X40981000Y15042620D01*
X40981000Y15614048D02*
X40933380Y15661667D01*
X40838142Y15709286D01*
X40695285Y15709286D01*
X40600047Y15661667D01*
X40552428Y15566429D01*
X40552428Y15042620D01*
X39171476Y15042620D02*
X39266714Y15090239D01*
X39314333Y15137858D01*
X39361952Y15233096D01*
X39361952Y15518810D01*
X39314333Y15614048D01*
X39266714Y15661667D01*
X39171476Y15709286D01*
X39028619Y15709286D01*
X38933380Y15661667D01*
X38885761Y15614048D01*
X38838142Y15518810D01*
X38838142Y15233096D01*
X38885761Y15137858D01*
X38933380Y15090239D01*
X39028619Y15042620D01*
X39171476Y15042620D01*
X38409571Y15709286D02*
X38409571Y15042620D01*
X38409571Y15614048D02*
X38361952Y15661667D01*
X38266714Y15709286D01*
X38123857Y15709286D01*
X38028619Y15661667D01*
X37981000Y15566429D01*
X37981000Y15042620D01*
X37076238Y15090239D02*
X37171476Y15042620D01*
X37361952Y15042620D01*
X37457190Y15090239D01*
X37504809Y15137858D01*
X37552428Y15233096D01*
X37552428Y15518810D01*
X37504809Y15614048D01*
X37457190Y15661667D01*
X37361952Y15709286D01*
X37171476Y15709286D01*
X37076238Y15661667D01*
X36266714Y15090239D02*
X36361952Y15042620D01*
X36552428Y15042620D01*
X36647666Y15090239D01*
X36695285Y15185477D01*
X36695285Y15566429D01*
X36647666Y15661667D01*
X36552428Y15709286D01*
X36361952Y15709286D01*
X36266714Y15661667D01*
X36219095Y15566429D01*
X36219095Y15471191D01*
X36695285Y15375953D01*
X35028619Y15709286D02*
X35028619Y14709286D01*
X35028619Y15661667D02*
X34933380Y15709286D01*
X34742904Y15709286D01*
X34647666Y15661667D01*
X34600047Y15614048D01*
X34552428Y15518810D01*
X34552428Y15233096D01*
X34600047Y15137858D01*
X34647666Y15090239D01*
X34742904Y15042620D01*
X34933380Y15042620D01*
X35028619Y15090239D01*
X33742904Y15090239D02*
X33838142Y15042620D01*
X34028619Y15042620D01*
X34123857Y15090239D01*
X34171476Y15185477D01*
X34171476Y15566429D01*
X34123857Y15661667D01*
X34028619Y15709286D01*
X33838142Y15709286D01*
X33742904Y15661667D01*
X33695285Y15566429D01*
X33695285Y15471191D01*
X34171476Y15375953D01*
X33266714Y15042620D02*
X33266714Y15709286D01*
X33266714Y15518810D02*
X33219095Y15614048D01*
X33171476Y15661667D01*
X33076238Y15709286D01*
X32981000Y15709286D01*
X31742904Y15042620D02*
X31838142Y15090239D01*
X31885761Y15185477D01*
X31885761Y16042620D01*
X31361952Y15042620D02*
X31361952Y15709286D01*
X31361952Y16042620D02*
X31409571Y15995000D01*
X31361952Y15947381D01*
X31314333Y15995000D01*
X31361952Y16042620D01*
X31361952Y15947381D01*
X30885761Y15709286D02*
X30885761Y15042620D01*
X30885761Y15614048D02*
X30838142Y15661667D01*
X30742904Y15709286D01*
X30600047Y15709286D01*
X30504809Y15661667D01*
X30457190Y15566429D01*
X30457190Y15042620D01*
X29600047Y15090239D02*
X29695285Y15042620D01*
X29885761Y15042620D01*
X29981000Y15090239D01*
X30028619Y15185477D01*
X30028619Y15566429D01*
X29981000Y15661667D01*
X29885761Y15709286D01*
X29695285Y15709286D01*
X29600047Y15661667D01*
X29552428Y15566429D01*
X29552428Y15471191D01*
X30028619Y15375953D01*
X29123857Y15137858D02*
X29076238Y15090239D01*
X29123857Y15042620D01*
X29171476Y15090239D01*
X29123857Y15137858D01*
X29123857Y15042620D01*
X29123857Y15423572D02*
X29171476Y15995000D01*
X29123857Y16042620D01*
X29076238Y15995000D01*
X29123857Y15423572D01*
X29123857Y16042620D01*
X25518142Y4474286D02*
X25589571Y4402858D01*
X25803857Y4331429D01*
X25946714Y4331429D01*
X26161000Y4402858D01*
X26303857Y4545715D01*
X26375285Y4688572D01*
X26446714Y4974286D01*
X26446714Y5188572D01*
X26375285Y5474286D01*
X26303857Y5617143D01*
X26161000Y5760000D01*
X25946714Y5831429D01*
X25803857Y5831429D01*
X25589571Y5760000D01*
X25518142Y5688572D01*
X24661000Y4331429D02*
X24803857Y4402858D01*
X24875285Y4474286D01*
X24946714Y4617143D01*
X24946714Y5045715D01*
X24875285Y5188572D01*
X24803857Y5260000D01*
X24661000Y5331429D01*
X24446714Y5331429D01*
X24303857Y5260000D01*
X24232428Y5188572D01*
X24161000Y5045715D01*
X24161000Y4617143D01*
X24232428Y4474286D01*
X24303857Y4402858D01*
X24446714Y4331429D01*
X24661000Y4331429D01*
X23518142Y4331429D02*
X23518142Y5331429D01*
X23518142Y5188572D02*
X23446714Y5260000D01*
X23303857Y5331429D01*
X23089571Y5331429D01*
X22946714Y5260000D01*
X22875285Y5117143D01*
X22875285Y4331429D01*
X22875285Y5117143D02*
X22803857Y5260000D01*
X22661000Y5331429D01*
X22446714Y5331429D01*
X22303857Y5260000D01*
X22232428Y5117143D01*
X22232428Y4331429D01*
X21518142Y4331429D02*
X21518142Y5331429D01*
X21518142Y5188572D02*
X21446714Y5260000D01*
X21303857Y5331429D01*
X21089571Y5331429D01*
X20946714Y5260000D01*
X20875285Y5117143D01*
X20875285Y4331429D01*
X20875285Y5117143D02*
X20803857Y5260000D01*
X20661000Y5331429D01*
X20446714Y5331429D01*
X20303857Y5260000D01*
X20232428Y5117143D01*
X20232428Y4331429D01*
X19303857Y4331429D02*
X19446714Y4402858D01*
X19518142Y4474286D01*
X19589571Y4617143D01*
X19589571Y5045715D01*
X19518142Y5188572D01*
X19446714Y5260000D01*
X19303857Y5331429D01*
X19089571Y5331429D01*
X18946714Y5260000D01*
X18875285Y5188572D01*
X18803857Y5045715D01*
X18803857Y4617143D01*
X18875285Y4474286D01*
X18946714Y4402858D01*
X19089571Y4331429D01*
X19303857Y4331429D01*
X17518142Y4331429D02*
X17518142Y5831429D01*
X17518142Y4402858D02*
X17661000Y4331429D01*
X17946714Y4331429D01*
X18089571Y4402858D01*
X18161000Y4474286D01*
X18232428Y4617143D01*
X18232428Y5045715D01*
X18161000Y5188572D01*
X18089571Y5260000D01*
X17946714Y5331429D01*
X17661000Y5331429D01*
X17518142Y5260000D01*
X16589571Y4331429D02*
X16732428Y4402858D01*
X16803857Y4474286D01*
X16875285Y4617143D01*
X16875285Y5045715D01*
X16803857Y5188572D01*
X16732428Y5260000D01*
X16589571Y5331429D01*
X16375285Y5331429D01*
X16232428Y5260000D01*
X16161000Y5188572D01*
X16089571Y5045715D01*
X16089571Y4617143D01*
X16161000Y4474286D01*
X16232428Y4402858D01*
X16375285Y4331429D01*
X16589571Y4331429D01*
X15446714Y4331429D02*
X15446714Y5331429D01*
X15446714Y5045715D02*
X15375285Y5188572D01*
X15303857Y5260000D01*
X15161000Y5331429D01*
X15018142Y5331429D01*
X13946714Y4402858D02*
X14089571Y4331429D01*
X14375285Y4331429D01*
X14518142Y4402858D01*
X14589571Y4545715D01*
X14589571Y5117143D01*
X14518142Y5260000D01*
X14375285Y5331429D01*
X14089571Y5331429D01*
X13946714Y5260000D01*
X13875285Y5117143D01*
X13875285Y4974286D01*
X14589571Y4831429D01*
X11446714Y5831429D02*
X11732428Y5831429D01*
X11875285Y5760000D01*
X11946714Y5688572D01*
X12089571Y5474286D01*
X12161000Y5188572D01*
X12161000Y4617143D01*
X12089571Y4474286D01*
X12018142Y4402858D01*
X11875285Y4331429D01*
X11589571Y4331429D01*
X11446714Y4402858D01*
X11375285Y4474286D01*
X11303857Y4617143D01*
X11303857Y4974286D01*
X11375285Y5117143D01*
X11446714Y5188572D01*
X11589571Y5260000D01*
X11875285Y5260000D01*
X12018142Y5188572D01*
X12089571Y5117143D01*
X12161000Y4974286D01*
X10018142Y5331429D02*
X10018142Y4331429D01*
X10375285Y5902858D02*
X10732428Y4831429D01*
X9803857Y4831429D01*
X27125285Y3431429D02*
X27125285Y2360000D01*
X27196714Y2145715D01*
X27339571Y2002858D01*
X27553857Y1931429D01*
X27696714Y1931429D01*
X26196714Y1931429D02*
X26339571Y2002858D01*
X26411000Y2074286D01*
X26482428Y2217143D01*
X26482428Y2645715D01*
X26411000Y2788572D01*
X26339571Y2860000D01*
X26196714Y2931429D01*
X25982428Y2931429D01*
X25839571Y2860000D01*
X25768142Y2788572D01*
X25696714Y2645715D01*
X25696714Y2217143D01*
X25768142Y2074286D01*
X25839571Y2002858D01*
X25982428Y1931429D01*
X26196714Y1931429D01*
X25196714Y2931429D02*
X24839571Y1931429D01*
X24482428Y2931429D02*
X24839571Y1931429D01*
X24982428Y1574286D01*
X25053857Y1502858D01*
X25196714Y1431429D01*
X23982428Y2002858D02*
X23839571Y1931429D01*
X23553857Y1931429D01*
X23411000Y2002858D01*
X23339571Y2145715D01*
X23339571Y2217143D01*
X23411000Y2360000D01*
X23553857Y2431429D01*
X23768142Y2431429D01*
X23911000Y2502858D01*
X23982428Y2645715D01*
X23982428Y2717143D01*
X23911000Y2860000D01*
X23768142Y2931429D01*
X23553857Y2931429D01*
X23411000Y2860000D01*
X22911000Y2931429D02*
X22339571Y2931429D01*
X22696714Y3431429D02*
X22696714Y2145715D01*
X22625285Y2002858D01*
X22482428Y1931429D01*
X22339571Y1931429D01*
X21839571Y1931429D02*
X21839571Y2931429D01*
X21839571Y3431429D02*
X21911000Y3360000D01*
X21839571Y3288572D01*
X21768142Y3360000D01*
X21839571Y3431429D01*
X21839571Y3288572D01*
X20482428Y2002858D02*
X20625285Y1931429D01*
X20911000Y1931429D01*
X21053857Y2002858D01*
X21125285Y2074286D01*
X21196714Y2217143D01*
X21196714Y2645715D01*
X21125285Y2788572D01*
X21053857Y2860000D01*
X20911000Y2931429D01*
X20625285Y2931429D01*
X20482428Y2860000D01*
X19839571Y1931429D02*
X19839571Y3431429D01*
X19696714Y2502858D02*
X19268142Y1931429D01*
X19268142Y2931429D02*
X19839571Y2360000D01*
X17553857Y2002858D02*
X17339571Y1931429D01*
X16982428Y1931429D01*
X16839571Y2002858D01*
X16768142Y2074286D01*
X16696714Y2217143D01*
X16696714Y2360000D01*
X16768142Y2502858D01*
X16839571Y2574286D01*
X16982428Y2645715D01*
X17268142Y2717143D01*
X17411000Y2788572D01*
X17482428Y2860000D01*
X17553857Y3002858D01*
X17553857Y3145715D01*
X17482428Y3288572D01*
X17411000Y3360000D01*
X17268142Y3431429D01*
X16911000Y3431429D01*
X16696714Y3360000D01*
X16196714Y2931429D02*
X15911000Y1931429D01*
X15625285Y2645715D01*
X15339571Y1931429D01*
X15053857Y2931429D01*
X14482428Y1931429D02*
X14482428Y2931429D01*
X14482428Y3431429D02*
X14553857Y3360000D01*
X14482428Y3288572D01*
X14411000Y3360000D01*
X14482428Y3431429D01*
X14482428Y3288572D01*
X13982428Y2931429D02*
X13411000Y2931429D01*
X13768142Y3431429D02*
X13768142Y2145715D01*
X13696714Y2002858D01*
X13553857Y1931429D01*
X13411000Y1931429D01*
X12268142Y2002858D02*
X12411000Y1931429D01*
X12696714Y1931429D01*
X12839571Y2002858D01*
X12911000Y2074286D01*
X12982428Y2217143D01*
X12982428Y2645715D01*
X12911000Y2788572D01*
X12839571Y2860000D01*
X12696714Y2931429D01*
X12411000Y2931429D01*
X12268142Y2860000D01*
X11625285Y1931429D02*
X11625285Y3431429D01*
X10982428Y1931429D02*
X10982428Y2717143D01*
X11053857Y2860000D01*
X11196714Y2931429D01*
X11411000Y2931429D01*
X11553857Y2860000D01*
X11625285Y2788572D01*
X9696714Y2002858D02*
X9839571Y1931429D01*
X10125285Y1931429D01*
X10268142Y2002858D01*
X10339571Y2145715D01*
X10339571Y2717143D01*
X10268142Y2860000D01*
X10125285Y2931429D01*
X9839571Y2931429D01*
X9696714Y2860000D01*
X9625285Y2717143D01*
X9625285Y2574286D01*
X10339571Y2431429D01*
X8982428Y1931429D02*
X8982428Y2931429D01*
X8982428Y2645715D02*
X8911000Y2788572D01*
X8839571Y2860000D01*
X8696714Y2931429D01*
X8553857Y2931429D01*
%TO.C,Q1*%
D12*
X12388857Y56730715D02*
X12426952Y56616429D01*
X12465047Y56578334D01*
X12541238Y56540239D01*
X12655523Y56540239D01*
X12731714Y56578334D01*
X12769809Y56616429D01*
X12807904Y56692620D01*
X12807904Y56997381D01*
X12007904Y56997381D01*
X12007904Y56730715D01*
X12046000Y56654524D01*
X12084095Y56616429D01*
X12160285Y56578334D01*
X12236476Y56578334D01*
X12312666Y56616429D01*
X12350761Y56654524D01*
X12388857Y56730715D01*
X12388857Y56997381D01*
X12731714Y55740239D02*
X12769809Y55778334D01*
X12807904Y55892620D01*
X12807904Y55968810D01*
X12769809Y56083096D01*
X12693619Y56159286D01*
X12617428Y56197381D01*
X12465047Y56235477D01*
X12350761Y56235477D01*
X12198380Y56197381D01*
X12122190Y56159286D01*
X12046000Y56083096D01*
X12007904Y55968810D01*
X12007904Y55892620D01*
X12046000Y55778334D01*
X12084095Y55740239D01*
X12007904Y55016429D02*
X12007904Y55397381D01*
X12388857Y55435477D01*
X12350761Y55397381D01*
X12312666Y55321191D01*
X12312666Y55130715D01*
X12350761Y55054524D01*
X12388857Y55016429D01*
X12465047Y54978334D01*
X12655523Y54978334D01*
X12731714Y55016429D01*
X12769809Y55054524D01*
X12807904Y55130715D01*
X12807904Y55321191D01*
X12769809Y55397381D01*
X12731714Y55435477D01*
X12274571Y54292620D02*
X12807904Y54292620D01*
X11969809Y54483096D02*
X12541238Y54673572D01*
X12541238Y54178334D01*
X12007904Y53949762D02*
X12007904Y53416429D01*
X12807904Y53759286D01*
%TO.C,C5*%
X12807904Y40862143D02*
X12807904Y41319286D01*
X12807904Y41090715D02*
X12007904Y41090715D01*
X12122190Y41166905D01*
X12198380Y41243096D01*
X12236476Y41319286D01*
X12007904Y40366905D02*
X12007904Y40290715D01*
X12046000Y40214524D01*
X12084095Y40176429D01*
X12160285Y40138334D01*
X12312666Y40100239D01*
X12503142Y40100239D01*
X12655523Y40138334D01*
X12731714Y40176429D01*
X12769809Y40214524D01*
X12807904Y40290715D01*
X12807904Y40366905D01*
X12769809Y40443096D01*
X12731714Y40481191D01*
X12655523Y40519286D01*
X12503142Y40557381D01*
X12312666Y40557381D01*
X12160285Y40519286D01*
X12084095Y40481191D01*
X12046000Y40443096D01*
X12007904Y40366905D01*
X12274571Y39414524D02*
X12807904Y39414524D01*
X12274571Y39757381D02*
X12693619Y39757381D01*
X12769809Y39719286D01*
X12807904Y39643096D01*
X12807904Y39528810D01*
X12769809Y39452620D01*
X12731714Y39414524D01*
X12388857Y38766905D02*
X12388857Y39033572D01*
X12807904Y39033572D02*
X12007904Y39033572D01*
X12007904Y38652620D01*
%TD*%
%LPC*%
D13*
%TO.C,J2*%
X7956000Y60975000D03*
D14*
X7956000Y63745000D03*
X7956000Y66515000D03*
X7956000Y69285000D03*
X7956000Y72055000D03*
X5116000Y62360000D03*
X5116000Y65130000D03*
X5116000Y67900000D03*
X5116000Y70670000D03*
D15*
X6536000Y79015000D03*
X6536000Y54015000D03*
%TD*%
D13*
%TO.C,J1*%
X7956000Y29775000D03*
D14*
X7956000Y32545000D03*
X7956000Y35315000D03*
X7956000Y38085000D03*
X7956000Y40855000D03*
X5116000Y31160000D03*
X5116000Y33930000D03*
X5116000Y36700000D03*
X5116000Y39470000D03*
D15*
X6536000Y47815000D03*
X6536000Y22815000D03*
%TD*%
D14*
%TO.C,R2*%
X20701000Y39370000D03*
D16*
X30861000Y39370000D03*
%TD*%
D17*
%TO.C,D1*%
X14351000Y77470000D03*
D18*
X14351000Y80010000D03*
%TD*%
D17*
%TO.C,D2*%
X14351000Y46355000D03*
D18*
X14351000Y48895000D03*
%TD*%
D13*
%TO.C,J3*%
X12192000Y11335000D03*
D14*
X14962000Y11335000D03*
X17732000Y11335000D03*
X20502000Y11335000D03*
X23272000Y11335000D03*
X13577000Y8495000D03*
X16347000Y8495000D03*
X19117000Y8495000D03*
X21887000Y8495000D03*
D15*
X5232000Y9915000D03*
X30232000Y9915000D03*
%TD*%
D19*
%TO.C,JP1*%
X32766000Y22225000D03*
D20*
X35306000Y22225000D03*
%TD*%
D14*
%TO.C,R1*%
X20701000Y43180000D03*
D16*
X30861000Y43180000D03*
%TD*%
D14*
%TO.C,R3*%
X12446000Y73025000D03*
D16*
X12446000Y62865000D03*
%TD*%
D14*
%TO.C,R4*%
X16256000Y73025000D03*
D16*
X16256000Y62865000D03*
%TD*%
D21*
%TO.C,SW1*%
X39806000Y1905000D03*
X35306000Y1905000D03*
X39806000Y8405000D03*
X35306000Y8405000D03*
%TD*%
%TO.C,SW2*%
X47426000Y1905000D03*
X42926000Y1905000D03*
X47426000Y8405000D03*
X42926000Y8405000D03*
%TD*%
D13*
%TO.C,U1*%
X21971000Y76200000D03*
D16*
X29591000Y58420000D03*
X21971000Y73660000D03*
X29591000Y60960000D03*
X21971000Y71120000D03*
X29591000Y63500000D03*
X21971000Y68580000D03*
X29591000Y66040000D03*
X21971000Y66040000D03*
X29591000Y68580000D03*
X21971000Y63500000D03*
X29591000Y71120000D03*
X21971000Y60960000D03*
X29591000Y73660000D03*
X21971000Y58420000D03*
X29591000Y76200000D03*
%TD*%
D13*
%TO.C,U2*%
X36576000Y76200000D03*
D16*
X44196000Y58420000D03*
X36576000Y73660000D03*
X44196000Y60960000D03*
X36576000Y71120000D03*
X44196000Y63500000D03*
X36576000Y68580000D03*
X44196000Y66040000D03*
X36576000Y66040000D03*
X44196000Y68580000D03*
X36576000Y63500000D03*
X44196000Y71120000D03*
X36576000Y60960000D03*
X44196000Y73660000D03*
X36576000Y58420000D03*
X44196000Y76200000D03*
%TD*%
D13*
%TO.C,U3*%
X36576000Y50800000D03*
D16*
X44196000Y43180000D03*
X36576000Y48260000D03*
G36*
G01*
X43630315Y45154315D02*
X43630315Y45154315D01*
G75*
G02*
X43630315Y46285685I565685J565685D01*
G01*
X43630315Y46285685D01*
G75*
G02*
X44761685Y46285685I565685J-565685D01*
G01*
X44761685Y46285685D01*
G75*
G02*
X44761685Y45154315I-565685J-565685D01*
G01*
X44761685Y45154315D01*
G75*
G02*
X43630315Y45154315I-565685J565685D01*
G01*
G37*
X36576000Y45720000D03*
X44196000Y48260000D03*
X36576000Y43180000D03*
X44196000Y50800000D03*
%TD*%
D14*
%TO.C,C1*%
X28321000Y80010000D03*
X23321000Y80010000D03*
%TD*%
%TO.C,C2*%
X42926000Y80010000D03*
X37926000Y80010000D03*
%TD*%
%TO.C,C3*%
X42926000Y54610000D03*
X37926000Y54610000D03*
%TD*%
D22*
%TO.C,Q1*%
X14351000Y55245000D03*
X14351000Y57785000D03*
D23*
X14351000Y52705000D03*
%TD*%
D14*
%TO.C,R5*%
X20701000Y50800000D03*
D16*
X30861000Y50800000D03*
%TD*%
D14*
%TO.C,R6*%
X20701000Y54610000D03*
D16*
X30861000Y54610000D03*
%TD*%
D14*
%TO.C,R7*%
X20701000Y46990000D03*
D16*
X30861000Y46990000D03*
%TD*%
D19*
%TO.C,J4*%
X24511000Y22225000D03*
D20*
X27051000Y22225000D03*
X24511000Y19685000D03*
X27051000Y19685000D03*
X24511000Y17145000D03*
X27051000Y17145000D03*
%TD*%
D19*
%TO.C,J5*%
X16256000Y22225000D03*
D20*
X18796000Y22225000D03*
X16256000Y19685000D03*
X18796000Y19685000D03*
X16256000Y17145000D03*
X18796000Y17145000D03*
%TD*%
D14*
%TO.C,R9*%
X13081000Y34925000D03*
D16*
X23241000Y34925000D03*
%TD*%
D24*
%TO.C,RV1*%
X29551000Y34250000D03*
X32051000Y29210000D03*
X27051000Y29210000D03*
%TD*%
D13*
%TO.C,U4*%
X36576000Y35560000D03*
D16*
X44196000Y27940000D03*
X36576000Y33020000D03*
X44196000Y30480000D03*
X36576000Y30480000D03*
X44196000Y33020000D03*
X36576000Y27940000D03*
X44196000Y35560000D03*
%TD*%
D14*
%TO.C,C4*%
X42926000Y39370000D03*
X37926000Y39370000D03*
%TD*%
D13*
%TO.C,C5*%
X14351000Y38735000D03*
D14*
X14351000Y41235000D03*
%TD*%
D19*
%TO.C,JP2*%
X14986000Y29210000D03*
D20*
X17526000Y29210000D03*
X20066000Y29210000D03*
%TD*%
M02*
