%TF.GenerationSoftware,KiCad,Pcbnew,5.1.12-84ad8e8a86~92~ubuntu20.04.1*%
%TF.CreationDate,2021-11-27T12:58:46+01:00*%
%TF.ProjectId,C64 Joystick Switcher,43363420-4a6f-4797-9374-69636b205377,rev?*%
%TF.SameCoordinates,PX5d80860PY70086b8*%
%TF.FileFunction,Legend,Top*%
%TF.FilePolarity,Positive*%
%FSLAX46Y46*%
G04 Gerber Fmt 4.6, Leading zero omitted, Abs format (unit mm)*
G04 Created by KiCad (PCBNEW 5.1.12-84ad8e8a86~92~ubuntu20.04.1) date 2021-11-27 12:58:46*
%MOMM*%
%LPD*%
G01*
G04 APERTURE LIST*
%ADD10C,0.150000*%
%ADD11C,0.200000*%
%ADD12C,0.120000*%
%ADD13R,1.600000X1.600000*%
%ADD14C,1.600000*%
%ADD15C,4.800000*%
%ADD16O,1.600000X1.600000*%
%ADD17R,1.800000X1.800000*%
%ADD18C,1.800000*%
%ADD19R,1.700000X1.700000*%
%ADD20O,1.700000X1.700000*%
%ADD21C,2.000000*%
%ADD22C,1.520000*%
%ADD23R,1.520000X1.520000*%
%ADD24C,2.500000*%
G04 APERTURE END LIST*
D10*
X28995761Y30027620D02*
X28424333Y30027620D01*
X28710047Y30027620D02*
X28710047Y31027620D01*
X28614809Y30884762D01*
X28519571Y30789524D01*
X28424333Y30741905D01*
X29614809Y31027620D02*
X29710047Y31027620D01*
X29805285Y30980000D01*
X29852904Y30932381D01*
X29900523Y30837143D01*
X29948142Y30646667D01*
X29948142Y30408572D01*
X29900523Y30218096D01*
X29852904Y30122858D01*
X29805285Y30075239D01*
X29710047Y30027620D01*
X29614809Y30027620D01*
X29519571Y30075239D01*
X29471952Y30122858D01*
X29424333Y30218096D01*
X29376714Y30408572D01*
X29376714Y30646667D01*
X29424333Y30837143D01*
X29471952Y30932381D01*
X29519571Y30980000D01*
X29614809Y31027620D01*
X30376714Y30027620D02*
X30376714Y31027620D01*
X30471952Y30408572D02*
X30757666Y30027620D01*
X30757666Y30694286D02*
X30376714Y30313334D01*
D11*
X22606000Y29210000D02*
X25146000Y29210000D01*
D10*
X27400523Y35790239D02*
X27543380Y35742620D01*
X27781476Y35742620D01*
X27876714Y35790239D01*
X27924333Y35837858D01*
X27971952Y35933096D01*
X27971952Y36028334D01*
X27924333Y36123572D01*
X27876714Y36171191D01*
X27781476Y36218810D01*
X27591000Y36266429D01*
X27495761Y36314048D01*
X27448142Y36361667D01*
X27400523Y36456905D01*
X27400523Y36552143D01*
X27448142Y36647381D01*
X27495761Y36695000D01*
X27591000Y36742620D01*
X27829095Y36742620D01*
X27971952Y36695000D01*
X28400523Y35742620D02*
X28400523Y36742620D01*
X28781476Y36742620D01*
X28876714Y36695000D01*
X28924333Y36647381D01*
X28971952Y36552143D01*
X28971952Y36409286D01*
X28924333Y36314048D01*
X28876714Y36266429D01*
X28781476Y36218810D01*
X28400523Y36218810D01*
X29400523Y36266429D02*
X29733857Y36266429D01*
X29876714Y35742620D02*
X29400523Y35742620D01*
X29400523Y36742620D01*
X29876714Y36742620D01*
X30305285Y36266429D02*
X30638619Y36266429D01*
X30781476Y35742620D02*
X30305285Y35742620D01*
X30305285Y36742620D01*
X30781476Y36742620D01*
X31210047Y35742620D02*
X31210047Y36742620D01*
X31448142Y36742620D01*
X31591000Y36695000D01*
X31686238Y36599762D01*
X31733857Y36504524D01*
X31781476Y36314048D01*
X31781476Y36171191D01*
X31733857Y35980715D01*
X31686238Y35885477D01*
X31591000Y35790239D01*
X31448142Y35742620D01*
X31210047Y35742620D01*
D11*
X45466000Y13970000D02*
X45466000Y15240000D01*
X13081000Y13970000D02*
X45466000Y13970000D01*
X45466000Y26035000D02*
X45466000Y15240000D01*
X13081000Y15240000D02*
X13081000Y13970000D01*
X13081000Y26035000D02*
X13081000Y15240000D01*
X13716000Y26035000D02*
X13081000Y26035000D01*
X21971000Y27305000D02*
X13081000Y27305000D01*
X21971000Y31115000D02*
X21971000Y27305000D01*
X13081000Y31115000D02*
X21971000Y31115000D01*
X13081000Y27305000D02*
X13081000Y31115000D01*
X45466000Y26035000D02*
X13716000Y26035000D01*
D10*
X47728142Y19964286D02*
X47775761Y19916667D01*
X47823380Y19773810D01*
X47823380Y19678572D01*
X47775761Y19535715D01*
X47680523Y19440477D01*
X47585285Y19392858D01*
X47394809Y19345239D01*
X47251952Y19345239D01*
X47061476Y19392858D01*
X46966238Y19440477D01*
X46871000Y19535715D01*
X46823380Y19678572D01*
X46823380Y19773810D01*
X46871000Y19916667D01*
X46918619Y19964286D01*
X47823380Y20535715D02*
X47775761Y20440477D01*
X47728142Y20392858D01*
X47632904Y20345239D01*
X47347190Y20345239D01*
X47251952Y20392858D01*
X47204333Y20440477D01*
X47156714Y20535715D01*
X47156714Y20678572D01*
X47204333Y20773810D01*
X47251952Y20821429D01*
X47347190Y20869048D01*
X47632904Y20869048D01*
X47728142Y20821429D01*
X47775761Y20773810D01*
X47823380Y20678572D01*
X47823380Y20535715D01*
X47823380Y21297620D02*
X47156714Y21297620D01*
X47251952Y21297620D02*
X47204333Y21345239D01*
X47156714Y21440477D01*
X47156714Y21583334D01*
X47204333Y21678572D01*
X47299571Y21726191D01*
X47823380Y21726191D01*
X47299571Y21726191D02*
X47204333Y21773810D01*
X47156714Y21869048D01*
X47156714Y22011905D01*
X47204333Y22107143D01*
X47299571Y22154762D01*
X47823380Y22154762D01*
X47823380Y22630953D02*
X47156714Y22630953D01*
X47251952Y22630953D02*
X47204333Y22678572D01*
X47156714Y22773810D01*
X47156714Y22916667D01*
X47204333Y23011905D01*
X47299571Y23059524D01*
X47823380Y23059524D01*
X47299571Y23059524D02*
X47204333Y23107143D01*
X47156714Y23202381D01*
X47156714Y23345239D01*
X47204333Y23440477D01*
X47299571Y23488096D01*
X47823380Y23488096D01*
X47823380Y24107143D02*
X47775761Y24011905D01*
X47728142Y23964286D01*
X47632904Y23916667D01*
X47347190Y23916667D01*
X47251952Y23964286D01*
X47204333Y24011905D01*
X47156714Y24107143D01*
X47156714Y24250000D01*
X47204333Y24345239D01*
X47251952Y24392858D01*
X47347190Y24440477D01*
X47632904Y24440477D01*
X47728142Y24392858D01*
X47775761Y24345239D01*
X47823380Y24250000D01*
X47823380Y24107143D01*
X47823380Y25297620D02*
X46823380Y25297620D01*
X47775761Y25297620D02*
X47823380Y25202381D01*
X47823380Y25011905D01*
X47775761Y24916667D01*
X47728142Y24869048D01*
X47632904Y24821429D01*
X47347190Y24821429D01*
X47251952Y24869048D01*
X47204333Y24916667D01*
X47156714Y25011905D01*
X47156714Y25202381D01*
X47204333Y25297620D01*
X47823380Y25916667D02*
X47775761Y25821429D01*
X47728142Y25773810D01*
X47632904Y25726191D01*
X47347190Y25726191D01*
X47251952Y25773810D01*
X47204333Y25821429D01*
X47156714Y25916667D01*
X47156714Y26059524D01*
X47204333Y26154762D01*
X47251952Y26202381D01*
X47347190Y26250000D01*
X47632904Y26250000D01*
X47728142Y26202381D01*
X47775761Y26154762D01*
X47823380Y26059524D01*
X47823380Y25916667D01*
X47823380Y26678572D02*
X47156714Y26678572D01*
X47347190Y26678572D02*
X47251952Y26726191D01*
X47204333Y26773810D01*
X47156714Y26869048D01*
X47156714Y26964286D01*
X47775761Y27678572D02*
X47823380Y27583334D01*
X47823380Y27392858D01*
X47775761Y27297620D01*
X47680523Y27250000D01*
X47299571Y27250000D01*
X47204333Y27297620D01*
X47156714Y27392858D01*
X47156714Y27583334D01*
X47204333Y27678572D01*
X47299571Y27726191D01*
X47394809Y27726191D01*
X47490047Y27250000D01*
X46823380Y29345239D02*
X46823380Y29154762D01*
X46871000Y29059524D01*
X46918619Y29011905D01*
X47061476Y28916667D01*
X47251952Y28869048D01*
X47632904Y28869048D01*
X47728142Y28916667D01*
X47775761Y28964286D01*
X47823380Y29059524D01*
X47823380Y29250000D01*
X47775761Y29345239D01*
X47728142Y29392858D01*
X47632904Y29440477D01*
X47394809Y29440477D01*
X47299571Y29392858D01*
X47251952Y29345239D01*
X47204333Y29250000D01*
X47204333Y29059524D01*
X47251952Y28964286D01*
X47299571Y28916667D01*
X47394809Y28869048D01*
X47156714Y30297620D02*
X47823380Y30297620D01*
X46775761Y30059524D02*
X47490047Y29821429D01*
X47490047Y30440477D01*
X46823380Y31869048D02*
X47537666Y31869048D01*
X47680523Y31821429D01*
X47775761Y31726191D01*
X47823380Y31583334D01*
X47823380Y31488096D01*
X47823380Y32488096D02*
X47775761Y32392858D01*
X47728142Y32345239D01*
X47632904Y32297620D01*
X47347190Y32297620D01*
X47251952Y32345239D01*
X47204333Y32392858D01*
X47156714Y32488096D01*
X47156714Y32630953D01*
X47204333Y32726191D01*
X47251952Y32773810D01*
X47347190Y32821429D01*
X47632904Y32821429D01*
X47728142Y32773810D01*
X47775761Y32726191D01*
X47823380Y32630953D01*
X47823380Y32488096D01*
X47156714Y33154762D02*
X47823380Y33392858D01*
X47156714Y33630953D02*
X47823380Y33392858D01*
X48061476Y33297620D01*
X48109095Y33250000D01*
X48156714Y33154762D01*
X47775761Y33964286D02*
X47823380Y34059524D01*
X47823380Y34250000D01*
X47775761Y34345239D01*
X47680523Y34392858D01*
X47632904Y34392858D01*
X47537666Y34345239D01*
X47490047Y34250000D01*
X47490047Y34107143D01*
X47442428Y34011905D01*
X47347190Y33964286D01*
X47299571Y33964286D01*
X47204333Y34011905D01*
X47156714Y34107143D01*
X47156714Y34250000D01*
X47204333Y34345239D01*
X47156714Y34678572D02*
X47156714Y35059524D01*
X46823380Y34821429D02*
X47680523Y34821429D01*
X47775761Y34869048D01*
X47823380Y34964286D01*
X47823380Y35059524D01*
X47823380Y35392858D02*
X47156714Y35392858D01*
X46823380Y35392858D02*
X46871000Y35345239D01*
X46918619Y35392858D01*
X46871000Y35440477D01*
X46823380Y35392858D01*
X46918619Y35392858D01*
X47775761Y36297620D02*
X47823380Y36202381D01*
X47823380Y36011905D01*
X47775761Y35916667D01*
X47728142Y35869048D01*
X47632904Y35821429D01*
X47347190Y35821429D01*
X47251952Y35869048D01*
X47204333Y35916667D01*
X47156714Y36011905D01*
X47156714Y36202381D01*
X47204333Y36297620D01*
X47823380Y36726191D02*
X46823380Y36726191D01*
X47442428Y36821429D02*
X47823380Y37107143D01*
X47156714Y37107143D02*
X47537666Y36726191D01*
X47775761Y38250000D02*
X47823380Y38392858D01*
X47823380Y38630953D01*
X47775761Y38726191D01*
X47728142Y38773810D01*
X47632904Y38821429D01*
X47537666Y38821429D01*
X47442428Y38773810D01*
X47394809Y38726191D01*
X47347190Y38630953D01*
X47299571Y38440477D01*
X47251952Y38345239D01*
X47204333Y38297620D01*
X47109095Y38250000D01*
X47013857Y38250000D01*
X46918619Y38297620D01*
X46871000Y38345239D01*
X46823380Y38440477D01*
X46823380Y38678572D01*
X46871000Y38821429D01*
X47156714Y39154762D02*
X47823380Y39345239D01*
X47347190Y39535715D01*
X47823380Y39726191D01*
X47156714Y39916667D01*
X47823380Y40297620D02*
X47156714Y40297620D01*
X46823380Y40297620D02*
X46871000Y40250000D01*
X46918619Y40297620D01*
X46871000Y40345239D01*
X46823380Y40297620D01*
X46918619Y40297620D01*
X47156714Y40630953D02*
X47156714Y41011905D01*
X46823380Y40773810D02*
X47680523Y40773810D01*
X47775761Y40821429D01*
X47823380Y40916667D01*
X47823380Y41011905D01*
X47775761Y41773810D02*
X47823380Y41678572D01*
X47823380Y41488096D01*
X47775761Y41392858D01*
X47728142Y41345239D01*
X47632904Y41297620D01*
X47347190Y41297620D01*
X47251952Y41345239D01*
X47204333Y41392858D01*
X47156714Y41488096D01*
X47156714Y41678572D01*
X47204333Y41773810D01*
X47823380Y42202381D02*
X46823380Y42202381D01*
X47823380Y42630953D02*
X47299571Y42630953D01*
X47204333Y42583334D01*
X47156714Y42488096D01*
X47156714Y42345239D01*
X47204333Y42250000D01*
X47251952Y42202381D01*
X47775761Y43488096D02*
X47823380Y43392858D01*
X47823380Y43202381D01*
X47775761Y43107143D01*
X47680523Y43059524D01*
X47299571Y43059524D01*
X47204333Y43107143D01*
X47156714Y43202381D01*
X47156714Y43392858D01*
X47204333Y43488096D01*
X47299571Y43535715D01*
X47394809Y43535715D01*
X47490047Y43059524D01*
X47823380Y43964286D02*
X47156714Y43964286D01*
X47347190Y43964286D02*
X47251952Y44011905D01*
X47204333Y44059524D01*
X47156714Y44154762D01*
X47156714Y44250000D01*
X11827190Y74477620D02*
X11827190Y75477620D01*
X12208142Y75477620D01*
X12303380Y75430000D01*
X12351000Y75382381D01*
X12398619Y75287143D01*
X12398619Y75144286D01*
X12351000Y75049048D01*
X12303380Y75001429D01*
X12208142Y74953810D01*
X11827190Y74953810D01*
X13017666Y75477620D02*
X13208142Y75477620D01*
X13303380Y75430000D01*
X13398619Y75334762D01*
X13446238Y75144286D01*
X13446238Y74810953D01*
X13398619Y74620477D01*
X13303380Y74525239D01*
X13208142Y74477620D01*
X13017666Y74477620D01*
X12922428Y74525239D01*
X12827190Y74620477D01*
X12779571Y74810953D01*
X12779571Y75144286D01*
X12827190Y75334762D01*
X12922428Y75430000D01*
X13017666Y75477620D01*
X14446238Y74477620D02*
X14112904Y74953810D01*
X13874809Y74477620D02*
X13874809Y75477620D01*
X14255761Y75477620D01*
X14351000Y75430000D01*
X14398619Y75382381D01*
X14446238Y75287143D01*
X14446238Y75144286D01*
X14398619Y75049048D01*
X14351000Y75001429D01*
X14255761Y74953810D01*
X13874809Y74953810D01*
X14731952Y75477620D02*
X15303380Y75477620D01*
X15017666Y74477620D02*
X15017666Y75477620D01*
X16351000Y75382381D02*
X16398619Y75430000D01*
X16493857Y75477620D01*
X16731952Y75477620D01*
X16827190Y75430000D01*
X16874809Y75382381D01*
X16922428Y75287143D01*
X16922428Y75191905D01*
X16874809Y75049048D01*
X16303380Y74477620D01*
X16922428Y74477620D01*
X11827190Y43362620D02*
X11827190Y44362620D01*
X12208142Y44362620D01*
X12303380Y44315000D01*
X12351000Y44267381D01*
X12398619Y44172143D01*
X12398619Y44029286D01*
X12351000Y43934048D01*
X12303380Y43886429D01*
X12208142Y43838810D01*
X11827190Y43838810D01*
X13017666Y44362620D02*
X13208142Y44362620D01*
X13303380Y44315000D01*
X13398619Y44219762D01*
X13446238Y44029286D01*
X13446238Y43695953D01*
X13398619Y43505477D01*
X13303380Y43410239D01*
X13208142Y43362620D01*
X13017666Y43362620D01*
X12922428Y43410239D01*
X12827190Y43505477D01*
X12779571Y43695953D01*
X12779571Y44029286D01*
X12827190Y44219762D01*
X12922428Y44315000D01*
X13017666Y44362620D01*
X14446238Y43362620D02*
X14112904Y43838810D01*
X13874809Y43362620D02*
X13874809Y44362620D01*
X14255761Y44362620D01*
X14351000Y44315000D01*
X14398619Y44267381D01*
X14446238Y44172143D01*
X14446238Y44029286D01*
X14398619Y43934048D01*
X14351000Y43886429D01*
X14255761Y43838810D01*
X13874809Y43838810D01*
X14731952Y44362620D02*
X15303380Y44362620D01*
X15017666Y43362620D02*
X15017666Y44362620D01*
X16922428Y43362620D02*
X16351000Y43362620D01*
X16636714Y43362620D02*
X16636714Y44362620D01*
X16541476Y44219762D01*
X16446238Y44124524D01*
X16351000Y44076905D01*
X47156714Y58095239D02*
X47966238Y58095239D01*
X48061476Y58047620D01*
X48109095Y58000000D01*
X48156714Y57904762D01*
X48156714Y57761905D01*
X48109095Y57666667D01*
X47775761Y58095239D02*
X47823380Y58000000D01*
X47823380Y57809524D01*
X47775761Y57714286D01*
X47728142Y57666667D01*
X47632904Y57619048D01*
X47347190Y57619048D01*
X47251952Y57666667D01*
X47204333Y57714286D01*
X47156714Y57809524D01*
X47156714Y58000000D01*
X47204333Y58095239D01*
X47823380Y58571429D02*
X47156714Y58571429D01*
X46823380Y58571429D02*
X46871000Y58523810D01*
X46918619Y58571429D01*
X46871000Y58619048D01*
X46823380Y58571429D01*
X46918619Y58571429D01*
X47156714Y58904762D02*
X47156714Y59285715D01*
X46823380Y59047620D02*
X47680523Y59047620D01*
X47775761Y59095239D01*
X47823380Y59190477D01*
X47823380Y59285715D01*
X47823380Y59619048D02*
X46823380Y59619048D01*
X47823380Y60047620D02*
X47299571Y60047620D01*
X47204333Y60000000D01*
X47156714Y59904762D01*
X47156714Y59761905D01*
X47204333Y59666667D01*
X47251952Y59619048D01*
X47156714Y60952381D02*
X47823380Y60952381D01*
X47156714Y60523810D02*
X47680523Y60523810D01*
X47775761Y60571429D01*
X47823380Y60666667D01*
X47823380Y60809524D01*
X47775761Y60904762D01*
X47728142Y60952381D01*
X47823380Y61428572D02*
X46823380Y61428572D01*
X47204333Y61428572D02*
X47156714Y61523810D01*
X47156714Y61714286D01*
X47204333Y61809524D01*
X47251952Y61857143D01*
X47347190Y61904762D01*
X47632904Y61904762D01*
X47728142Y61857143D01*
X47775761Y61809524D01*
X47823380Y61714286D01*
X47823380Y61523810D01*
X47775761Y61428572D01*
X47728142Y62333334D02*
X47775761Y62380953D01*
X47823380Y62333334D01*
X47775761Y62285715D01*
X47728142Y62333334D01*
X47823380Y62333334D01*
X47775761Y63238096D02*
X47823380Y63142858D01*
X47823380Y62952381D01*
X47775761Y62857143D01*
X47728142Y62809524D01*
X47632904Y62761905D01*
X47347190Y62761905D01*
X47251952Y62809524D01*
X47204333Y62857143D01*
X47156714Y62952381D01*
X47156714Y63142858D01*
X47204333Y63238096D01*
X47823380Y63809524D02*
X47775761Y63714286D01*
X47728142Y63666667D01*
X47632904Y63619048D01*
X47347190Y63619048D01*
X47251952Y63666667D01*
X47204333Y63714286D01*
X47156714Y63809524D01*
X47156714Y63952381D01*
X47204333Y64047620D01*
X47251952Y64095239D01*
X47347190Y64142858D01*
X47632904Y64142858D01*
X47728142Y64095239D01*
X47775761Y64047620D01*
X47823380Y63952381D01*
X47823380Y63809524D01*
X47823380Y64571429D02*
X47156714Y64571429D01*
X47251952Y64571429D02*
X47204333Y64619048D01*
X47156714Y64714286D01*
X47156714Y64857143D01*
X47204333Y64952381D01*
X47299571Y65000000D01*
X47823380Y65000000D01*
X47299571Y65000000D02*
X47204333Y65047620D01*
X47156714Y65142858D01*
X47156714Y65285715D01*
X47204333Y65380953D01*
X47299571Y65428572D01*
X47823380Y65428572D01*
X46775761Y66619048D02*
X48061476Y65761905D01*
X47156714Y66809524D02*
X47156714Y67190477D01*
X46823380Y66952381D02*
X47680523Y66952381D01*
X47775761Y67000000D01*
X47823380Y67095239D01*
X47823380Y67190477D01*
X47775761Y67904762D02*
X47823380Y67809524D01*
X47823380Y67619048D01*
X47775761Y67523810D01*
X47680523Y67476191D01*
X47299571Y67476191D01*
X47204333Y67523810D01*
X47156714Y67619048D01*
X47156714Y67809524D01*
X47204333Y67904762D01*
X47299571Y67952381D01*
X47394809Y67952381D01*
X47490047Y67476191D01*
X47823380Y68380953D02*
X46823380Y68380953D01*
X47204333Y68380953D02*
X47156714Y68476191D01*
X47156714Y68666667D01*
X47204333Y68761905D01*
X47251952Y68809524D01*
X47347190Y68857143D01*
X47632904Y68857143D01*
X47728142Y68809524D01*
X47775761Y68761905D01*
X47823380Y68666667D01*
X47823380Y68476191D01*
X47775761Y68380953D01*
X47823380Y69428572D02*
X47775761Y69333334D01*
X47680523Y69285715D01*
X46823380Y69285715D01*
X47823380Y73668334D02*
X47347190Y73335000D01*
X47823380Y73096905D02*
X46823380Y73096905D01*
X46823380Y73477858D01*
X46871000Y73573096D01*
X46918619Y73620715D01*
X47013857Y73668334D01*
X47156714Y73668334D01*
X47251952Y73620715D01*
X47299571Y73573096D01*
X47347190Y73477858D01*
X47347190Y73096905D01*
X47775761Y74477858D02*
X47823380Y74382620D01*
X47823380Y74192143D01*
X47775761Y74096905D01*
X47680523Y74049286D01*
X47299571Y74049286D01*
X47204333Y74096905D01*
X47156714Y74192143D01*
X47156714Y74382620D01*
X47204333Y74477858D01*
X47299571Y74525477D01*
X47394809Y74525477D01*
X47490047Y74049286D01*
X47156714Y74858810D02*
X47823380Y75096905D01*
X47156714Y75335000D01*
X47823380Y75715953D02*
X47156714Y75715953D01*
X46823380Y75715953D02*
X46871000Y75668334D01*
X46918619Y75715953D01*
X46871000Y75763572D01*
X46823380Y75715953D01*
X46918619Y75715953D01*
X47775761Y76144524D02*
X47823380Y76239762D01*
X47823380Y76430239D01*
X47775761Y76525477D01*
X47680523Y76573096D01*
X47632904Y76573096D01*
X47537666Y76525477D01*
X47490047Y76430239D01*
X47490047Y76287381D01*
X47442428Y76192143D01*
X47347190Y76144524D01*
X47299571Y76144524D01*
X47204333Y76192143D01*
X47156714Y76287381D01*
X47156714Y76430239D01*
X47204333Y76525477D01*
X47823380Y77001667D02*
X47156714Y77001667D01*
X46823380Y77001667D02*
X46871000Y76954048D01*
X46918619Y77001667D01*
X46871000Y77049286D01*
X46823380Y77001667D01*
X46918619Y77001667D01*
X47823380Y77620715D02*
X47775761Y77525477D01*
X47728142Y77477858D01*
X47632904Y77430239D01*
X47347190Y77430239D01*
X47251952Y77477858D01*
X47204333Y77525477D01*
X47156714Y77620715D01*
X47156714Y77763572D01*
X47204333Y77858810D01*
X47251952Y77906429D01*
X47347190Y77954048D01*
X47632904Y77954048D01*
X47728142Y77906429D01*
X47775761Y77858810D01*
X47823380Y77763572D01*
X47823380Y77620715D01*
X47156714Y78382620D02*
X47823380Y78382620D01*
X47251952Y78382620D02*
X47204333Y78430239D01*
X47156714Y78525477D01*
X47156714Y78668334D01*
X47204333Y78763572D01*
X47299571Y78811191D01*
X47823380Y78811191D01*
X47823380Y80049286D02*
X46823380Y80049286D01*
X46823380Y80287381D01*
X46871000Y80430239D01*
X46966238Y80525477D01*
X47061476Y80573096D01*
X47251952Y80620715D01*
X47394809Y80620715D01*
X47585285Y80573096D01*
X47680523Y80525477D01*
X47775761Y80430239D01*
X47823380Y80287381D01*
X47823380Y80049286D01*
D11*
X38481000Y19685000D02*
X28956000Y19685000D01*
X37846000Y17145000D02*
X28956000Y17145000D01*
X38481000Y22225000D02*
X37211000Y22225000D01*
X28956000Y22225000D02*
X30861000Y22225000D01*
X20701000Y17145000D02*
X22606000Y17145000D01*
X20701000Y19685000D02*
X22606000Y19685000D01*
X20701000Y22225000D02*
X22606000Y22225000D01*
X37846000Y17145000D02*
X38481000Y17145000D01*
D10*
X43045333Y10342620D02*
X43045333Y11342620D01*
X43426285Y11342620D01*
X43521523Y11295000D01*
X43569142Y11247381D01*
X43616761Y11152143D01*
X43616761Y11009286D01*
X43569142Y10914048D01*
X43521523Y10866429D01*
X43426285Y10818810D01*
X43045333Y10818810D01*
X44188190Y10342620D02*
X44092952Y10390239D01*
X44045333Y10437858D01*
X43997714Y10533096D01*
X43997714Y10818810D01*
X44045333Y10914048D01*
X44092952Y10961667D01*
X44188190Y11009286D01*
X44331047Y11009286D01*
X44426285Y10961667D01*
X44473904Y10914048D01*
X44521523Y10818810D01*
X44521523Y10533096D01*
X44473904Y10437858D01*
X44426285Y10390239D01*
X44331047Y10342620D01*
X44188190Y10342620D01*
X44950095Y10342620D02*
X44950095Y11009286D01*
X44950095Y10818810D02*
X44997714Y10914048D01*
X45045333Y10961667D01*
X45140571Y11009286D01*
X45235809Y11009286D01*
X45426285Y11009286D02*
X45807238Y11009286D01*
X45569142Y11342620D02*
X45569142Y10485477D01*
X45616761Y10390239D01*
X45712000Y10342620D01*
X45807238Y10342620D01*
X46854857Y11247381D02*
X46902476Y11295000D01*
X46997714Y11342620D01*
X47235809Y11342620D01*
X47331047Y11295000D01*
X47378666Y11247381D01*
X47426285Y11152143D01*
X47426285Y11056905D01*
X47378666Y10914048D01*
X46807238Y10342620D01*
X47426285Y10342620D01*
X32131238Y24312620D02*
X32131238Y25312620D01*
X32369333Y25312620D01*
X32512190Y25265000D01*
X32607428Y25169762D01*
X32655047Y25074524D01*
X32702666Y24884048D01*
X32702666Y24741191D01*
X32655047Y24550715D01*
X32607428Y24455477D01*
X32512190Y24360239D01*
X32369333Y24312620D01*
X32131238Y24312620D01*
X33131238Y24693572D02*
X33893142Y24693572D01*
X34369333Y25312620D02*
X34369333Y24503096D01*
X34416952Y24407858D01*
X34464571Y24360239D01*
X34559809Y24312620D01*
X34750285Y24312620D01*
X34845523Y24360239D01*
X34893142Y24407858D01*
X34940761Y24503096D01*
X34940761Y25312620D01*
X35416952Y24312620D02*
X35416952Y25312620D01*
X35797904Y25312620D01*
X35893142Y25265000D01*
X35940761Y25217381D01*
X35988380Y25122143D01*
X35988380Y24979286D01*
X35940761Y24884048D01*
X35893142Y24836429D01*
X35797904Y24788810D01*
X35416952Y24788810D01*
X25376238Y24836429D02*
X25519095Y24788810D01*
X25566714Y24741191D01*
X25614333Y24645953D01*
X25614333Y24503096D01*
X25566714Y24407858D01*
X25519095Y24360239D01*
X25423857Y24312620D01*
X25042904Y24312620D01*
X25042904Y25312620D01*
X25376238Y25312620D01*
X25471476Y25265000D01*
X25519095Y25217381D01*
X25566714Y25122143D01*
X25566714Y25026905D01*
X25519095Y24931667D01*
X25471476Y24884048D01*
X25376238Y24836429D01*
X25042904Y24836429D01*
X25995285Y25217381D02*
X26042904Y25265000D01*
X26138142Y25312620D01*
X26376238Y25312620D01*
X26471476Y25265000D01*
X26519095Y25217381D01*
X26566714Y25122143D01*
X26566714Y25026905D01*
X26519095Y24884048D01*
X25947666Y24312620D01*
X26566714Y24312620D01*
X17121238Y24836429D02*
X17264095Y24788810D01*
X17311714Y24741191D01*
X17359333Y24645953D01*
X17359333Y24503096D01*
X17311714Y24407858D01*
X17264095Y24360239D01*
X17168857Y24312620D01*
X16787904Y24312620D01*
X16787904Y25312620D01*
X17121238Y25312620D01*
X17216476Y25265000D01*
X17264095Y25217381D01*
X17311714Y25122143D01*
X17311714Y25026905D01*
X17264095Y24931667D01*
X17216476Y24884048D01*
X17121238Y24836429D01*
X16787904Y24836429D01*
X18311714Y24312620D02*
X17740285Y24312620D01*
X18026000Y24312620D02*
X18026000Y25312620D01*
X17930761Y25169762D01*
X17835523Y25074524D01*
X17740285Y25026905D01*
X39403976Y16978334D02*
X39880166Y16978334D01*
X39308738Y16692620D02*
X39642071Y17692620D01*
X39975404Y16692620D01*
X40784928Y16692620D02*
X40308738Y16692620D01*
X40308738Y17692620D01*
X40975404Y17692620D02*
X41546833Y17692620D01*
X41261119Y16692620D02*
X41261119Y17692620D01*
X39451595Y22772620D02*
X39451595Y21963096D01*
X39499214Y21867858D01*
X39546833Y21820239D01*
X39642071Y21772620D01*
X39832547Y21772620D01*
X39927785Y21820239D01*
X39975404Y21867858D01*
X40023023Y21963096D01*
X40023023Y22772620D01*
X40499214Y21772620D02*
X40499214Y22772620D01*
X40880166Y22772620D01*
X40975404Y22725000D01*
X41023023Y22677381D01*
X41070642Y22582143D01*
X41070642Y22439286D01*
X41023023Y22344048D01*
X40975404Y22296429D01*
X40880166Y22248810D01*
X40499214Y22248810D01*
X39784928Y19756429D02*
X39451595Y19756429D01*
X39451595Y19232620D02*
X39451595Y20232620D01*
X39927785Y20232620D01*
X40308738Y19232620D02*
X40308738Y20232620D01*
X41356357Y19232620D02*
X41023023Y19708810D01*
X40784928Y19232620D02*
X40784928Y20232620D01*
X41165880Y20232620D01*
X41261119Y20185000D01*
X41308738Y20137381D01*
X41356357Y20042143D01*
X41356357Y19899286D01*
X41308738Y19804048D01*
X41261119Y19756429D01*
X41165880Y19708810D01*
X40784928Y19708810D01*
X41784928Y19756429D02*
X42118261Y19756429D01*
X42261119Y19232620D02*
X41784928Y19232620D01*
X41784928Y20232620D01*
X42261119Y20232620D01*
D11*
X44831000Y16510000D02*
X44831000Y17145000D01*
X42926000Y16510000D02*
X44831000Y16510000D01*
X42926000Y17145000D02*
X42926000Y16510000D01*
X44831000Y19050000D02*
X44831000Y19685000D01*
X42926000Y19050000D02*
X44831000Y19050000D01*
X42926000Y19685000D02*
X42926000Y19050000D01*
X43561000Y22860000D02*
X44196000Y22860000D01*
X44196000Y23495000D02*
X43561000Y22860000D01*
X44196000Y22860000D02*
X43561000Y23495000D01*
X44831000Y22225000D02*
X44196000Y22225000D01*
X44831000Y22860000D02*
X44831000Y22225000D01*
X44196000Y22860000D02*
X44831000Y22860000D01*
X44196000Y23495000D02*
X44196000Y22860000D01*
X43561000Y23495000D02*
X44196000Y23495000D01*
X43561000Y22860000D02*
X43561000Y23495000D01*
X42926000Y22860000D02*
X43561000Y22860000D01*
X42926000Y22225000D02*
X42926000Y22860000D01*
X43561000Y22225000D02*
X42926000Y22225000D01*
X44196000Y21590000D02*
X44196000Y22225000D01*
X43561000Y21590000D02*
X44196000Y21590000D01*
X43561000Y22225000D02*
X43561000Y21590000D01*
X43561000Y17145000D02*
X42926000Y17145000D01*
X43561000Y17780000D02*
X43561000Y17145000D01*
X44196000Y17780000D02*
X43561000Y17780000D01*
X44196000Y17145000D02*
X44196000Y17780000D01*
X44831000Y17145000D02*
X44196000Y17145000D01*
X43561000Y19685000D02*
X42926000Y19685000D01*
X43561000Y20320000D02*
X43561000Y19685000D01*
X44196000Y20320000D02*
X43561000Y20320000D01*
X44196000Y19685000D02*
X44196000Y20320000D01*
X44831000Y19685000D02*
X44196000Y19685000D01*
D10*
X12161000Y4242143D02*
X11589571Y4242143D01*
X11589571Y5442143D01*
X12561000Y4242143D02*
X12561000Y5042143D01*
X12561000Y5442143D02*
X12503857Y5385000D01*
X12561000Y5327858D01*
X12618142Y5385000D01*
X12561000Y5442143D01*
X12561000Y5327858D01*
X13646714Y4299286D02*
X13532428Y4242143D01*
X13303857Y4242143D01*
X13189571Y4299286D01*
X13132428Y4356429D01*
X13075285Y4470715D01*
X13075285Y4813572D01*
X13132428Y4927858D01*
X13189571Y4985000D01*
X13303857Y5042143D01*
X13532428Y5042143D01*
X13646714Y4985000D01*
X14618142Y4299286D02*
X14503857Y4242143D01*
X14275285Y4242143D01*
X14161000Y4299286D01*
X14103857Y4413572D01*
X14103857Y4870715D01*
X14161000Y4985000D01*
X14275285Y5042143D01*
X14503857Y5042143D01*
X14618142Y4985000D01*
X14675285Y4870715D01*
X14675285Y4756429D01*
X14103857Y4642143D01*
X15189571Y5042143D02*
X15189571Y4242143D01*
X15189571Y4927858D02*
X15246714Y4985000D01*
X15361000Y5042143D01*
X15532428Y5042143D01*
X15646714Y4985000D01*
X15703857Y4870715D01*
X15703857Y4242143D01*
X16218142Y4299286D02*
X16332428Y4242143D01*
X16561000Y4242143D01*
X16675285Y4299286D01*
X16732428Y4413572D01*
X16732428Y4470715D01*
X16675285Y4585000D01*
X16561000Y4642143D01*
X16389571Y4642143D01*
X16275285Y4699286D01*
X16218142Y4813572D01*
X16218142Y4870715D01*
X16275285Y4985000D01*
X16389571Y5042143D01*
X16561000Y5042143D01*
X16675285Y4985000D01*
X17703857Y4299286D02*
X17589571Y4242143D01*
X17361000Y4242143D01*
X17246714Y4299286D01*
X17189571Y4413572D01*
X17189571Y4870715D01*
X17246714Y4985000D01*
X17361000Y5042143D01*
X17589571Y5042143D01*
X17703857Y4985000D01*
X17761000Y4870715D01*
X17761000Y4756429D01*
X17189571Y4642143D01*
X18789571Y4242143D02*
X18789571Y5442143D01*
X18789571Y4299286D02*
X18675285Y4242143D01*
X18446714Y4242143D01*
X18332428Y4299286D01*
X18275285Y4356429D01*
X18218142Y4470715D01*
X18218142Y4813572D01*
X18275285Y4927858D01*
X18332428Y4985000D01*
X18446714Y5042143D01*
X18675285Y5042143D01*
X18789571Y4985000D01*
X20789571Y5042143D02*
X20789571Y4242143D01*
X20275285Y5042143D02*
X20275285Y4413572D01*
X20332428Y4299286D01*
X20446714Y4242143D01*
X20618142Y4242143D01*
X20732428Y4299286D01*
X20789571Y4356429D01*
X21361000Y5042143D02*
X21361000Y4242143D01*
X21361000Y4927858D02*
X21418142Y4985000D01*
X21532428Y5042143D01*
X21703857Y5042143D01*
X21818142Y4985000D01*
X21875285Y4870715D01*
X21875285Y4242143D01*
X22961000Y4242143D02*
X22961000Y5442143D01*
X22961000Y4299286D02*
X22846714Y4242143D01*
X22618142Y4242143D01*
X22503857Y4299286D01*
X22446714Y4356429D01*
X22389571Y4470715D01*
X22389571Y4813572D01*
X22446714Y4927858D01*
X22503857Y4985000D01*
X22618142Y5042143D01*
X22846714Y5042143D01*
X22961000Y4985000D01*
X23989571Y4299286D02*
X23875285Y4242143D01*
X23646714Y4242143D01*
X23532428Y4299286D01*
X23475285Y4413572D01*
X23475285Y4870715D01*
X23532428Y4985000D01*
X23646714Y5042143D01*
X23875285Y5042143D01*
X23989571Y4985000D01*
X24046714Y4870715D01*
X24046714Y4756429D01*
X23475285Y4642143D01*
X24561000Y4242143D02*
X24561000Y5042143D01*
X24561000Y4813572D02*
X24618142Y4927858D01*
X24675285Y4985000D01*
X24789571Y5042143D01*
X24903857Y5042143D01*
X11932428Y2406429D02*
X11875285Y2349286D01*
X11703857Y2292143D01*
X11589571Y2292143D01*
X11418142Y2349286D01*
X11303857Y2463572D01*
X11246714Y2577858D01*
X11189571Y2806429D01*
X11189571Y2977858D01*
X11246714Y3206429D01*
X11303857Y3320715D01*
X11418142Y3435000D01*
X11589571Y3492143D01*
X11703857Y3492143D01*
X11875285Y3435000D01*
X11932428Y3377858D01*
X12446714Y2920715D02*
X12846714Y2920715D01*
X13018142Y2292143D02*
X12446714Y2292143D01*
X12446714Y3492143D01*
X13018142Y3492143D01*
X14218142Y2292143D02*
X13818142Y2863572D01*
X13532428Y2292143D02*
X13532428Y3492143D01*
X13989571Y3492143D01*
X14103857Y3435000D01*
X14161000Y3377858D01*
X14218142Y3263572D01*
X14218142Y3092143D01*
X14161000Y2977858D01*
X14103857Y2920715D01*
X13989571Y2863572D01*
X13532428Y2863572D01*
X14732428Y2292143D02*
X14732428Y3492143D01*
X15418142Y2292143D01*
X15418142Y3492143D01*
X17132428Y3492143D02*
X17361000Y3492143D01*
X17475285Y3435000D01*
X17589571Y3320715D01*
X17646714Y3092143D01*
X17646714Y2692143D01*
X17589571Y2463572D01*
X17475285Y2349286D01*
X17361000Y2292143D01*
X17132428Y2292143D01*
X17018142Y2349286D01*
X16903857Y2463572D01*
X16846714Y2692143D01*
X16846714Y3092143D01*
X16903857Y3320715D01*
X17018142Y3435000D01*
X17132428Y3492143D01*
X18161000Y2292143D02*
X18161000Y3492143D01*
X18161000Y2920715D02*
X18846714Y2920715D01*
X18846714Y2292143D02*
X18846714Y3492143D01*
X19989571Y2292143D02*
X19418142Y2292143D01*
X19418142Y3492143D01*
X21189571Y3092143D02*
X21475285Y2292143D01*
X21761000Y3092143D01*
X22218142Y2406429D02*
X22275285Y2349286D01*
X22218142Y2292143D01*
X22161000Y2349286D01*
X22218142Y2406429D01*
X22218142Y2292143D01*
X23418142Y2292143D02*
X22732428Y2292143D01*
X23075285Y2292143D02*
X23075285Y3492143D01*
X22961000Y3320715D01*
X22846714Y3206429D01*
X22732428Y3149286D01*
X23932428Y2406429D02*
X23989571Y2349286D01*
X23932428Y2292143D01*
X23875285Y2349286D01*
X23932428Y2406429D01*
X23932428Y2292143D01*
X24446714Y3377858D02*
X24503857Y3435000D01*
X24618142Y3492143D01*
X24903857Y3492143D01*
X25018142Y3435000D01*
X25075285Y3377858D01*
X25132428Y3263572D01*
X25132428Y3149286D01*
X25075285Y2977858D01*
X24389571Y2292143D01*
X25132428Y2292143D01*
X35425333Y10342620D02*
X35425333Y11342620D01*
X35806285Y11342620D01*
X35901523Y11295000D01*
X35949142Y11247381D01*
X35996761Y11152143D01*
X35996761Y11009286D01*
X35949142Y10914048D01*
X35901523Y10866429D01*
X35806285Y10818810D01*
X35425333Y10818810D01*
X36568190Y10342620D02*
X36472952Y10390239D01*
X36425333Y10437858D01*
X36377714Y10533096D01*
X36377714Y10818810D01*
X36425333Y10914048D01*
X36472952Y10961667D01*
X36568190Y11009286D01*
X36711047Y11009286D01*
X36806285Y10961667D01*
X36853904Y10914048D01*
X36901523Y10818810D01*
X36901523Y10533096D01*
X36853904Y10437858D01*
X36806285Y10390239D01*
X36711047Y10342620D01*
X36568190Y10342620D01*
X37330095Y10342620D02*
X37330095Y11009286D01*
X37330095Y10818810D02*
X37377714Y10914048D01*
X37425333Y10961667D01*
X37520571Y11009286D01*
X37615809Y11009286D01*
X37806285Y11009286D02*
X38187238Y11009286D01*
X37949142Y11342620D02*
X37949142Y10485477D01*
X37996761Y10390239D01*
X38092000Y10342620D01*
X38187238Y10342620D01*
X39806285Y10342620D02*
X39234857Y10342620D01*
X39520571Y10342620D02*
X39520571Y11342620D01*
X39425333Y11199762D01*
X39330095Y11104524D01*
X39234857Y11056905D01*
D12*
%TO.C,J2*%
X-2524000Y82000000D02*
X9816000Y82000000D01*
X9816000Y82000000D02*
X9816000Y51030000D01*
X9816000Y51030000D02*
X-2524000Y51030000D01*
%TO.C,J1*%
X-2524000Y50800000D02*
X9816000Y50800000D01*
X9816000Y50800000D02*
X9816000Y19830000D01*
X9816000Y19830000D02*
X-2524000Y19830000D01*
%TO.C,R2*%
X22571000Y40680000D02*
X22571000Y38060000D01*
X22571000Y38060000D02*
X28991000Y38060000D01*
X28991000Y38060000D02*
X28991000Y40680000D01*
X28991000Y40680000D02*
X22571000Y40680000D01*
X21681000Y39370000D02*
X22571000Y39370000D01*
X29881000Y39370000D02*
X28991000Y39370000D01*
%TO.C,D1*%
X16851000Y78740000D02*
G75*
G03*
X16851000Y78740000I-2500000J0D01*
G01*
X12806000Y76180000D02*
X15896000Y76180000D01*
X14351462Y81730000D02*
G75*
G03*
X12806170Y76180000I-462J-2990000D01*
G01*
X14350538Y81730000D02*
G75*
G02*
X15895830Y76180000I462J-2990000D01*
G01*
%TO.C,D2*%
X16851000Y47625000D02*
G75*
G03*
X16851000Y47625000I-2500000J0D01*
G01*
X12806000Y45065000D02*
X15896000Y45065000D01*
X14351462Y50615000D02*
G75*
G03*
X12806170Y45065000I-462J-2990000D01*
G01*
X14350538Y50615000D02*
G75*
G02*
X15895830Y45065000I462J-2990000D01*
G01*
%TO.C,J3*%
X2247000Y855000D02*
X2247000Y13195000D01*
X2247000Y13195000D02*
X33217000Y13195000D01*
X33217000Y13195000D02*
X33217000Y855000D01*
%TO.C,JP1*%
X36636000Y20895000D02*
X36636000Y23555000D01*
X34036000Y20895000D02*
X36636000Y20895000D01*
X34036000Y23555000D02*
X36636000Y23555000D01*
X34036000Y20895000D02*
X34036000Y23555000D01*
X32766000Y20895000D02*
X31436000Y20895000D01*
X31436000Y20895000D02*
X31436000Y22225000D01*
%TO.C,R1*%
X22571000Y44490000D02*
X22571000Y41870000D01*
X22571000Y41870000D02*
X28991000Y41870000D01*
X28991000Y41870000D02*
X28991000Y44490000D01*
X28991000Y44490000D02*
X22571000Y44490000D01*
X21681000Y43180000D02*
X22571000Y43180000D01*
X29881000Y43180000D02*
X28991000Y43180000D01*
%TO.C,R3*%
X13756000Y71155000D02*
X11136000Y71155000D01*
X11136000Y71155000D02*
X11136000Y64735000D01*
X11136000Y64735000D02*
X13756000Y64735000D01*
X13756000Y64735000D02*
X13756000Y71155000D01*
X12446000Y72045000D02*
X12446000Y71155000D01*
X12446000Y63845000D02*
X12446000Y64735000D01*
%TO.C,R4*%
X17566000Y71155000D02*
X14946000Y71155000D01*
X14946000Y71155000D02*
X14946000Y64735000D01*
X14946000Y64735000D02*
X17566000Y64735000D01*
X17566000Y64735000D02*
X17566000Y71155000D01*
X16256000Y72045000D02*
X16256000Y71155000D01*
X16256000Y63845000D02*
X16256000Y64735000D01*
%TO.C,SW1*%
X40806000Y2905000D02*
X40806000Y7405000D01*
X36806000Y1655000D02*
X38306000Y1655000D01*
X34306000Y7405000D02*
X34306000Y2905000D01*
X38306000Y8655000D02*
X36806000Y8655000D01*
%TO.C,SW2*%
X48426000Y2905000D02*
X48426000Y7405000D01*
X44426000Y1655000D02*
X45926000Y1655000D01*
X41926000Y7405000D02*
X41926000Y2905000D01*
X45926000Y8655000D02*
X44426000Y8655000D01*
%TO.C,U1*%
X24781000Y77530000D02*
X23131000Y77530000D01*
X23131000Y77530000D02*
X23131000Y57090000D01*
X23131000Y57090000D02*
X28431000Y57090000D01*
X28431000Y57090000D02*
X28431000Y77530000D01*
X28431000Y77530000D02*
X26781000Y77530000D01*
X20641000Y77590000D02*
X20641000Y57030000D01*
X20641000Y57030000D02*
X30921000Y57030000D01*
X30921000Y57030000D02*
X30921000Y77590000D01*
X30921000Y77590000D02*
X20641000Y77590000D01*
X26781000Y77530000D02*
G75*
G02*
X24781000Y77530000I-1000000J0D01*
G01*
%TO.C,U2*%
X39386000Y77530000D02*
X37736000Y77530000D01*
X37736000Y77530000D02*
X37736000Y57090000D01*
X37736000Y57090000D02*
X43036000Y57090000D01*
X43036000Y57090000D02*
X43036000Y77530000D01*
X43036000Y77530000D02*
X41386000Y77530000D01*
X35246000Y77590000D02*
X35246000Y57030000D01*
X35246000Y57030000D02*
X45526000Y57030000D01*
X45526000Y57030000D02*
X45526000Y77590000D01*
X45526000Y77590000D02*
X35246000Y77590000D01*
X41386000Y77530000D02*
G75*
G02*
X39386000Y77530000I-1000000J0D01*
G01*
%TO.C,U3*%
X39386000Y52130000D02*
X37736000Y52130000D01*
X37736000Y52130000D02*
X37736000Y41850000D01*
X37736000Y41850000D02*
X43036000Y41850000D01*
X43036000Y41850000D02*
X43036000Y52130000D01*
X43036000Y52130000D02*
X41386000Y52130000D01*
X35246000Y52190000D02*
X35246000Y41790000D01*
X35246000Y41790000D02*
X45526000Y41790000D01*
X45526000Y41790000D02*
X45526000Y52190000D01*
X45526000Y52190000D02*
X35246000Y52190000D01*
X41386000Y52130000D02*
G75*
G02*
X39386000Y52130000I-1000000J0D01*
G01*
%TO.C,C1*%
X28231000Y78700000D02*
X23411000Y78700000D01*
X28231000Y81320000D02*
X23411000Y81320000D01*
X28231000Y78700000D02*
X28231000Y79014000D01*
X28231000Y81006000D02*
X28231000Y81320000D01*
X23411000Y78700000D02*
X23411000Y79014000D01*
X23411000Y81006000D02*
X23411000Y81320000D01*
%TO.C,C2*%
X42836000Y78700000D02*
X38016000Y78700000D01*
X42836000Y81320000D02*
X38016000Y81320000D01*
X42836000Y78700000D02*
X42836000Y79014000D01*
X42836000Y81006000D02*
X42836000Y81320000D01*
X38016000Y78700000D02*
X38016000Y79014000D01*
X38016000Y81006000D02*
X38016000Y81320000D01*
%TO.C,C3*%
X42836000Y53300000D02*
X38016000Y53300000D01*
X42836000Y55920000D02*
X38016000Y55920000D01*
X42836000Y53300000D02*
X42836000Y53614000D01*
X42836000Y55606000D02*
X42836000Y55920000D01*
X38016000Y53300000D02*
X38016000Y53614000D01*
X38016000Y55606000D02*
X38016000Y55920000D01*
%TO.C,Q1*%
X16201000Y53445000D02*
X16201000Y57045000D01*
X15473795Y52920816D02*
G75*
G03*
X16201000Y53445000I-1122795J2324184D01*
G01*
X13252193Y52888600D02*
G75*
G02*
X11751000Y55245000I1098807J2356400D01*
G01*
X13252193Y57601400D02*
G75*
G03*
X11751000Y55245000I1098807J-2356400D01*
G01*
X15473795Y57569184D02*
G75*
G02*
X16201000Y57045000I-1122795J-2324184D01*
G01*
%TO.C,R5*%
X22571000Y52110000D02*
X22571000Y49490000D01*
X22571000Y49490000D02*
X28991000Y49490000D01*
X28991000Y49490000D02*
X28991000Y52110000D01*
X28991000Y52110000D02*
X22571000Y52110000D01*
X21681000Y50800000D02*
X22571000Y50800000D01*
X29881000Y50800000D02*
X28991000Y50800000D01*
%TO.C,R6*%
X22571000Y55920000D02*
X22571000Y53300000D01*
X22571000Y53300000D02*
X28991000Y53300000D01*
X28991000Y53300000D02*
X28991000Y55920000D01*
X28991000Y55920000D02*
X22571000Y55920000D01*
X21681000Y54610000D02*
X22571000Y54610000D01*
X29881000Y54610000D02*
X28991000Y54610000D01*
%TO.C,R7*%
X22571000Y48300000D02*
X22571000Y45680000D01*
X22571000Y45680000D02*
X28991000Y45680000D01*
X28991000Y45680000D02*
X28991000Y48300000D01*
X28991000Y48300000D02*
X22571000Y48300000D01*
X21681000Y46990000D02*
X22571000Y46990000D01*
X29881000Y46990000D02*
X28991000Y46990000D01*
%TO.C,J4*%
X23181000Y15815000D02*
X28381000Y15815000D01*
X23181000Y20955000D02*
X23181000Y15815000D01*
X28381000Y23555000D02*
X28381000Y15815000D01*
X23181000Y20955000D02*
X25781000Y20955000D01*
X25781000Y20955000D02*
X25781000Y23555000D01*
X25781000Y23555000D02*
X28381000Y23555000D01*
X23181000Y22225000D02*
X23181000Y23555000D01*
X23181000Y23555000D02*
X24511000Y23555000D01*
%TO.C,J5*%
X14926000Y15815000D02*
X20126000Y15815000D01*
X14926000Y20955000D02*
X14926000Y15815000D01*
X20126000Y23555000D02*
X20126000Y15815000D01*
X14926000Y20955000D02*
X17526000Y20955000D01*
X17526000Y20955000D02*
X17526000Y23555000D01*
X17526000Y23555000D02*
X20126000Y23555000D01*
X14926000Y22225000D02*
X14926000Y23555000D01*
X14926000Y23555000D02*
X16256000Y23555000D01*
%TO.C,R9*%
X14951000Y36235000D02*
X14951000Y33615000D01*
X14951000Y33615000D02*
X21371000Y33615000D01*
X21371000Y33615000D02*
X21371000Y36235000D01*
X21371000Y36235000D02*
X14951000Y36235000D01*
X14061000Y34925000D02*
X14951000Y34925000D01*
X22261000Y34925000D02*
X21371000Y34925000D01*
%TO.C,RV1*%
X32901000Y28060000D02*
X32901000Y27810000D01*
X32901000Y27810000D02*
X32651000Y27810000D01*
X32651000Y27810000D02*
X32651000Y27560000D01*
X32651000Y27560000D02*
X31401000Y27560000D01*
X31401000Y27560000D02*
X31401000Y27810000D01*
X31401000Y27810000D02*
X27751000Y27810000D01*
X27751000Y27810000D02*
X27751000Y27560000D01*
X27751000Y27560000D02*
X26451000Y27560000D01*
X26451000Y27560000D02*
X26451000Y27810000D01*
X26451000Y27810000D02*
X26151000Y27810000D01*
X26151000Y27810000D02*
X26151000Y28060000D01*
X30701000Y35110000D02*
X31601000Y35110000D01*
X31601000Y35110000D02*
X32951000Y33610000D01*
X32951000Y33610000D02*
X32951000Y30310000D01*
X26151000Y30310000D02*
X26151000Y33660000D01*
X26151000Y33660000D02*
X27501000Y35110000D01*
X27501000Y35110000D02*
X28401000Y35110000D01*
%TO.C,U4*%
X39386000Y36890000D02*
X37736000Y36890000D01*
X37736000Y36890000D02*
X37736000Y26610000D01*
X37736000Y26610000D02*
X43036000Y26610000D01*
X43036000Y26610000D02*
X43036000Y36890000D01*
X43036000Y36890000D02*
X41386000Y36890000D01*
X35246000Y36950000D02*
X35246000Y26550000D01*
X35246000Y26550000D02*
X45526000Y26550000D01*
X45526000Y26550000D02*
X45526000Y36950000D01*
X45526000Y36950000D02*
X35246000Y36950000D01*
X41386000Y36890000D02*
G75*
G02*
X39386000Y36890000I-1000000J0D01*
G01*
%TO.C,C4*%
X42836000Y38060000D02*
X38016000Y38060000D01*
X42836000Y40680000D02*
X38016000Y40680000D01*
X42836000Y38060000D02*
X42836000Y38374000D01*
X42836000Y40366000D02*
X42836000Y40680000D01*
X38016000Y38060000D02*
X38016000Y38374000D01*
X38016000Y40366000D02*
X38016000Y40680000D01*
%TO.C,C5*%
X11801000Y39985000D02*
X16901000Y39985000D01*
X11801000Y40025000D02*
X16901000Y40025000D01*
X11802000Y40065000D02*
X16900000Y40065000D01*
X11803000Y40105000D02*
X16899000Y40105000D01*
X11805000Y40145000D02*
X16897000Y40145000D01*
X11808000Y40185000D02*
X16894000Y40185000D01*
X11812000Y40225000D02*
X16890000Y40225000D01*
X11816000Y40265000D02*
X13371000Y40265000D01*
X15331000Y40265000D02*
X16886000Y40265000D01*
X11820000Y40305000D02*
X13371000Y40305000D01*
X15331000Y40305000D02*
X16882000Y40305000D01*
X11826000Y40345000D02*
X13371000Y40345000D01*
X15331000Y40345000D02*
X16876000Y40345000D01*
X11832000Y40385000D02*
X13371000Y40385000D01*
X15331000Y40385000D02*
X16870000Y40385000D01*
X11838000Y40425000D02*
X13371000Y40425000D01*
X15331000Y40425000D02*
X16864000Y40425000D01*
X11845000Y40465000D02*
X13371000Y40465000D01*
X15331000Y40465000D02*
X16857000Y40465000D01*
X11853000Y40505000D02*
X13371000Y40505000D01*
X15331000Y40505000D02*
X16849000Y40505000D01*
X11862000Y40545000D02*
X13371000Y40545000D01*
X15331000Y40545000D02*
X16840000Y40545000D01*
X11871000Y40585000D02*
X13371000Y40585000D01*
X15331000Y40585000D02*
X16831000Y40585000D01*
X11881000Y40625000D02*
X13371000Y40625000D01*
X15331000Y40625000D02*
X16821000Y40625000D01*
X11891000Y40665000D02*
X13371000Y40665000D01*
X15331000Y40665000D02*
X16811000Y40665000D01*
X11903000Y40706000D02*
X13371000Y40706000D01*
X15331000Y40706000D02*
X16799000Y40706000D01*
X11915000Y40746000D02*
X13371000Y40746000D01*
X15331000Y40746000D02*
X16787000Y40746000D01*
X11927000Y40786000D02*
X13371000Y40786000D01*
X15331000Y40786000D02*
X16775000Y40786000D01*
X11941000Y40826000D02*
X13371000Y40826000D01*
X15331000Y40826000D02*
X16761000Y40826000D01*
X11955000Y40866000D02*
X13371000Y40866000D01*
X15331000Y40866000D02*
X16747000Y40866000D01*
X11969000Y40906000D02*
X13371000Y40906000D01*
X15331000Y40906000D02*
X16733000Y40906000D01*
X11985000Y40946000D02*
X13371000Y40946000D01*
X15331000Y40946000D02*
X16717000Y40946000D01*
X12001000Y40986000D02*
X13371000Y40986000D01*
X15331000Y40986000D02*
X16701000Y40986000D01*
X12018000Y41026000D02*
X13371000Y41026000D01*
X15331000Y41026000D02*
X16684000Y41026000D01*
X12036000Y41066000D02*
X13371000Y41066000D01*
X15331000Y41066000D02*
X16666000Y41066000D01*
X12055000Y41106000D02*
X13371000Y41106000D01*
X15331000Y41106000D02*
X16647000Y41106000D01*
X12075000Y41146000D02*
X13371000Y41146000D01*
X15331000Y41146000D02*
X16627000Y41146000D01*
X12095000Y41186000D02*
X13371000Y41186000D01*
X15331000Y41186000D02*
X16607000Y41186000D01*
X12117000Y41226000D02*
X13371000Y41226000D01*
X15331000Y41226000D02*
X16585000Y41226000D01*
X12139000Y41266000D02*
X13371000Y41266000D01*
X15331000Y41266000D02*
X16563000Y41266000D01*
X12162000Y41306000D02*
X13371000Y41306000D01*
X15331000Y41306000D02*
X16540000Y41306000D01*
X12186000Y41346000D02*
X13371000Y41346000D01*
X15331000Y41346000D02*
X16516000Y41346000D01*
X12211000Y41386000D02*
X13371000Y41386000D01*
X15331000Y41386000D02*
X16491000Y41386000D01*
X12238000Y41426000D02*
X13371000Y41426000D01*
X15331000Y41426000D02*
X16464000Y41426000D01*
X12265000Y41466000D02*
X13371000Y41466000D01*
X15331000Y41466000D02*
X16437000Y41466000D01*
X12293000Y41506000D02*
X13371000Y41506000D01*
X15331000Y41506000D02*
X16409000Y41506000D01*
X12323000Y41546000D02*
X13371000Y41546000D01*
X15331000Y41546000D02*
X16379000Y41546000D01*
X12354000Y41586000D02*
X13371000Y41586000D01*
X15331000Y41586000D02*
X16348000Y41586000D01*
X12386000Y41626000D02*
X13371000Y41626000D01*
X15331000Y41626000D02*
X16316000Y41626000D01*
X12419000Y41666000D02*
X13371000Y41666000D01*
X15331000Y41666000D02*
X16283000Y41666000D01*
X12454000Y41706000D02*
X13371000Y41706000D01*
X15331000Y41706000D02*
X16248000Y41706000D01*
X12490000Y41746000D02*
X13371000Y41746000D01*
X15331000Y41746000D02*
X16212000Y41746000D01*
X12528000Y41786000D02*
X13371000Y41786000D01*
X15331000Y41786000D02*
X16174000Y41786000D01*
X12568000Y41826000D02*
X13371000Y41826000D01*
X15331000Y41826000D02*
X16134000Y41826000D01*
X12609000Y41866000D02*
X13371000Y41866000D01*
X15331000Y41866000D02*
X16093000Y41866000D01*
X12652000Y41906000D02*
X13371000Y41906000D01*
X15331000Y41906000D02*
X16050000Y41906000D01*
X12697000Y41946000D02*
X13371000Y41946000D01*
X15331000Y41946000D02*
X16005000Y41946000D01*
X12745000Y41986000D02*
X13371000Y41986000D01*
X15331000Y41986000D02*
X15957000Y41986000D01*
X12795000Y42026000D02*
X13371000Y42026000D01*
X15331000Y42026000D02*
X15907000Y42026000D01*
X12847000Y42066000D02*
X13371000Y42066000D01*
X15331000Y42066000D02*
X15855000Y42066000D01*
X12903000Y42106000D02*
X13371000Y42106000D01*
X15331000Y42106000D02*
X15799000Y42106000D01*
X12961000Y42146000D02*
X13371000Y42146000D01*
X15331000Y42146000D02*
X15741000Y42146000D01*
X13024000Y42186000D02*
X13371000Y42186000D01*
X15331000Y42186000D02*
X15678000Y42186000D01*
X13090000Y42226000D02*
X15612000Y42226000D01*
X13162000Y42266000D02*
X15540000Y42266000D01*
X13239000Y42306000D02*
X15463000Y42306000D01*
X13323000Y42346000D02*
X15379000Y42346000D01*
X13417000Y42386000D02*
X15285000Y42386000D01*
X13522000Y42426000D02*
X15180000Y42426000D01*
X13644000Y42466000D02*
X15058000Y42466000D01*
X13792000Y42506000D02*
X14910000Y42506000D01*
X13997000Y42546000D02*
X14705000Y42546000D01*
X14351000Y36535000D02*
X14351000Y37735000D01*
X13701000Y37135000D02*
X15001000Y37135000D01*
X13171277Y42290722D02*
G75*
G03*
X13171000Y37679420I1179723J-2305722D01*
G01*
X15530723Y42290722D02*
G75*
G02*
X15531000Y37679420I-1179723J-2305722D01*
G01*
X15530723Y42290722D02*
G75*
G03*
X13171000Y42290580I-1179723J-2305722D01*
G01*
%TO.C,JP2*%
X21396000Y27880000D02*
X21396000Y30540000D01*
X16256000Y27880000D02*
X21396000Y27880000D01*
X16256000Y30540000D02*
X21396000Y30540000D01*
X16256000Y27880000D02*
X16256000Y30540000D01*
X14986000Y27880000D02*
X13656000Y27880000D01*
X13656000Y27880000D02*
X13656000Y29210000D01*
%TO.C,J2*%
D10*
X2103380Y58793334D02*
X1103380Y58793334D01*
X1103380Y59174286D01*
X1151000Y59269524D01*
X1198619Y59317143D01*
X1293857Y59364762D01*
X1436714Y59364762D01*
X1531952Y59317143D01*
X1579571Y59269524D01*
X1627190Y59174286D01*
X1627190Y58793334D01*
X2103380Y59936191D02*
X2055761Y59840953D01*
X2008142Y59793334D01*
X1912904Y59745715D01*
X1627190Y59745715D01*
X1531952Y59793334D01*
X1484333Y59840953D01*
X1436714Y59936191D01*
X1436714Y60079048D01*
X1484333Y60174286D01*
X1531952Y60221905D01*
X1627190Y60269524D01*
X1912904Y60269524D01*
X2008142Y60221905D01*
X2055761Y60174286D01*
X2103380Y60079048D01*
X2103380Y59936191D01*
X2103380Y60698096D02*
X1436714Y60698096D01*
X1627190Y60698096D02*
X1531952Y60745715D01*
X1484333Y60793334D01*
X1436714Y60888572D01*
X1436714Y60983810D01*
X1436714Y61174286D02*
X1436714Y61555239D01*
X1103380Y61317143D02*
X1960523Y61317143D01*
X2055761Y61364762D01*
X2103380Y61460000D01*
X2103380Y61555239D01*
X1198619Y62602858D02*
X1151000Y62650477D01*
X1103380Y62745715D01*
X1103380Y62983810D01*
X1151000Y63079048D01*
X1198619Y63126667D01*
X1293857Y63174286D01*
X1389095Y63174286D01*
X1531952Y63126667D01*
X2103380Y62555239D01*
X2103380Y63174286D01*
%TO.C,J1*%
X2103380Y27678334D02*
X1103380Y27678334D01*
X1103380Y28059286D01*
X1151000Y28154524D01*
X1198619Y28202143D01*
X1293857Y28249762D01*
X1436714Y28249762D01*
X1531952Y28202143D01*
X1579571Y28154524D01*
X1627190Y28059286D01*
X1627190Y27678334D01*
X2103380Y28821191D02*
X2055761Y28725953D01*
X2008142Y28678334D01*
X1912904Y28630715D01*
X1627190Y28630715D01*
X1531952Y28678334D01*
X1484333Y28725953D01*
X1436714Y28821191D01*
X1436714Y28964048D01*
X1484333Y29059286D01*
X1531952Y29106905D01*
X1627190Y29154524D01*
X1912904Y29154524D01*
X2008142Y29106905D01*
X2055761Y29059286D01*
X2103380Y28964048D01*
X2103380Y28821191D01*
X2103380Y29583096D02*
X1436714Y29583096D01*
X1627190Y29583096D02*
X1531952Y29630715D01*
X1484333Y29678334D01*
X1436714Y29773572D01*
X1436714Y29868810D01*
X1436714Y30059286D02*
X1436714Y30440239D01*
X1103380Y30202143D02*
X1960523Y30202143D01*
X2055761Y30249762D01*
X2103380Y30345000D01*
X2103380Y30440239D01*
X2103380Y32059286D02*
X2103380Y31487858D01*
X2103380Y31773572D02*
X1103380Y31773572D01*
X1246238Y31678334D01*
X1341476Y31583096D01*
X1389095Y31487858D01*
%TO.C,R2*%
X24455380Y39203334D02*
X23979190Y38870000D01*
X24455380Y38631905D02*
X23455380Y38631905D01*
X23455380Y39012858D01*
X23503000Y39108096D01*
X23550619Y39155715D01*
X23645857Y39203334D01*
X23788714Y39203334D01*
X23883952Y39155715D01*
X23931571Y39108096D01*
X23979190Y39012858D01*
X23979190Y38631905D01*
X23550619Y39584286D02*
X23503000Y39631905D01*
X23455380Y39727143D01*
X23455380Y39965239D01*
X23503000Y40060477D01*
X23550619Y40108096D01*
X23645857Y40155715D01*
X23741095Y40155715D01*
X23883952Y40108096D01*
X24455380Y39536667D01*
X24455380Y40155715D01*
X26455761Y38917620D02*
X25884333Y38917620D01*
X26170047Y38917620D02*
X26170047Y39917620D01*
X26074809Y39774762D01*
X25979571Y39679524D01*
X25884333Y39631905D01*
X27074809Y39917620D02*
X27170047Y39917620D01*
X27265285Y39870000D01*
X27312904Y39822381D01*
X27360523Y39727143D01*
X27408142Y39536667D01*
X27408142Y39298572D01*
X27360523Y39108096D01*
X27312904Y39012858D01*
X27265285Y38965239D01*
X27170047Y38917620D01*
X27074809Y38917620D01*
X26979571Y38965239D01*
X26931952Y39012858D01*
X26884333Y39108096D01*
X26836714Y39298572D01*
X26836714Y39536667D01*
X26884333Y39727143D01*
X26931952Y39822381D01*
X26979571Y39870000D01*
X27074809Y39917620D01*
X27836714Y38917620D02*
X27836714Y39917620D01*
X27931952Y39298572D02*
X28217666Y38917620D01*
X28217666Y39584286D02*
X27836714Y39203334D01*
%TO.C,R1*%
X24455380Y43267334D02*
X23979190Y42934000D01*
X24455380Y42695905D02*
X23455380Y42695905D01*
X23455380Y43076858D01*
X23503000Y43172096D01*
X23550619Y43219715D01*
X23645857Y43267334D01*
X23788714Y43267334D01*
X23883952Y43219715D01*
X23931571Y43172096D01*
X23979190Y43076858D01*
X23979190Y42695905D01*
X24455380Y44219715D02*
X24455380Y43648286D01*
X24455380Y43934000D02*
X23455380Y43934000D01*
X23598238Y43838762D01*
X23693476Y43743524D01*
X23741095Y43648286D01*
X26455761Y42727620D02*
X25884333Y42727620D01*
X26170047Y42727620D02*
X26170047Y43727620D01*
X26074809Y43584762D01*
X25979571Y43489524D01*
X25884333Y43441905D01*
X27074809Y43727620D02*
X27170047Y43727620D01*
X27265285Y43680000D01*
X27312904Y43632381D01*
X27360523Y43537143D01*
X27408142Y43346667D01*
X27408142Y43108572D01*
X27360523Y42918096D01*
X27312904Y42822858D01*
X27265285Y42775239D01*
X27170047Y42727620D01*
X27074809Y42727620D01*
X26979571Y42775239D01*
X26931952Y42822858D01*
X26884333Y42918096D01*
X26836714Y43108572D01*
X26836714Y43346667D01*
X26884333Y43537143D01*
X26931952Y43632381D01*
X26979571Y43680000D01*
X27074809Y43727620D01*
X27836714Y42727620D02*
X27836714Y43727620D01*
X27931952Y43108572D02*
X28217666Y42727620D01*
X28217666Y43394286D02*
X27836714Y43013334D01*
%TO.C,R3*%
X12279333Y69524620D02*
X11946000Y70000810D01*
X11707904Y69524620D02*
X11707904Y70524620D01*
X12088857Y70524620D01*
X12184095Y70477000D01*
X12231714Y70429381D01*
X12279333Y70334143D01*
X12279333Y70191286D01*
X12231714Y70096048D01*
X12184095Y70048429D01*
X12088857Y70000810D01*
X11707904Y70000810D01*
X12612666Y70524620D02*
X13231714Y70524620D01*
X12898380Y70143667D01*
X13041238Y70143667D01*
X13136476Y70096048D01*
X13184095Y70048429D01*
X13231714Y69953191D01*
X13231714Y69715096D01*
X13184095Y69619858D01*
X13136476Y69572239D01*
X13041238Y69524620D01*
X12755523Y69524620D01*
X12660285Y69572239D01*
X12612666Y69619858D01*
X11993619Y65436905D02*
X11946000Y65484524D01*
X11898380Y65579762D01*
X11898380Y65817858D01*
X11946000Y65913096D01*
X11993619Y65960715D01*
X12088857Y66008334D01*
X12184095Y66008334D01*
X12326952Y65960715D01*
X12898380Y65389286D01*
X12898380Y66008334D01*
X11993619Y66389286D02*
X11946000Y66436905D01*
X11898380Y66532143D01*
X11898380Y66770239D01*
X11946000Y66865477D01*
X11993619Y66913096D01*
X12088857Y66960715D01*
X12184095Y66960715D01*
X12326952Y66913096D01*
X12898380Y66341667D01*
X12898380Y66960715D01*
X11898380Y67579762D02*
X11898380Y67675000D01*
X11946000Y67770239D01*
X11993619Y67817858D01*
X12088857Y67865477D01*
X12279333Y67913096D01*
X12517428Y67913096D01*
X12707904Y67865477D01*
X12803142Y67817858D01*
X12850761Y67770239D01*
X12898380Y67675000D01*
X12898380Y67579762D01*
X12850761Y67484524D01*
X12803142Y67436905D01*
X12707904Y67389286D01*
X12517428Y67341667D01*
X12279333Y67341667D01*
X12088857Y67389286D01*
X11993619Y67436905D01*
X11946000Y67484524D01*
X11898380Y67579762D01*
%TO.C,R4*%
X16089333Y69524620D02*
X15756000Y70000810D01*
X15517904Y69524620D02*
X15517904Y70524620D01*
X15898857Y70524620D01*
X15994095Y70477000D01*
X16041714Y70429381D01*
X16089333Y70334143D01*
X16089333Y70191286D01*
X16041714Y70096048D01*
X15994095Y70048429D01*
X15898857Y70000810D01*
X15517904Y70000810D01*
X16946476Y70191286D02*
X16946476Y69524620D01*
X16708380Y70572239D02*
X16470285Y69857953D01*
X17089333Y69857953D01*
X15803619Y65436905D02*
X15756000Y65484524D01*
X15708380Y65579762D01*
X15708380Y65817858D01*
X15756000Y65913096D01*
X15803619Y65960715D01*
X15898857Y66008334D01*
X15994095Y66008334D01*
X16136952Y65960715D01*
X16708380Y65389286D01*
X16708380Y66008334D01*
X15803619Y66389286D02*
X15756000Y66436905D01*
X15708380Y66532143D01*
X15708380Y66770239D01*
X15756000Y66865477D01*
X15803619Y66913096D01*
X15898857Y66960715D01*
X15994095Y66960715D01*
X16136952Y66913096D01*
X16708380Y66341667D01*
X16708380Y66960715D01*
X15708380Y67579762D02*
X15708380Y67675000D01*
X15756000Y67770239D01*
X15803619Y67817858D01*
X15898857Y67865477D01*
X16089333Y67913096D01*
X16327428Y67913096D01*
X16517904Y67865477D01*
X16613142Y67817858D01*
X16660761Y67770239D01*
X16708380Y67675000D01*
X16708380Y67579762D01*
X16660761Y67484524D01*
X16613142Y67436905D01*
X16517904Y67389286D01*
X16327428Y67341667D01*
X16089333Y67341667D01*
X15898857Y67389286D01*
X15803619Y67436905D01*
X15756000Y67484524D01*
X15708380Y67579762D01*
%TO.C,U1*%
X25019095Y74207620D02*
X25019095Y73398096D01*
X25066714Y73302858D01*
X25114333Y73255239D01*
X25209571Y73207620D01*
X25400047Y73207620D01*
X25495285Y73255239D01*
X25542904Y73302858D01*
X25590523Y73398096D01*
X25590523Y74207620D01*
X26590523Y73207620D02*
X26019095Y73207620D01*
X26304809Y73207620D02*
X26304809Y74207620D01*
X26209571Y74064762D01*
X26114333Y73969524D01*
X26019095Y73921905D01*
X25233380Y63190953D02*
X25233380Y63857620D01*
X26233380Y63429048D01*
X25566714Y64667143D02*
X26233380Y64667143D01*
X25185761Y64429048D02*
X25900047Y64190953D01*
X25900047Y64810000D01*
X26233380Y65190953D02*
X25233380Y65190953D01*
X25709571Y65190953D02*
X25709571Y65762381D01*
X26233380Y65762381D02*
X25233380Y65762381D01*
X26138142Y66810000D02*
X26185761Y66762381D01*
X26233380Y66619524D01*
X26233380Y66524286D01*
X26185761Y66381429D01*
X26090523Y66286191D01*
X25995285Y66238572D01*
X25804809Y66190953D01*
X25661952Y66190953D01*
X25471476Y66238572D01*
X25376238Y66286191D01*
X25281000Y66381429D01*
X25233380Y66524286D01*
X25233380Y66619524D01*
X25281000Y66762381D01*
X25328619Y66810000D01*
X25233380Y67095715D02*
X25233380Y67667143D01*
X26233380Y67381429D02*
X25233380Y67381429D01*
X25566714Y68429048D02*
X26233380Y68429048D01*
X25185761Y68190953D02*
X25900047Y67952858D01*
X25900047Y68571905D01*
X25233380Y69143334D02*
X25233380Y69238572D01*
X25281000Y69333810D01*
X25328619Y69381429D01*
X25423857Y69429048D01*
X25614333Y69476667D01*
X25852428Y69476667D01*
X26042904Y69429048D01*
X26138142Y69381429D01*
X26185761Y69333810D01*
X26233380Y69238572D01*
X26233380Y69143334D01*
X26185761Y69048096D01*
X26138142Y69000477D01*
X26042904Y68952858D01*
X25852428Y68905239D01*
X25614333Y68905239D01*
X25423857Y68952858D01*
X25328619Y69000477D01*
X25281000Y69048096D01*
X25233380Y69143334D01*
X25233380Y70381429D02*
X25233380Y69905239D01*
X25709571Y69857620D01*
X25661952Y69905239D01*
X25614333Y70000477D01*
X25614333Y70238572D01*
X25661952Y70333810D01*
X25709571Y70381429D01*
X25804809Y70429048D01*
X26042904Y70429048D01*
X26138142Y70381429D01*
X26185761Y70333810D01*
X26233380Y70238572D01*
X26233380Y70000477D01*
X26185761Y69905239D01*
X26138142Y69857620D01*
X25233380Y70762381D02*
X25233380Y71381429D01*
X25614333Y71048096D01*
X25614333Y71190953D01*
X25661952Y71286191D01*
X25709571Y71333810D01*
X25804809Y71381429D01*
X26042904Y71381429D01*
X26138142Y71333810D01*
X26185761Y71286191D01*
X26233380Y71190953D01*
X26233380Y70905239D01*
X26185761Y70810000D01*
X26138142Y70762381D01*
%TO.C,U2*%
X39624095Y74207620D02*
X39624095Y73398096D01*
X39671714Y73302858D01*
X39719333Y73255239D01*
X39814571Y73207620D01*
X40005047Y73207620D01*
X40100285Y73255239D01*
X40147904Y73302858D01*
X40195523Y73398096D01*
X40195523Y74207620D01*
X40624095Y74112381D02*
X40671714Y74160000D01*
X40766952Y74207620D01*
X41005047Y74207620D01*
X41100285Y74160000D01*
X41147904Y74112381D01*
X41195523Y74017143D01*
X41195523Y73921905D01*
X41147904Y73779048D01*
X40576476Y73207620D01*
X41195523Y73207620D01*
X39838380Y63190953D02*
X39838380Y63857620D01*
X40838380Y63429048D01*
X40171714Y64667143D02*
X40838380Y64667143D01*
X39790761Y64429048D02*
X40505047Y64190953D01*
X40505047Y64810000D01*
X40838380Y65190953D02*
X39838380Y65190953D01*
X40314571Y65190953D02*
X40314571Y65762381D01*
X40838380Y65762381D02*
X39838380Y65762381D01*
X40743142Y66810000D02*
X40790761Y66762381D01*
X40838380Y66619524D01*
X40838380Y66524286D01*
X40790761Y66381429D01*
X40695523Y66286191D01*
X40600285Y66238572D01*
X40409809Y66190953D01*
X40266952Y66190953D01*
X40076476Y66238572D01*
X39981238Y66286191D01*
X39886000Y66381429D01*
X39838380Y66524286D01*
X39838380Y66619524D01*
X39886000Y66762381D01*
X39933619Y66810000D01*
X39838380Y67095715D02*
X39838380Y67667143D01*
X40838380Y67381429D02*
X39838380Y67381429D01*
X40171714Y68429048D02*
X40838380Y68429048D01*
X39790761Y68190953D02*
X40505047Y67952858D01*
X40505047Y68571905D01*
X39838380Y69143334D02*
X39838380Y69238572D01*
X39886000Y69333810D01*
X39933619Y69381429D01*
X40028857Y69429048D01*
X40219333Y69476667D01*
X40457428Y69476667D01*
X40647904Y69429048D01*
X40743142Y69381429D01*
X40790761Y69333810D01*
X40838380Y69238572D01*
X40838380Y69143334D01*
X40790761Y69048096D01*
X40743142Y69000477D01*
X40647904Y68952858D01*
X40457428Y68905239D01*
X40219333Y68905239D01*
X40028857Y68952858D01*
X39933619Y69000477D01*
X39886000Y69048096D01*
X39838380Y69143334D01*
X39838380Y70381429D02*
X39838380Y69905239D01*
X40314571Y69857620D01*
X40266952Y69905239D01*
X40219333Y70000477D01*
X40219333Y70238572D01*
X40266952Y70333810D01*
X40314571Y70381429D01*
X40409809Y70429048D01*
X40647904Y70429048D01*
X40743142Y70381429D01*
X40790761Y70333810D01*
X40838380Y70238572D01*
X40838380Y70000477D01*
X40790761Y69905239D01*
X40743142Y69857620D01*
X39838380Y70762381D02*
X39838380Y71381429D01*
X40219333Y71048096D01*
X40219333Y71190953D01*
X40266952Y71286191D01*
X40314571Y71333810D01*
X40409809Y71381429D01*
X40647904Y71381429D01*
X40743142Y71333810D01*
X40790761Y71286191D01*
X40838380Y71190953D01*
X40838380Y70905239D01*
X40790761Y70810000D01*
X40743142Y70762381D01*
%TO.C,U3*%
X39624095Y48807620D02*
X39624095Y47998096D01*
X39671714Y47902858D01*
X39719333Y47855239D01*
X39814571Y47807620D01*
X40005047Y47807620D01*
X40100285Y47855239D01*
X40147904Y47902858D01*
X40195523Y47998096D01*
X40195523Y48807620D01*
X40576476Y48807620D02*
X41195523Y48807620D01*
X40862190Y48426667D01*
X41005047Y48426667D01*
X41100285Y48379048D01*
X41147904Y48331429D01*
X41195523Y48236191D01*
X41195523Y47998096D01*
X41147904Y47902858D01*
X41100285Y47855239D01*
X41005047Y47807620D01*
X40719333Y47807620D01*
X40624095Y47855239D01*
X40576476Y47902858D01*
X38219333Y45267620D02*
X38219333Y46267620D01*
X38790761Y45267620D01*
X38790761Y46267620D01*
X39266952Y45791429D02*
X39600285Y45791429D01*
X39743142Y45267620D02*
X39266952Y45267620D01*
X39266952Y46267620D01*
X39743142Y46267620D01*
X40647904Y46267620D02*
X40171714Y46267620D01*
X40124095Y45791429D01*
X40171714Y45839048D01*
X40266952Y45886667D01*
X40505047Y45886667D01*
X40600285Y45839048D01*
X40647904Y45791429D01*
X40695523Y45696191D01*
X40695523Y45458096D01*
X40647904Y45362858D01*
X40600285Y45315239D01*
X40505047Y45267620D01*
X40266952Y45267620D01*
X40171714Y45315239D01*
X40124095Y45362858D01*
X41600285Y46267620D02*
X41124095Y46267620D01*
X41076476Y45791429D01*
X41124095Y45839048D01*
X41219333Y45886667D01*
X41457428Y45886667D01*
X41552666Y45839048D01*
X41600285Y45791429D01*
X41647904Y45696191D01*
X41647904Y45458096D01*
X41600285Y45362858D01*
X41552666Y45315239D01*
X41457428Y45267620D01*
X41219333Y45267620D01*
X41124095Y45315239D01*
X41076476Y45362858D01*
X42552666Y46267620D02*
X42076476Y46267620D01*
X42028857Y45791429D01*
X42076476Y45839048D01*
X42171714Y45886667D01*
X42409809Y45886667D01*
X42505047Y45839048D01*
X42552666Y45791429D01*
X42600285Y45696191D01*
X42600285Y45458096D01*
X42552666Y45362858D01*
X42505047Y45315239D01*
X42409809Y45267620D01*
X42171714Y45267620D01*
X42076476Y45315239D01*
X42028857Y45362858D01*
%TO.C,C1*%
X25614333Y79652858D02*
X25566714Y79605239D01*
X25423857Y79557620D01*
X25328619Y79557620D01*
X25185761Y79605239D01*
X25090523Y79700477D01*
X25042904Y79795715D01*
X24995285Y79986191D01*
X24995285Y80129048D01*
X25042904Y80319524D01*
X25090523Y80414762D01*
X25185761Y80510000D01*
X25328619Y80557620D01*
X25423857Y80557620D01*
X25566714Y80510000D01*
X25614333Y80462381D01*
X26566714Y79557620D02*
X25995285Y79557620D01*
X26281000Y79557620D02*
X26281000Y80557620D01*
X26185761Y80414762D01*
X26090523Y80319524D01*
X25995285Y80271905D01*
%TO.C,C2*%
X40219333Y79652858D02*
X40171714Y79605239D01*
X40028857Y79557620D01*
X39933619Y79557620D01*
X39790761Y79605239D01*
X39695523Y79700477D01*
X39647904Y79795715D01*
X39600285Y79986191D01*
X39600285Y80129048D01*
X39647904Y80319524D01*
X39695523Y80414762D01*
X39790761Y80510000D01*
X39933619Y80557620D01*
X40028857Y80557620D01*
X40171714Y80510000D01*
X40219333Y80462381D01*
X40600285Y80462381D02*
X40647904Y80510000D01*
X40743142Y80557620D01*
X40981238Y80557620D01*
X41076476Y80510000D01*
X41124095Y80462381D01*
X41171714Y80367143D01*
X41171714Y80271905D01*
X41124095Y80129048D01*
X40552666Y79557620D01*
X41171714Y79557620D01*
%TO.C,C3*%
X40219333Y54252858D02*
X40171714Y54205239D01*
X40028857Y54157620D01*
X39933619Y54157620D01*
X39790761Y54205239D01*
X39695523Y54300477D01*
X39647904Y54395715D01*
X39600285Y54586191D01*
X39600285Y54729048D01*
X39647904Y54919524D01*
X39695523Y55014762D01*
X39790761Y55110000D01*
X39933619Y55157620D01*
X40028857Y55157620D01*
X40171714Y55110000D01*
X40219333Y55062381D01*
X40552666Y55157620D02*
X41171714Y55157620D01*
X40838380Y54776667D01*
X40981238Y54776667D01*
X41076476Y54729048D01*
X41124095Y54681429D01*
X41171714Y54586191D01*
X41171714Y54348096D01*
X41124095Y54252858D01*
X41076476Y54205239D01*
X40981238Y54157620D01*
X40695523Y54157620D01*
X40600285Y54205239D01*
X40552666Y54252858D01*
%TO.C,R5*%
X24328380Y50633334D02*
X23852190Y50300000D01*
X24328380Y50061905D02*
X23328380Y50061905D01*
X23328380Y50442858D01*
X23376000Y50538096D01*
X23423619Y50585715D01*
X23518857Y50633334D01*
X23661714Y50633334D01*
X23756952Y50585715D01*
X23804571Y50538096D01*
X23852190Y50442858D01*
X23852190Y50061905D01*
X23328380Y51538096D02*
X23328380Y51061905D01*
X23804571Y51014286D01*
X23756952Y51061905D01*
X23709333Y51157143D01*
X23709333Y51395239D01*
X23756952Y51490477D01*
X23804571Y51538096D01*
X23899809Y51585715D01*
X24137904Y51585715D01*
X24233142Y51538096D01*
X24280761Y51490477D01*
X24328380Y51395239D01*
X24328380Y51157143D01*
X24280761Y51061905D01*
X24233142Y51014286D01*
X25884333Y51252381D02*
X25931952Y51300000D01*
X26027190Y51347620D01*
X26265285Y51347620D01*
X26360523Y51300000D01*
X26408142Y51252381D01*
X26455761Y51157143D01*
X26455761Y51061905D01*
X26408142Y50919048D01*
X25836714Y50347620D01*
X26455761Y50347620D01*
X26884333Y50347620D02*
X26884333Y51347620D01*
X26979571Y50728572D02*
X27265285Y50347620D01*
X27265285Y51014286D02*
X26884333Y50633334D01*
X27646238Y51252381D02*
X27693857Y51300000D01*
X27789095Y51347620D01*
X28027190Y51347620D01*
X28122428Y51300000D01*
X28170047Y51252381D01*
X28217666Y51157143D01*
X28217666Y51061905D01*
X28170047Y50919048D01*
X27598619Y50347620D01*
X28217666Y50347620D01*
%TO.C,R6*%
X24328380Y54443334D02*
X23852190Y54110000D01*
X24328380Y53871905D02*
X23328380Y53871905D01*
X23328380Y54252858D01*
X23376000Y54348096D01*
X23423619Y54395715D01*
X23518857Y54443334D01*
X23661714Y54443334D01*
X23756952Y54395715D01*
X23804571Y54348096D01*
X23852190Y54252858D01*
X23852190Y53871905D01*
X23328380Y55300477D02*
X23328380Y55110000D01*
X23376000Y55014762D01*
X23423619Y54967143D01*
X23566476Y54871905D01*
X23756952Y54824286D01*
X24137904Y54824286D01*
X24233142Y54871905D01*
X24280761Y54919524D01*
X24328380Y55014762D01*
X24328380Y55205239D01*
X24280761Y55300477D01*
X24233142Y55348096D01*
X24137904Y55395715D01*
X23899809Y55395715D01*
X23804571Y55348096D01*
X23756952Y55300477D01*
X23709333Y55205239D01*
X23709333Y55014762D01*
X23756952Y54919524D01*
X23804571Y54871905D01*
X23899809Y54824286D01*
X25979571Y54157620D02*
X25408142Y54157620D01*
X25693857Y54157620D02*
X25693857Y55157620D01*
X25598619Y55014762D01*
X25503380Y54919524D01*
X25408142Y54871905D01*
X26598619Y55157620D02*
X26693857Y55157620D01*
X26789095Y55110000D01*
X26836714Y55062381D01*
X26884333Y54967143D01*
X26931952Y54776667D01*
X26931952Y54538572D01*
X26884333Y54348096D01*
X26836714Y54252858D01*
X26789095Y54205239D01*
X26693857Y54157620D01*
X26598619Y54157620D01*
X26503380Y54205239D01*
X26455761Y54252858D01*
X26408142Y54348096D01*
X26360523Y54538572D01*
X26360523Y54776667D01*
X26408142Y54967143D01*
X26455761Y55062381D01*
X26503380Y55110000D01*
X26598619Y55157620D01*
X27551000Y55157620D02*
X27646238Y55157620D01*
X27741476Y55110000D01*
X27789095Y55062381D01*
X27836714Y54967143D01*
X27884333Y54776667D01*
X27884333Y54538572D01*
X27836714Y54348096D01*
X27789095Y54252858D01*
X27741476Y54205239D01*
X27646238Y54157620D01*
X27551000Y54157620D01*
X27455761Y54205239D01*
X27408142Y54252858D01*
X27360523Y54348096D01*
X27312904Y54538572D01*
X27312904Y54776667D01*
X27360523Y54967143D01*
X27408142Y55062381D01*
X27455761Y55110000D01*
X27551000Y55157620D01*
X28312904Y54157620D02*
X28312904Y55157620D01*
X28408142Y54538572D02*
X28693857Y54157620D01*
X28693857Y54824286D02*
X28312904Y54443334D01*
%TO.C,R7*%
X24328380Y46823334D02*
X23852190Y46490000D01*
X24328380Y46251905D02*
X23328380Y46251905D01*
X23328380Y46632858D01*
X23376000Y46728096D01*
X23423619Y46775715D01*
X23518857Y46823334D01*
X23661714Y46823334D01*
X23756952Y46775715D01*
X23804571Y46728096D01*
X23852190Y46632858D01*
X23852190Y46251905D01*
X23328380Y47156667D02*
X23328380Y47823334D01*
X24328380Y47394762D01*
X25884333Y47442381D02*
X25931952Y47490000D01*
X26027190Y47537620D01*
X26265285Y47537620D01*
X26360523Y47490000D01*
X26408142Y47442381D01*
X26455761Y47347143D01*
X26455761Y47251905D01*
X26408142Y47109048D01*
X25836714Y46537620D01*
X26455761Y46537620D01*
X26884333Y46537620D02*
X26884333Y47537620D01*
X26979571Y46918572D02*
X27265285Y46537620D01*
X27265285Y47204286D02*
X26884333Y46823334D01*
X27646238Y47442381D02*
X27693857Y47490000D01*
X27789095Y47537620D01*
X28027190Y47537620D01*
X28122428Y47490000D01*
X28170047Y47442381D01*
X28217666Y47347143D01*
X28217666Y47251905D01*
X28170047Y47109048D01*
X27598619Y46537620D01*
X28217666Y46537620D01*
%TO.C,R9*%
X16708380Y34758334D02*
X16232190Y34425000D01*
X16708380Y34186905D02*
X15708380Y34186905D01*
X15708380Y34567858D01*
X15756000Y34663096D01*
X15803619Y34710715D01*
X15898857Y34758334D01*
X16041714Y34758334D01*
X16136952Y34710715D01*
X16184571Y34663096D01*
X16232190Y34567858D01*
X16232190Y34186905D01*
X16708380Y35234524D02*
X16708380Y35425000D01*
X16660761Y35520239D01*
X16613142Y35567858D01*
X16470285Y35663096D01*
X16279809Y35710715D01*
X15898857Y35710715D01*
X15803619Y35663096D01*
X15756000Y35615477D01*
X15708380Y35520239D01*
X15708380Y35329762D01*
X15756000Y35234524D01*
X15803619Y35186905D01*
X15898857Y35139286D01*
X16136952Y35139286D01*
X16232190Y35186905D01*
X16279809Y35234524D01*
X16327428Y35329762D01*
X16327428Y35520239D01*
X16279809Y35615477D01*
X16232190Y35663096D01*
X16136952Y35710715D01*
X18835761Y34472620D02*
X18264333Y34472620D01*
X18550047Y34472620D02*
X18550047Y35472620D01*
X18454809Y35329762D01*
X18359571Y35234524D01*
X18264333Y35186905D01*
X19454809Y35472620D02*
X19550047Y35472620D01*
X19645285Y35425000D01*
X19692904Y35377381D01*
X19740523Y35282143D01*
X19788142Y35091667D01*
X19788142Y34853572D01*
X19740523Y34663096D01*
X19692904Y34567858D01*
X19645285Y34520239D01*
X19550047Y34472620D01*
X19454809Y34472620D01*
X19359571Y34520239D01*
X19311952Y34567858D01*
X19264333Y34663096D01*
X19216714Y34853572D01*
X19216714Y35091667D01*
X19264333Y35282143D01*
X19311952Y35377381D01*
X19359571Y35425000D01*
X19454809Y35472620D01*
X20216714Y34472620D02*
X20216714Y35472620D01*
X20311952Y34853572D02*
X20597666Y34472620D01*
X20597666Y35139286D02*
X20216714Y34758334D01*
%TO.C,RV1*%
X28995761Y31297620D02*
X28662428Y31773810D01*
X28424333Y31297620D02*
X28424333Y32297620D01*
X28805285Y32297620D01*
X28900523Y32250000D01*
X28948142Y32202381D01*
X28995761Y32107143D01*
X28995761Y31964286D01*
X28948142Y31869048D01*
X28900523Y31821429D01*
X28805285Y31773810D01*
X28424333Y31773810D01*
X29281476Y32297620D02*
X29614809Y31297620D01*
X29948142Y32297620D01*
X30805285Y31297620D02*
X30233857Y31297620D01*
X30519571Y31297620D02*
X30519571Y32297620D01*
X30424333Y32154762D01*
X30329095Y32059524D01*
X30233857Y32011905D01*
%TO.C,U4*%
X39624095Y33567620D02*
X39624095Y32758096D01*
X39671714Y32662858D01*
X39719333Y32615239D01*
X39814571Y32567620D01*
X40005047Y32567620D01*
X40100285Y32615239D01*
X40147904Y32662858D01*
X40195523Y32758096D01*
X40195523Y33567620D01*
X41100285Y33234286D02*
X41100285Y32567620D01*
X40862190Y33615239D02*
X40624095Y32900953D01*
X41243142Y32900953D01*
X38219333Y30027620D02*
X38219333Y31027620D01*
X38790761Y30027620D01*
X38790761Y31027620D01*
X39266952Y30551429D02*
X39600285Y30551429D01*
X39743142Y30027620D02*
X39266952Y30027620D01*
X39266952Y31027620D01*
X39743142Y31027620D01*
X40647904Y31027620D02*
X40171714Y31027620D01*
X40124095Y30551429D01*
X40171714Y30599048D01*
X40266952Y30646667D01*
X40505047Y30646667D01*
X40600285Y30599048D01*
X40647904Y30551429D01*
X40695523Y30456191D01*
X40695523Y30218096D01*
X40647904Y30122858D01*
X40600285Y30075239D01*
X40505047Y30027620D01*
X40266952Y30027620D01*
X40171714Y30075239D01*
X40124095Y30122858D01*
X41600285Y31027620D02*
X41124095Y31027620D01*
X41076476Y30551429D01*
X41124095Y30599048D01*
X41219333Y30646667D01*
X41457428Y30646667D01*
X41552666Y30599048D01*
X41600285Y30551429D01*
X41647904Y30456191D01*
X41647904Y30218096D01*
X41600285Y30122858D01*
X41552666Y30075239D01*
X41457428Y30027620D01*
X41219333Y30027620D01*
X41124095Y30075239D01*
X41076476Y30122858D01*
X42552666Y31027620D02*
X42076476Y31027620D01*
X42028857Y30551429D01*
X42076476Y30599048D01*
X42171714Y30646667D01*
X42409809Y30646667D01*
X42505047Y30599048D01*
X42552666Y30551429D01*
X42600285Y30456191D01*
X42600285Y30218096D01*
X42552666Y30122858D01*
X42505047Y30075239D01*
X42409809Y30027620D01*
X42171714Y30027620D01*
X42076476Y30075239D01*
X42028857Y30122858D01*
%TO.C,C4*%
X40219333Y39012858D02*
X40171714Y38965239D01*
X40028857Y38917620D01*
X39933619Y38917620D01*
X39790761Y38965239D01*
X39695523Y39060477D01*
X39647904Y39155715D01*
X39600285Y39346191D01*
X39600285Y39489048D01*
X39647904Y39679524D01*
X39695523Y39774762D01*
X39790761Y39870000D01*
X39933619Y39917620D01*
X40028857Y39917620D01*
X40171714Y39870000D01*
X40219333Y39822381D01*
X41076476Y39584286D02*
X41076476Y38917620D01*
X40838380Y39965239D02*
X40600285Y39250953D01*
X41219333Y39250953D01*
%TO.C,C5*%
X12803142Y38568334D02*
X12850761Y38520715D01*
X12898380Y38377858D01*
X12898380Y38282620D01*
X12850761Y38139762D01*
X12755523Y38044524D01*
X12660285Y37996905D01*
X12469809Y37949286D01*
X12326952Y37949286D01*
X12136476Y37996905D01*
X12041238Y38044524D01*
X11946000Y38139762D01*
X11898380Y38282620D01*
X11898380Y38377858D01*
X11946000Y38520715D01*
X11993619Y38568334D01*
X11898380Y39473096D02*
X11898380Y38996905D01*
X12374571Y38949286D01*
X12326952Y38996905D01*
X12279333Y39092143D01*
X12279333Y39330239D01*
X12326952Y39425477D01*
X12374571Y39473096D01*
X12469809Y39520715D01*
X12707904Y39520715D01*
X12803142Y39473096D01*
X12850761Y39425477D01*
X12898380Y39330239D01*
X12898380Y39092143D01*
X12850761Y38996905D01*
X12803142Y38949286D01*
%TO.C,JP2*%
X14240285Y31710334D02*
X14716476Y31710334D01*
X14145047Y31424620D02*
X14478380Y32424620D01*
X14811714Y31424620D01*
X15145047Y32424620D02*
X15145047Y31615096D01*
X15192666Y31519858D01*
X15240285Y31472239D01*
X15335523Y31424620D01*
X15526000Y31424620D01*
X15621238Y31472239D01*
X15668857Y31519858D01*
X15716476Y31615096D01*
X15716476Y32424620D01*
X16049809Y32424620D02*
X16621238Y32424620D01*
X16335523Y31424620D02*
X16335523Y32424620D01*
X17145047Y32424620D02*
X17335523Y32424620D01*
X17430761Y32377000D01*
X17526000Y32281762D01*
X17573619Y32091286D01*
X17573619Y31757953D01*
X17526000Y31567477D01*
X17430761Y31472239D01*
X17335523Y31424620D01*
X17145047Y31424620D01*
X17049809Y31472239D01*
X16954571Y31567477D01*
X16906952Y31757953D01*
X16906952Y32091286D01*
X16954571Y32281762D01*
X17049809Y32377000D01*
X17145047Y32424620D01*
X18335523Y31948429D02*
X18002190Y31948429D01*
X18002190Y31424620D02*
X18002190Y32424620D01*
X18478380Y32424620D01*
X18859333Y31424620D02*
X18859333Y32424620D01*
X19906952Y31424620D02*
X19573619Y31900810D01*
X19335523Y31424620D02*
X19335523Y32424620D01*
X19716476Y32424620D01*
X19811714Y32377000D01*
X19859333Y32329381D01*
X19906952Y32234143D01*
X19906952Y32091286D01*
X19859333Y31996048D01*
X19811714Y31948429D01*
X19716476Y31900810D01*
X19335523Y31900810D01*
X20335523Y31948429D02*
X20668857Y31948429D01*
X20811714Y31424620D02*
X20335523Y31424620D01*
X20335523Y32424620D01*
X20811714Y32424620D01*
%TD*%
%LPC*%
D13*
%TO.C,J2*%
X7956000Y60975000D03*
D14*
X7956000Y63745000D03*
X7956000Y66515000D03*
X7956000Y69285000D03*
X7956000Y72055000D03*
X5116000Y62360000D03*
X5116000Y65130000D03*
X5116000Y67900000D03*
X5116000Y70670000D03*
D15*
X6536000Y79015000D03*
X6536000Y54015000D03*
%TD*%
D13*
%TO.C,J1*%
X7956000Y29775000D03*
D14*
X7956000Y32545000D03*
X7956000Y35315000D03*
X7956000Y38085000D03*
X7956000Y40855000D03*
X5116000Y31160000D03*
X5116000Y33930000D03*
X5116000Y36700000D03*
X5116000Y39470000D03*
D15*
X6536000Y47815000D03*
X6536000Y22815000D03*
%TD*%
D14*
%TO.C,R2*%
X20701000Y39370000D03*
D16*
X30861000Y39370000D03*
%TD*%
D17*
%TO.C,D1*%
X14351000Y77470000D03*
D18*
X14351000Y80010000D03*
%TD*%
D17*
%TO.C,D2*%
X14351000Y46355000D03*
D18*
X14351000Y48895000D03*
%TD*%
D13*
%TO.C,J3*%
X12192000Y11335000D03*
D14*
X14962000Y11335000D03*
X17732000Y11335000D03*
X20502000Y11335000D03*
X23272000Y11335000D03*
X13577000Y8495000D03*
X16347000Y8495000D03*
X19117000Y8495000D03*
X21887000Y8495000D03*
D15*
X5232000Y9915000D03*
X30232000Y9915000D03*
%TD*%
D19*
%TO.C,JP1*%
X32766000Y22225000D03*
D20*
X35306000Y22225000D03*
%TD*%
D14*
%TO.C,R1*%
X20701000Y43180000D03*
D16*
X30861000Y43180000D03*
%TD*%
D14*
%TO.C,R3*%
X12446000Y73025000D03*
D16*
X12446000Y62865000D03*
%TD*%
D14*
%TO.C,R4*%
X16256000Y73025000D03*
D16*
X16256000Y62865000D03*
%TD*%
D21*
%TO.C,SW1*%
X39806000Y1905000D03*
X35306000Y1905000D03*
X39806000Y8405000D03*
X35306000Y8405000D03*
%TD*%
%TO.C,SW2*%
X47426000Y1905000D03*
X42926000Y1905000D03*
X47426000Y8405000D03*
X42926000Y8405000D03*
%TD*%
D13*
%TO.C,U1*%
X21971000Y76200000D03*
D16*
X29591000Y58420000D03*
X21971000Y73660000D03*
X29591000Y60960000D03*
X21971000Y71120000D03*
X29591000Y63500000D03*
X21971000Y68580000D03*
X29591000Y66040000D03*
X21971000Y66040000D03*
X29591000Y68580000D03*
X21971000Y63500000D03*
X29591000Y71120000D03*
X21971000Y60960000D03*
X29591000Y73660000D03*
X21971000Y58420000D03*
X29591000Y76200000D03*
%TD*%
D13*
%TO.C,U2*%
X36576000Y76200000D03*
D16*
X44196000Y58420000D03*
X36576000Y73660000D03*
X44196000Y60960000D03*
X36576000Y71120000D03*
X44196000Y63500000D03*
X36576000Y68580000D03*
X44196000Y66040000D03*
X36576000Y66040000D03*
X44196000Y68580000D03*
X36576000Y63500000D03*
X44196000Y71120000D03*
X36576000Y60960000D03*
X44196000Y73660000D03*
X36576000Y58420000D03*
X44196000Y76200000D03*
%TD*%
D13*
%TO.C,U3*%
X36576000Y50800000D03*
D16*
X44196000Y43180000D03*
X36576000Y48260000D03*
G36*
G01*
X43630315Y45154315D02*
X43630315Y45154315D01*
G75*
G02*
X43630315Y46285685I565685J565685D01*
G01*
X43630315Y46285685D01*
G75*
G02*
X44761685Y46285685I565685J-565685D01*
G01*
X44761685Y46285685D01*
G75*
G02*
X44761685Y45154315I-565685J-565685D01*
G01*
X44761685Y45154315D01*
G75*
G02*
X43630315Y45154315I-565685J565685D01*
G01*
G37*
X36576000Y45720000D03*
X44196000Y48260000D03*
X36576000Y43180000D03*
X44196000Y50800000D03*
%TD*%
D14*
%TO.C,C1*%
X28321000Y80010000D03*
X23321000Y80010000D03*
%TD*%
%TO.C,C2*%
X42926000Y80010000D03*
X37926000Y80010000D03*
%TD*%
%TO.C,C3*%
X42926000Y54610000D03*
X37926000Y54610000D03*
%TD*%
D22*
%TO.C,Q1*%
X14351000Y55245000D03*
X14351000Y57785000D03*
D23*
X14351000Y52705000D03*
%TD*%
D14*
%TO.C,R5*%
X20701000Y50800000D03*
D16*
X30861000Y50800000D03*
%TD*%
D14*
%TO.C,R6*%
X20701000Y54610000D03*
D16*
X30861000Y54610000D03*
%TD*%
D14*
%TO.C,R7*%
X20701000Y46990000D03*
D16*
X30861000Y46990000D03*
%TD*%
D19*
%TO.C,J4*%
X24511000Y22225000D03*
D20*
X27051000Y22225000D03*
X24511000Y19685000D03*
X27051000Y19685000D03*
X24511000Y17145000D03*
X27051000Y17145000D03*
%TD*%
D19*
%TO.C,J5*%
X16256000Y22225000D03*
D20*
X18796000Y22225000D03*
X16256000Y19685000D03*
X18796000Y19685000D03*
X16256000Y17145000D03*
X18796000Y17145000D03*
%TD*%
D14*
%TO.C,R9*%
X13081000Y34925000D03*
D16*
X23241000Y34925000D03*
%TD*%
D24*
%TO.C,RV1*%
X29551000Y34250000D03*
X32051000Y29210000D03*
X27051000Y29210000D03*
%TD*%
D13*
%TO.C,U4*%
X36576000Y35560000D03*
D16*
X44196000Y27940000D03*
X36576000Y33020000D03*
X44196000Y30480000D03*
X36576000Y30480000D03*
X44196000Y33020000D03*
X36576000Y27940000D03*
X44196000Y35560000D03*
%TD*%
D14*
%TO.C,C4*%
X42926000Y39370000D03*
X37926000Y39370000D03*
%TD*%
D13*
%TO.C,C5*%
X14351000Y38735000D03*
D14*
X14351000Y41235000D03*
%TD*%
D19*
%TO.C,JP2*%
X14986000Y29210000D03*
D20*
X17526000Y29210000D03*
X20066000Y29210000D03*
%TD*%
M02*
