G04 #@! TF.FileFunction,Copper,L1,Top,Signal*
%FSLAX46Y46*%
G04 Gerber Fmt 4.6, Leading zero omitted, Abs format (unit mm)*
G04 Created by KiCad (PCBNEW 4.0.7) date 01/25/20 22:00:21*
%MOMM*%
%LPD*%
G01*
G04 APERTURE LIST*
%ADD10C,0.100000*%
%ADD11R,1.800000X1.800000*%
%ADD12C,1.800000*%
%ADD13R,1.600000X1.600000*%
%ADD14C,1.600000*%
%ADD15C,4.000000*%
%ADD16R,1.700000X1.700000*%
%ADD17O,1.700000X1.700000*%
%ADD18O,1.600000X1.600000*%
%ADD19C,2.000000*%
%ADD20C,1.520000*%
%ADD21R,1.520000X1.520000*%
%ADD22C,2.500000*%
%ADD23C,0.600000*%
%ADD24C,0.250000*%
G04 APERTURE END LIST*
D10*
D11*
X112395000Y-40005000D03*
D12*
X112395000Y-37465000D03*
D11*
X112395000Y-71120000D03*
D12*
X112395000Y-68580000D03*
D13*
X106000000Y-87700000D03*
D14*
X106000000Y-84930000D03*
X106000000Y-82160000D03*
X106000000Y-79390000D03*
X106000000Y-76620000D03*
X103160000Y-86315000D03*
X103160000Y-83545000D03*
X103160000Y-80775000D03*
X103160000Y-78005000D03*
D15*
X104580000Y-69660000D03*
X104580000Y-94660000D03*
D13*
X106000000Y-56500000D03*
D14*
X106000000Y-53730000D03*
X106000000Y-50960000D03*
X106000000Y-48190000D03*
X106000000Y-45420000D03*
X103160000Y-55115000D03*
X103160000Y-52345000D03*
X103160000Y-49575000D03*
X103160000Y-46805000D03*
D15*
X104580000Y-38460000D03*
X104580000Y-63460000D03*
D13*
X110236000Y-106140000D03*
D14*
X113006000Y-106140000D03*
X115776000Y-106140000D03*
X118546000Y-106140000D03*
X121316000Y-106140000D03*
X111621000Y-108980000D03*
X114391000Y-108980000D03*
X117161000Y-108980000D03*
X119931000Y-108980000D03*
D15*
X103276000Y-107560000D03*
X128276000Y-107560000D03*
D16*
X130810000Y-95250000D03*
D17*
X133350000Y-95250000D03*
D14*
X118745000Y-74295000D03*
D18*
X128905000Y-74295000D03*
D14*
X118745000Y-78105000D03*
D18*
X128905000Y-78105000D03*
D14*
X110490000Y-44450000D03*
D18*
X110490000Y-54610000D03*
D14*
X114300000Y-44450000D03*
D18*
X114300000Y-54610000D03*
D19*
X137850000Y-115570000D03*
X133350000Y-115570000D03*
X137850000Y-109070000D03*
X133350000Y-109070000D03*
X145470000Y-115570000D03*
X140970000Y-115570000D03*
X145470000Y-109070000D03*
X140970000Y-109070000D03*
D13*
X120015000Y-41275000D03*
D18*
X127635000Y-59055000D03*
X120015000Y-43815000D03*
X127635000Y-56515000D03*
X120015000Y-46355000D03*
X127635000Y-53975000D03*
X120015000Y-48895000D03*
X127635000Y-51435000D03*
X120015000Y-51435000D03*
X127635000Y-48895000D03*
X120015000Y-53975000D03*
X127635000Y-46355000D03*
X120015000Y-56515000D03*
X127635000Y-43815000D03*
X120015000Y-59055000D03*
X127635000Y-41275000D03*
D13*
X134620000Y-41275000D03*
D18*
X142240000Y-59055000D03*
X134620000Y-43815000D03*
X142240000Y-56515000D03*
X134620000Y-46355000D03*
X142240000Y-53975000D03*
X134620000Y-48895000D03*
X142240000Y-51435000D03*
X134620000Y-51435000D03*
X142240000Y-48895000D03*
X134620000Y-53975000D03*
X142240000Y-46355000D03*
X134620000Y-56515000D03*
X142240000Y-43815000D03*
X134620000Y-59055000D03*
X142240000Y-41275000D03*
D13*
X134620000Y-66675000D03*
D18*
X142240000Y-74295000D03*
X134620000Y-69215000D03*
X142240000Y-71755000D03*
X134620000Y-71755000D03*
X142240000Y-69215000D03*
X134620000Y-74295000D03*
X142240000Y-66675000D03*
D14*
X126365000Y-37465000D03*
X121365000Y-37465000D03*
X140970000Y-37465000D03*
X135970000Y-37465000D03*
X140970000Y-62865000D03*
X135970000Y-62865000D03*
D20*
X112395000Y-62230000D03*
X112395000Y-59690000D03*
D21*
X112395000Y-64770000D03*
D14*
X118745000Y-66675000D03*
D18*
X128905000Y-66675000D03*
D14*
X118745000Y-62865000D03*
D18*
X128905000Y-62865000D03*
D14*
X118745000Y-70485000D03*
D18*
X128905000Y-70485000D03*
D16*
X122555000Y-95250000D03*
D17*
X125095000Y-95250000D03*
X122555000Y-97790000D03*
X125095000Y-97790000D03*
X122555000Y-100330000D03*
X125095000Y-100330000D03*
D16*
X114300000Y-95250000D03*
D17*
X116840000Y-95250000D03*
X114300000Y-97790000D03*
X116840000Y-97790000D03*
X114300000Y-100330000D03*
X116840000Y-100330000D03*
D14*
X111125000Y-82550000D03*
D18*
X121285000Y-82550000D03*
D22*
X127595000Y-83225000D03*
X130095000Y-88265000D03*
X125095000Y-88265000D03*
D13*
X134620000Y-81915000D03*
D18*
X142240000Y-89535000D03*
X134620000Y-84455000D03*
X142240000Y-86995000D03*
X134620000Y-86995000D03*
X142240000Y-84455000D03*
X134620000Y-89535000D03*
X142240000Y-81915000D03*
D14*
X140970000Y-78105000D03*
X135970000Y-78105000D03*
D13*
X112395000Y-78740000D03*
D14*
X112395000Y-76240000D03*
D16*
X113030000Y-88265000D03*
D17*
X115570000Y-88265000D03*
X118110000Y-88265000D03*
D23*
X126365000Y-68580000D03*
X128270000Y-72390000D03*
X115570000Y-68580000D03*
X101600000Y-53340000D03*
X101600000Y-51435000D03*
X114935000Y-70485000D03*
X114935000Y-61595000D03*
X146685000Y-81280000D03*
X146685000Y-66040000D03*
X146685000Y-36830000D03*
X139065000Y-48260000D03*
X137795000Y-74295000D03*
X118110000Y-90805000D03*
X139065000Y-74295000D03*
X120650000Y-92710000D03*
X139700000Y-43180000D03*
X140970000Y-45720000D03*
X121285000Y-93345000D03*
X139700000Y-73660000D03*
X119380000Y-92075000D03*
X138430000Y-73660000D03*
X139700000Y-44450000D03*
X120650000Y-90805000D03*
X136525000Y-86360000D03*
X136525000Y-83820000D03*
X118745000Y-91440000D03*
X110490000Y-69850000D03*
X116205000Y-69215000D03*
X130175000Y-59690000D03*
X125095000Y-69215000D03*
X127000000Y-64770000D03*
X131445000Y-46990000D03*
X116840000Y-81915000D03*
X116840000Y-85090000D03*
X116840000Y-79375000D03*
X115570000Y-62230000D03*
X116205000Y-62865000D03*
X127000000Y-60960000D03*
X126365000Y-62230000D03*
X131445000Y-50800000D03*
X129540000Y-60960000D03*
X144780000Y-73660000D03*
X127635000Y-73025000D03*
X145415000Y-68580000D03*
X146050000Y-101600000D03*
X130810000Y-71120000D03*
X136525000Y-60960000D03*
X137795000Y-41910000D03*
X132715000Y-67310000D03*
X132715000Y-69215000D03*
X130175000Y-45720000D03*
X129540000Y-58420000D03*
X131445000Y-67310000D03*
X131445000Y-69215000D03*
X114935000Y-80645000D03*
X114935000Y-81915000D03*
X121920000Y-58420000D03*
X125730000Y-57785000D03*
X115570000Y-82550000D03*
X116205000Y-80645000D03*
X135255000Y-60960000D03*
X132080000Y-69850000D03*
X132080000Y-66675000D03*
X137160000Y-49530000D03*
X135255000Y-55245000D03*
X116840000Y-48895000D03*
X116840000Y-46355000D03*
X129540000Y-43180000D03*
X116205000Y-46990000D03*
X116205000Y-48260000D03*
X112395000Y-102235000D03*
X132715000Y-86995000D03*
X131445000Y-86360000D03*
X130810000Y-84455000D03*
X132715000Y-84455000D03*
X140335000Y-84455000D03*
X137795000Y-84455000D03*
X115570000Y-91440000D03*
X146685000Y-82550000D03*
X146050000Y-46990000D03*
X137160000Y-102870000D03*
X139065000Y-102870000D03*
X137795000Y-85725000D03*
X132715000Y-85725000D03*
X130175000Y-85090000D03*
D24*
X126365000Y-71755000D02*
X126365000Y-68580000D01*
X127000000Y-72390000D02*
X126365000Y-71755000D01*
X128270000Y-72390000D02*
X127000000Y-72390000D01*
X126365000Y-68580000D02*
X125730000Y-68580000D01*
X125730000Y-68580000D02*
X115570000Y-68580000D01*
X112395000Y-68580000D02*
X110490000Y-66675000D01*
X110490000Y-66675000D02*
X102235000Y-66675000D01*
X102235000Y-66675000D02*
X101600000Y-66040000D01*
X101600000Y-66040000D02*
X101600000Y-53340000D01*
X101600000Y-51435000D02*
X101600000Y-42545000D01*
X101600000Y-42545000D02*
X102235000Y-41910000D01*
X102235000Y-41910000D02*
X107315000Y-41910000D01*
X107315000Y-41910000D02*
X109220000Y-40005000D01*
X109220000Y-40005000D02*
X112395000Y-40005000D01*
X128905000Y-57785000D02*
X127635000Y-59055000D01*
X128905000Y-57785000D02*
X140970000Y-57785000D01*
X140970000Y-57785000D02*
X142240000Y-56515000D01*
X110490000Y-44450000D02*
X110490000Y-42545000D01*
X111125000Y-41910000D02*
X110490000Y-42545000D01*
X113030000Y-41910000D02*
X111125000Y-41910000D01*
X113665000Y-41275000D02*
X113030000Y-41910000D01*
X113665000Y-38100000D02*
X113665000Y-41275000D01*
X113665000Y-38100000D02*
X113030000Y-37465000D01*
X112395000Y-37465000D02*
X113030000Y-37465000D01*
X114935000Y-70485000D02*
X114935000Y-69850000D01*
X114935000Y-69850000D02*
X114935000Y-61595000D01*
X127635000Y-41275000D02*
X127635000Y-38735000D01*
X127635000Y-38735000D02*
X126365000Y-37465000D01*
X142240000Y-41275000D02*
X142240000Y-38735000D01*
X142240000Y-38735000D02*
X140970000Y-37465000D01*
X128905000Y-74295000D02*
X128905000Y-78105000D01*
X142240000Y-66675000D02*
X137160000Y-66675000D01*
X137160000Y-66675000D02*
X135890000Y-67945000D01*
X146050000Y-81915000D02*
X142240000Y-81915000D01*
X146685000Y-81280000D02*
X146050000Y-81915000D01*
X142240000Y-81915000D02*
X142240000Y-79375000D01*
X142240000Y-79375000D02*
X140970000Y-78105000D01*
X103160000Y-52345000D02*
X110130000Y-52345000D01*
X110490000Y-52705000D02*
X110490000Y-53975000D01*
X110130000Y-52345000D02*
X110490000Y-52705000D01*
X142240000Y-66675000D02*
X146050000Y-66675000D01*
X146050000Y-66675000D02*
X146685000Y-66040000D01*
X128905000Y-67310000D02*
X129540000Y-67310000D01*
X130175000Y-67945000D02*
X135890000Y-67945000D01*
X129540000Y-67310000D02*
X130175000Y-67945000D01*
X126365000Y-37465000D02*
X126365000Y-36830000D01*
X126365000Y-36830000D02*
X125730000Y-36195000D01*
X127000000Y-36195000D02*
X125730000Y-36195000D01*
X125730000Y-36195000D02*
X116205000Y-36195000D01*
X100965000Y-41910000D02*
X101600000Y-41275000D01*
X101600000Y-41275000D02*
X106680000Y-41275000D01*
X106680000Y-41275000D02*
X107315000Y-40640000D01*
X107315000Y-40640000D02*
X107315000Y-36830000D01*
X107315000Y-36830000D02*
X107950000Y-36195000D01*
X107950000Y-36195000D02*
X116205000Y-36195000D01*
X100965000Y-41910000D02*
X100965000Y-52705000D01*
X140970000Y-37465000D02*
X140970000Y-36830000D01*
X140970000Y-36830000D02*
X140335000Y-36195000D01*
X146050000Y-36195000D02*
X140335000Y-36195000D01*
X146685000Y-36830000D02*
X146050000Y-36195000D01*
X127000000Y-36195000D02*
X140335000Y-36195000D01*
X100965000Y-83185000D02*
X100965000Y-104140000D01*
X114391000Y-110399000D02*
X114391000Y-108980000D01*
X113665000Y-111125000D02*
X114391000Y-110399000D01*
X106680000Y-111125000D02*
X113665000Y-111125000D01*
X106045000Y-110490000D02*
X106680000Y-111125000D01*
X106045000Y-105410000D02*
X106045000Y-110490000D01*
X105410000Y-104775000D02*
X106045000Y-105410000D01*
X101600000Y-104775000D02*
X105410000Y-104775000D01*
X100965000Y-104140000D02*
X101600000Y-104775000D01*
X103160000Y-83545000D02*
X101325000Y-83545000D01*
X101325000Y-52345000D02*
X100965000Y-52705000D01*
X101325000Y-52345000D02*
X103160000Y-52345000D01*
X100965000Y-83185000D02*
X100965000Y-52705000D01*
X101325000Y-83545000D02*
X100965000Y-83185000D01*
X133350000Y-77470000D02*
X134620000Y-76200000D01*
X132080000Y-83185000D02*
X132715000Y-82550000D01*
X132715000Y-82550000D02*
X132715000Y-78105000D01*
X136525000Y-76200000D02*
X137160000Y-76200000D01*
X138430000Y-47625000D02*
X137795000Y-47625000D01*
X139065000Y-48260000D02*
X138430000Y-47625000D01*
X137795000Y-75565000D02*
X137795000Y-74295000D01*
X137160000Y-76200000D02*
X137795000Y-75565000D01*
X132080000Y-89535000D02*
X132080000Y-83185000D01*
X134620000Y-76200000D02*
X136525000Y-76200000D01*
X132715000Y-78105000D02*
X133350000Y-77470000D01*
X132080000Y-89535000D02*
X131445000Y-90170000D01*
X120650000Y-90170000D02*
X131445000Y-90170000D01*
X137795000Y-47625000D02*
X121285000Y-47625000D01*
X121285000Y-47625000D02*
X120015000Y-48895000D01*
X118745000Y-90170000D02*
X119380000Y-90170000D01*
X118110000Y-90805000D02*
X118745000Y-90170000D01*
X123190000Y-90170000D02*
X120650000Y-90170000D01*
X120650000Y-90170000D02*
X119380000Y-90170000D01*
X139065000Y-91440000D02*
X138430000Y-92075000D01*
X139065000Y-74295000D02*
X139065000Y-91440000D01*
X120650000Y-92710000D02*
X121285000Y-92075000D01*
X121285000Y-92075000D02*
X138430000Y-92075000D01*
X130175000Y-43815000D02*
X132715000Y-43815000D01*
X132715000Y-43815000D02*
X133985000Y-42545000D01*
X139700000Y-43180000D02*
X139065000Y-42545000D01*
X139065000Y-42545000D02*
X133985000Y-42545000D01*
X130175000Y-43815000D02*
X127635000Y-43815000D01*
X127635000Y-46355000D02*
X132715000Y-46355000D01*
X140335000Y-45085000D02*
X133985000Y-45085000D01*
X140970000Y-45720000D02*
X140335000Y-45085000D01*
X132715000Y-46355000D02*
X133985000Y-45085000D01*
X121920000Y-92710000D02*
X139065000Y-92710000D01*
X121920000Y-92710000D02*
X121285000Y-93345000D01*
X139700000Y-92075000D02*
X139700000Y-73660000D01*
X139065000Y-92710000D02*
X139700000Y-92075000D01*
X120650000Y-91440000D02*
X120015000Y-91440000D01*
X120015000Y-91440000D02*
X119380000Y-92075000D01*
X138430000Y-89535000D02*
X138430000Y-73660000D01*
X125095000Y-91440000D02*
X137795000Y-91440000D01*
X125095000Y-91440000D02*
X120650000Y-91440000D01*
X138430000Y-90805000D02*
X138430000Y-89535000D01*
X137795000Y-91440000D02*
X138430000Y-90805000D01*
X140335000Y-43815000D02*
X142240000Y-43815000D01*
X139700000Y-44450000D02*
X140335000Y-43815000D01*
X125095000Y-95250000D02*
X130810000Y-95250000D01*
X116840000Y-95250000D02*
X118110000Y-96520000D01*
X123825000Y-96520000D02*
X125095000Y-95250000D01*
X118110000Y-96520000D02*
X123825000Y-96520000D01*
X136525000Y-90170000D02*
X136525000Y-86360000D01*
X123190000Y-90805000D02*
X120650000Y-90805000D01*
X123190000Y-90805000D02*
X135890000Y-90805000D01*
X136525000Y-90170000D02*
X135890000Y-90805000D01*
X135890000Y-81915000D02*
X134620000Y-81915000D01*
X136525000Y-83820000D02*
X136525000Y-82550000D01*
X136525000Y-82550000D02*
X135890000Y-81915000D01*
X120015000Y-90805000D02*
X119380000Y-90805000D01*
X120650000Y-90805000D02*
X120015000Y-90805000D01*
X119380000Y-90805000D02*
X118745000Y-91440000D01*
X116840000Y-97790000D02*
X118110000Y-99060000D01*
X123825000Y-99060000D02*
X125095000Y-97790000D01*
X118110000Y-99060000D02*
X123825000Y-99060000D01*
X107950000Y-70485000D02*
X106045000Y-72390000D01*
X128905000Y-64770000D02*
X127000000Y-64770000D01*
X108585000Y-69850000D02*
X110490000Y-69850000D01*
X107950000Y-70485000D02*
X108585000Y-69850000D01*
X104140000Y-72390000D02*
X106045000Y-72390000D01*
X103160000Y-78005000D02*
X103160000Y-73370000D01*
X103160000Y-73370000D02*
X104140000Y-72390000D01*
X116205000Y-69215000D02*
X125095000Y-69215000D01*
X130175000Y-64135000D02*
X130175000Y-59690000D01*
X129540000Y-64770000D02*
X130175000Y-64135000D01*
X128905000Y-64770000D02*
X129540000Y-64770000D01*
X133350000Y-46990000D02*
X131445000Y-46990000D01*
X133985000Y-46355000D02*
X133350000Y-46990000D01*
X134620000Y-46355000D02*
X133985000Y-46355000D01*
X103160000Y-46805000D02*
X107130000Y-46805000D01*
X118745000Y-50165000D02*
X121285000Y-50165000D01*
X130175000Y-51435000D02*
X134620000Y-51435000D01*
X128905000Y-50165000D02*
X121285000Y-50165000D01*
X130175000Y-51435000D02*
X128905000Y-50165000D01*
X118110000Y-50165000D02*
X118745000Y-50165000D01*
X117475000Y-49530000D02*
X118110000Y-50165000D01*
X117475000Y-48260000D02*
X117475000Y-49530000D01*
X116840000Y-47625000D02*
X117475000Y-48260000D01*
X107950000Y-47625000D02*
X116840000Y-47625000D01*
X107130000Y-46805000D02*
X107950000Y-47625000D01*
X116840000Y-85090000D02*
X116840000Y-81915000D01*
X118745000Y-70485000D02*
X117475000Y-70485000D01*
X116840000Y-71120000D02*
X116840000Y-79375000D01*
X117475000Y-70485000D02*
X116840000Y-71120000D01*
X118745000Y-70485000D02*
X118110000Y-70485000D01*
X119380000Y-70485000D02*
X118745000Y-70485000D01*
X116840000Y-100330000D02*
X118110000Y-101600000D01*
X123825000Y-101600000D02*
X125095000Y-100330000D01*
X118110000Y-101600000D02*
X123825000Y-101600000D01*
X115570000Y-62230000D02*
X116205000Y-61595000D01*
X117475000Y-61595000D02*
X116205000Y-61595000D01*
X117475000Y-61595000D02*
X127000000Y-61595000D01*
X127000000Y-61595000D02*
X127635000Y-61595000D01*
X128270000Y-61595000D02*
X128905000Y-62230000D01*
X127635000Y-61595000D02*
X128270000Y-61595000D01*
X128905000Y-62230000D02*
X128905000Y-62865000D01*
X128905000Y-70485000D02*
X127635000Y-70485000D01*
X127000000Y-62865000D02*
X128905000Y-62865000D01*
X126365000Y-63500000D02*
X127000000Y-62865000D01*
X126365000Y-66040000D02*
X126365000Y-63500000D01*
X127000000Y-66675000D02*
X126365000Y-66040000D01*
X127000000Y-69850000D02*
X127000000Y-66675000D01*
X127635000Y-70485000D02*
X127000000Y-69850000D01*
X117475000Y-62865000D02*
X116205000Y-62865000D01*
X125095000Y-62865000D02*
X125730000Y-62865000D01*
X125730000Y-62865000D02*
X126365000Y-62230000D01*
X118745000Y-62865000D02*
X125095000Y-62865000D01*
X132080000Y-48895000D02*
X131445000Y-49530000D01*
X131445000Y-49530000D02*
X131445000Y-50800000D01*
X132080000Y-48895000D02*
X134620000Y-48895000D01*
X127000000Y-60960000D02*
X129540000Y-60960000D01*
X118745000Y-62865000D02*
X118745000Y-66675000D01*
X118745000Y-62865000D02*
X117475000Y-62865000D01*
X143510000Y-73025000D02*
X144145000Y-73025000D01*
X135890000Y-74295000D02*
X137160000Y-73025000D01*
X137160000Y-73025000D02*
X143510000Y-73025000D01*
X135890000Y-74295000D02*
X134620000Y-74295000D01*
X144145000Y-73025000D02*
X144780000Y-73660000D01*
X127635000Y-73025000D02*
X120015000Y-73025000D01*
X120015000Y-73025000D02*
X118745000Y-74295000D01*
X130175000Y-75565000D02*
X130175000Y-78740000D01*
X119380000Y-79375000D02*
X118745000Y-78740000D01*
X129540000Y-79375000D02*
X119380000Y-79375000D01*
X130175000Y-78740000D02*
X129540000Y-79375000D01*
X118745000Y-78740000D02*
X118745000Y-78105000D01*
X138430000Y-102235000D02*
X137795000Y-102870000D01*
X146050000Y-101600000D02*
X145415000Y-102235000D01*
X145415000Y-102235000D02*
X138430000Y-102235000D01*
X144780000Y-67945000D02*
X145415000Y-68580000D01*
X134620000Y-69215000D02*
X135890000Y-69215000D01*
X137160000Y-67945000D02*
X143510000Y-67945000D01*
X135890000Y-69215000D02*
X137160000Y-67945000D01*
X143510000Y-67945000D02*
X144780000Y-67945000D01*
X137795000Y-102870000D02*
X137795000Y-109015000D01*
X137795000Y-109015000D02*
X137850000Y-109070000D01*
X130810000Y-71755000D02*
X130810000Y-74930000D01*
X130810000Y-71120000D02*
X130810000Y-71755000D01*
X130810000Y-74930000D02*
X130175000Y-75565000D01*
X116205000Y-85725000D02*
X109220000Y-85725000D01*
X109220000Y-85725000D02*
X107245000Y-87700000D01*
X118110000Y-85725000D02*
X116205000Y-85725000D01*
X131445000Y-85090000D02*
X130810000Y-85725000D01*
X130810000Y-85725000D02*
X118110000Y-85725000D01*
X131445000Y-82550000D02*
X132080000Y-81915000D01*
X132080000Y-81915000D02*
X132080000Y-77470000D01*
X135890000Y-61595000D02*
X136525000Y-60960000D01*
X134620000Y-41275000D02*
X137160000Y-41275000D01*
X137795000Y-41910000D02*
X137160000Y-41275000D01*
X132715000Y-67310000D02*
X132715000Y-62865000D01*
X132715000Y-76835000D02*
X132715000Y-69215000D01*
X132080000Y-77470000D02*
X132715000Y-76835000D01*
X132715000Y-62230000D02*
X133350000Y-61595000D01*
X133350000Y-61595000D02*
X135890000Y-61595000D01*
X132715000Y-62865000D02*
X132715000Y-62230000D01*
X131445000Y-82550000D02*
X131445000Y-85090000D01*
X107245000Y-87700000D02*
X106000000Y-87700000D01*
X118745000Y-80010000D02*
X115570000Y-80010000D01*
X118745000Y-80010000D02*
X123825000Y-80010000D01*
X130175000Y-59055000D02*
X129540000Y-58420000D01*
X131445000Y-67310000D02*
X131445000Y-62865000D01*
X131445000Y-75565000D02*
X131445000Y-69215000D01*
X130810000Y-76200000D02*
X131445000Y-75565000D01*
X131445000Y-62865000D02*
X131445000Y-60325000D01*
X120015000Y-46355000D02*
X121285000Y-45085000D01*
X129540000Y-45085000D02*
X121285000Y-45085000D01*
X130175000Y-45720000D02*
X129540000Y-45085000D01*
X131445000Y-59690000D02*
X130810000Y-59055000D01*
X130810000Y-59055000D02*
X130175000Y-59055000D01*
X131445000Y-60325000D02*
X131445000Y-59690000D01*
X129540000Y-80010000D02*
X123825000Y-80010000D01*
X115570000Y-80010000D02*
X114935000Y-80645000D01*
X130175000Y-80010000D02*
X130810000Y-79375000D01*
X130810000Y-79375000D02*
X130810000Y-76200000D01*
X129540000Y-80010000D02*
X130175000Y-80010000D01*
X114300000Y-84455000D02*
X106680000Y-84455000D01*
X106680000Y-84455000D02*
X106205000Y-84930000D01*
X114935000Y-83820000D02*
X114300000Y-84455000D01*
X114935000Y-81915000D02*
X114935000Y-83820000D01*
X106205000Y-84930000D02*
X106000000Y-84930000D01*
X108585000Y-78740000D02*
X108585000Y-74295000D01*
X114300000Y-73025000D02*
X114300000Y-72390000D01*
X113665000Y-73660000D02*
X114300000Y-73025000D01*
X109220000Y-73660000D02*
X113665000Y-73660000D01*
X108585000Y-74295000D02*
X109220000Y-73660000D01*
X118745000Y-60325000D02*
X114935000Y-60325000D01*
X114300000Y-72390000D02*
X114300000Y-61595000D01*
X106000000Y-82160000D02*
X107705000Y-82160000D01*
X108585000Y-81280000D02*
X108585000Y-78740000D01*
X107705000Y-82160000D02*
X108585000Y-81280000D01*
X121285000Y-60325000D02*
X118745000Y-60325000D01*
X121920000Y-59690000D02*
X121285000Y-60325000D01*
X121920000Y-58420000D02*
X121920000Y-59690000D01*
X114300000Y-60960000D02*
X114300000Y-61595000D01*
X114935000Y-60325000D02*
X114300000Y-60960000D01*
X107950000Y-75565000D02*
X107950000Y-73660000D01*
X113030000Y-73025000D02*
X113665000Y-72390000D01*
X108585000Y-73025000D02*
X113030000Y-73025000D01*
X107950000Y-73660000D02*
X108585000Y-73025000D01*
X107300000Y-79390000D02*
X107950000Y-78740000D01*
X107950000Y-78740000D02*
X107950000Y-75565000D01*
X106000000Y-79390000D02*
X107300000Y-79390000D01*
X113665000Y-72390000D02*
X113665000Y-69850000D01*
X113665000Y-69850000D02*
X113665000Y-58420000D01*
X113665000Y-58420000D02*
X114300000Y-57785000D01*
X114300000Y-57785000D02*
X125730000Y-57785000D01*
X114935000Y-85090000D02*
X115570000Y-84455000D01*
X115570000Y-84455000D02*
X115570000Y-82550000D01*
X103205000Y-86360000D02*
X106680000Y-86360000D01*
X116205000Y-80645000D02*
X125730000Y-80645000D01*
X130175000Y-80645000D02*
X125730000Y-80645000D01*
X132080000Y-62230000D02*
X132080000Y-61595000D01*
X132715000Y-60960000D02*
X135255000Y-60960000D01*
X132080000Y-61595000D02*
X132715000Y-60960000D01*
X131445000Y-76835000D02*
X132080000Y-76200000D01*
X132080000Y-76200000D02*
X132080000Y-69850000D01*
X132080000Y-66675000D02*
X132080000Y-62230000D01*
X137160000Y-49530000D02*
X137795000Y-48895000D01*
X137795000Y-48895000D02*
X142240000Y-48895000D01*
X130994998Y-80645000D02*
X131445000Y-80194998D01*
X131445000Y-80194998D02*
X131445000Y-76835000D01*
X130175000Y-80645000D02*
X130994998Y-80645000D01*
X114935000Y-85090000D02*
X109220000Y-85090000D01*
X109220000Y-85090000D02*
X107950000Y-85090000D01*
X107950000Y-85090000D02*
X106725000Y-86315000D01*
X106725000Y-86315000D02*
X106680000Y-86360000D01*
X106000000Y-56500000D02*
X107300000Y-56500000D01*
X116205000Y-57150000D02*
X118110000Y-55245000D01*
X107950000Y-57150000D02*
X116205000Y-57150000D01*
X107300000Y-56500000D02*
X107950000Y-57150000D01*
X118110000Y-55245000D02*
X118745000Y-55245000D01*
X118745000Y-55245000D02*
X135255000Y-55245000D01*
X120015000Y-51435000D02*
X113030000Y-51435000D01*
X108340000Y-53730000D02*
X108585000Y-53975000D01*
X108585000Y-53975000D02*
X108585000Y-55245000D01*
X108585000Y-55245000D02*
X109220000Y-55880000D01*
X109220000Y-55880000D02*
X111125000Y-55880000D01*
X112395000Y-52070000D02*
X112395000Y-53340000D01*
X112395000Y-54610000D02*
X112395000Y-53340000D01*
X108340000Y-53730000D02*
X106000000Y-53730000D01*
X111760000Y-55880000D02*
X112395000Y-55245000D01*
X112395000Y-55245000D02*
X112395000Y-54610000D01*
X111125000Y-55880000D02*
X111760000Y-55880000D01*
X113030000Y-51435000D02*
X112395000Y-52070000D01*
X116840000Y-46355000D02*
X116840000Y-44450000D01*
X106000000Y-50960000D02*
X116045000Y-50960000D01*
X116045000Y-50960000D02*
X116840000Y-50165000D01*
X116840000Y-50165000D02*
X116840000Y-48895000D01*
X117475000Y-43815000D02*
X120015000Y-43815000D01*
X116840000Y-44450000D02*
X117475000Y-43815000D01*
X106000000Y-48190000D02*
X107245000Y-48190000D01*
X128905000Y-42545000D02*
X118745000Y-42545000D01*
X129540000Y-43180000D02*
X128905000Y-42545000D01*
X116840000Y-42545000D02*
X118745000Y-42545000D01*
X116205000Y-43180000D02*
X116840000Y-42545000D01*
X116205000Y-46990000D02*
X116205000Y-43180000D01*
X115570000Y-48895000D02*
X116205000Y-48260000D01*
X107950000Y-48895000D02*
X115570000Y-48895000D01*
X107245000Y-48190000D02*
X107950000Y-48895000D01*
X111760000Y-56515000D02*
X115570000Y-56515000D01*
X115570000Y-56515000D02*
X119380000Y-52705000D01*
X103160000Y-55115000D02*
X107820000Y-55115000D01*
X119380000Y-52705000D02*
X140970000Y-52705000D01*
X140970000Y-52705000D02*
X142240000Y-51435000D01*
X108585000Y-56515000D02*
X111760000Y-56515000D01*
X107950000Y-55880000D02*
X108585000Y-56515000D01*
X107950000Y-55245000D02*
X107950000Y-55880000D01*
X107820000Y-55115000D02*
X107950000Y-55245000D01*
X112395000Y-94615000D02*
X112395000Y-102235000D01*
X132715000Y-93980000D02*
X113030000Y-93980000D01*
X133350000Y-94615000D02*
X132715000Y-93980000D01*
X113030000Y-93980000D02*
X112395000Y-94615000D01*
X133350000Y-95250000D02*
X133350000Y-94615000D01*
X118110000Y-86360000D02*
X113665000Y-86360000D01*
X131445000Y-86360000D02*
X118110000Y-86360000D01*
X134620000Y-86995000D02*
X132715000Y-86995000D01*
X113030000Y-86995000D02*
X113030000Y-88265000D01*
X113665000Y-86360000D02*
X113030000Y-86995000D01*
X130810000Y-84455000D02*
X130175000Y-83820000D01*
X134620000Y-84455000D02*
X132715000Y-84455000D01*
X126365000Y-81280000D02*
X122555000Y-81280000D01*
X113030000Y-81280000D02*
X111760000Y-81280000D01*
X119380000Y-81280000D02*
X122555000Y-81280000D01*
X113030000Y-81280000D02*
X119380000Y-81280000D01*
X129540000Y-81280000D02*
X126365000Y-81280000D01*
X130175000Y-81915000D02*
X129540000Y-81280000D01*
X130175000Y-83820000D02*
X130175000Y-81915000D01*
X111125000Y-82550000D02*
X111125000Y-81915000D01*
X112395000Y-78740000D02*
X112395000Y-79375000D01*
X112395000Y-79375000D02*
X112395000Y-80645000D01*
X112395000Y-80645000D02*
X111760000Y-81280000D01*
X111760000Y-81280000D02*
X111125000Y-81915000D01*
X134620000Y-84455000D02*
X137795000Y-84455000D01*
X140970000Y-86360000D02*
X141605000Y-86995000D01*
X140970000Y-85725000D02*
X140970000Y-86360000D01*
X140970000Y-85090000D02*
X140970000Y-85725000D01*
X140335000Y-84455000D02*
X140970000Y-85090000D01*
X141605000Y-86995000D02*
X142240000Y-86995000D01*
X111760000Y-102870000D02*
X111125000Y-102235000D01*
X115570000Y-92075000D02*
X115570000Y-91440000D01*
X114935000Y-92710000D02*
X115570000Y-92075000D01*
X111760000Y-92710000D02*
X114935000Y-92710000D01*
X111125000Y-93345000D02*
X111760000Y-92710000D01*
X111125000Y-93980000D02*
X111125000Y-93345000D01*
X111125000Y-102235000D02*
X111125000Y-93980000D01*
X146685000Y-84455000D02*
X146685000Y-82550000D01*
X145415000Y-46355000D02*
X142240000Y-46355000D01*
X146050000Y-46990000D02*
X145415000Y-46355000D01*
X111760000Y-102870000D02*
X137160000Y-102870000D01*
X139065000Y-102870000D02*
X146050000Y-102870000D01*
X146050000Y-102870000D02*
X146685000Y-102235000D01*
X146685000Y-102235000D02*
X146685000Y-84455000D01*
X146685000Y-84455000D02*
X146685000Y-83820000D01*
X127595000Y-83225000D02*
X127595000Y-84415000D01*
X127595000Y-84415000D02*
X128270000Y-85090000D01*
X121285000Y-82550000D02*
X121285000Y-84455000D01*
X137160000Y-85725000D02*
X137795000Y-85725000D01*
X132715000Y-85725000D02*
X137160000Y-85725000D01*
X130175000Y-85090000D02*
X128270000Y-85090000D01*
X128270000Y-85090000D02*
X121920000Y-85090000D01*
X121920000Y-85090000D02*
X121285000Y-84455000D01*
M02*
